<?xml version="1.0" encoding="utf-8"?>
<svg height="320.84px" viewBox="40.4968 91.3439 419.0064 320.8404"
    width="419.006px" xmlns="http://www.w3.org/2000/svg">
    <g style=""
        id="svg"
        transform="matrix(1.2626190185546875, 0, 0, 1.2011200189590454, -47.89653396606445, 36.753108978271484)">
        <title>Letras</title>
        <path style="stroke-width: 1;" d="M 346.259 237.607 C 343.499 238.009 342.895 239.321 342.849 245.023 L 342.82 248.772 L 340.753 248.878 C 336.89 249.078 335.338 249.826 334.435 251.925 C 333.916 253.134 333.86 255.449 334.335 255.97 C 334.5 256.151 334.635 256.426 334.635 256.583 C 334.635 257.937 337.498 259.082 340.878 259.082 C 343.131 259.082 342.906 257.741 342.91 271.26 C 342.913 282.3 343.009 285.074 343.405 285.571 C 343.485 285.672 343.605 286.061 343.672 286.437 C 343.809 287.2 344.443 288.566 344.66 288.566 C 344.738 288.566 344.801 288.666 344.801 288.788 C 344.801 289.082 346.042 290.937 346.554 291.409 C 347.834 292.595 348.738 293.338 348.892 293.338 C 348.988 293.338 349.158 293.445 349.269 293.578 C 349.379 293.708 349.679 293.867 349.936 293.93 C 350.193 293.995 350.518 294.149 350.661 294.272 C 351.044 294.607 355.407 295.723 356.339 295.726 C 356.878 295.728 359.001 295.238 359.709 294.949 C 359.993 294.833 360.471 294.686 360.774 294.623 C 361.075 294.561 361.413 294.399 361.527 294.264 C 361.639 294.13 361.808 294.02 361.903 294.02 C 363.334 294.02 365.998 290.461 365.998 288.547 C 365.998 286.8 364.027 284.105 362.582 283.876 C 362.233 283.82 361.754 283.728 361.519 283.671 C 361.281 283.614 361.014 283.585 360.926 283.606 C 360.838 283.628 360.395 283.713 359.942 283.8 C 359.185 283.941 357.844 284.709 356.94 285.522 C 356.464 285.948 356.44 285.942 355.445 285.158 C 354.968 284.783 354.513 284.476 354.435 284.476 C 353.643 284.476 353.431 281.179 353.424 268.76 C 353.419 259.712 353.428 259.429 353.752 259.259 C 353.947 259.156 355.401 259.081 357.241 259.079 C 362.151 259.076 363.49 258.646 364.348 256.798 C 365.253 254.846 365.254 253.776 364.353 251.84 C 363.353 249.687 361.766 249.132 355.916 248.882 L 353.333 248.772 L 353.246 244.827 C 353.171 241.385 353.122 240.84 352.858 240.553 C 352.692 240.371 352.556 240.16 352.556 240.084 C 352.556 239.773 351.651 238.796 350.893 238.29 C 349.747 237.526 348.294 237.311 346.259 237.607 M 308.615 248.363 C 305.456 248.806 304.954 248.898 304.519 249.123 C 304.26 249.257 303.917 249.367 303.758 249.367 C 303.595 249.368 303.421 249.44 303.368 249.525 C 303.313 249.612 303.018 249.736 302.711 249.801 C 302.173 249.913 300.531 250.586 299.999 250.91 C 299.856 250.997 299.479 251.183 299.16 251.325 C 298.842 251.467 298.324 251.792 298.014 252.053 C 297.701 252.309 297.157 252.713 296.804 252.947 C 296.453 253.182 295.982 253.566 295.76 253.8 C 295.537 254.034 295.264 254.301 295.153 254.395 C 294.447 255.001 292.765 256.771 292.34 257.358 C 292.062 257.745 291.77 258.059 291.694 258.059 C 291.618 258.059 291.555 258.177 291.555 258.317 C 291.555 258.46 291.399 258.706 291.211 258.866 C 291.02 259.028 290.865 259.252 290.865 259.365 C 290.865 259.476 290.435 260.4 289.91 261.414 C 289.383 262.428 288.847 263.703 288.715 264.247 C 288.585 264.793 288.399 265.332 288.301 265.448 C 288.205 265.565 288.072 266.193 288.009 266.845 C 287.944 267.496 287.785 268.288 287.654 268.604 C 287.322 269.417 287.325 275.144 287.658 276.162 C 287.79 276.564 287.948 277.338 288.007 277.883 C 288.065 278.428 288.222 279.04 288.353 279.246 C 288.484 279.45 288.648 279.881 288.714 280.202 C 288.783 280.522 289.138 281.366 289.505 282.076 C 289.871 282.786 290.173 283.458 290.175 283.568 C 290.176 283.677 290.237 283.792 290.311 283.823 C 290.385 283.854 290.671 284.326 290.948 284.871 C 291.224 285.416 291.638 286.063 291.868 286.307 C 292.097 286.553 292.589 287.134 292.961 287.598 C 293.333 288.062 293.997 288.76 294.441 289.145 C 294.884 289.529 295.549 290.133 295.92 290.484 C 296.29 290.835 296.649 291.123 296.719 291.123 C 296.786 291.123 296.985 291.276 297.156 291.464 C 297.326 291.652 297.56 291.804 297.675 291.804 C 297.788 291.804 298.243 292.078 298.684 292.41 C 299.125 292.743 299.737 293.1 300.045 293.201 C 300.35 293.302 300.718 293.483 300.86 293.599 C 301.002 293.717 301.389 293.866 301.722 293.931 C 302.054 294 302.48 294.151 302.672 294.271 C 302.861 294.388 303.404 294.573 303.877 294.68 C 304.351 294.784 305.28 295.032 305.944 295.229 C 309.089 296.16 314.318 296.192 316.972 295.296 C 317.636 295.069 318.566 294.803 319.038 294.701 C 319.509 294.596 320.013 294.417 320.157 294.301 C 320.3 294.184 320.805 293.991 321.276 293.875 C 321.748 293.756 322.175 293.607 322.224 293.542 C 322.273 293.478 322.675 293.244 323.117 293.026 C 323.557 292.805 324.063 292.519 324.238 292.386 C 324.839 291.93 325.863 291.293 325.993 291.293 C 327.099 291.293 330.328 286.698 330.328 285.125 C 330.328 284.016 328.912 281.238 328.349 281.238 C 328.219 281.238 328.007 281.136 327.88 281.009 C 327.121 280.259 324.232 280.101 323.001 280.744 C 321.856 281.343 320.486 282.28 320.388 282.533 C 320.263 282.859 319.116 283.597 317.663 284.291 C 316.998 284.607 316.249 284.968 315.998 285.096 C 315.746 285.224 315.394 285.328 315.214 285.328 C 315.035 285.328 314.79 285.424 314.672 285.541 C 314.516 285.696 313.644 285.755 311.544 285.755 C 309.444 285.755 308.573 285.696 308.416 285.541 C 308.299 285.424 308.032 285.328 307.826 285.328 C 307.449 285.328 306.027 284.76 304.737 284.094 C 303.774 283.596 301.892 282.08 301.895 281.805 C 301.899 281.617 303.048 281.092 303.743 280.961 C 304.048 280.903 304.388 280.75 304.497 280.621 C 304.605 280.492 304.867 280.386 305.078 280.386 C 305.29 280.386 305.96 280.134 306.565 279.825 C 307.171 279.516 308.016 279.157 308.442 279.024 C 308.869 278.892 309.372 278.691 309.563 278.576 C 309.753 278.46 310.199 278.313 310.556 278.249 C 310.912 278.185 311.242 278.071 311.288 277.996 C 311.402 277.812 312.691 277.217 313.441 277 C 313.771 276.903 314.586 276.622 315.25 276.372 C 315.912 276.123 316.805 275.804 317.23 275.666 C 318.216 275.346 319.436 274.786 319.554 274.597 C 319.605 274.517 319.948 274.4 320.318 274.338 C 320.688 274.277 321.133 274.118 321.307 273.988 C 321.482 273.857 321.72 273.748 321.835 273.745 C 321.951 273.742 322.469 273.548 322.987 273.314 C 323.505 273.079 324.034 272.887 324.161 272.887 C 324.291 272.887 324.699 272.733 325.071 272.547 C 325.442 272.36 325.837 272.206 325.949 272.206 C 326.059 272.206 326.242 272.094 326.355 271.961 C 326.467 271.826 326.807 271.664 327.109 271.603 C 327.41 271.541 327.812 271.398 328.001 271.286 C 328.19 271.173 328.672 270.977 329.069 270.853 C 329.467 270.727 329.833 270.519 329.881 270.392 C 329.931 270.264 330.074 270.161 330.201 270.161 C 331.136 270.161 332.707 266.643 332.162 265.77 C 332.108 265.683 331.977 264.907 331.871 264.043 C 331.689 262.563 331.211 261.098 330.839 260.869 C 330.747 260.812 330.671 260.649 330.671 260.506 C 330.671 260.286 330.105 259.214 329.244 257.804 C 328.408 256.439 325.522 253.542 324.068 252.613 C 323.436 252.209 322.917 251.819 322.917 251.75 C 322.917 251.679 322.607 251.498 322.228 251.347 C 321.849 251.198 321.539 250.998 321.539 250.903 C 321.539 250.809 321.404 250.731 321.237 250.73 C 321.071 250.729 320.549 250.54 320.074 250.31 C 319.599 250.079 319.112 249.887 318.993 249.886 C 318.87 249.882 318.289 249.676 317.699 249.429 C 315.552 248.528 311.137 248.009 308.615 248.363 M 256.66 248.764 C 255.995 248.874 255.221 249.059 254.937 249.179 C 254.652 249.296 253.954 249.548 253.385 249.737 C 252.818 249.926 252.158 250.184 251.921 250.307 C 251.684 250.43 250.985 250.776 250.37 251.072 C 249.754 251.367 249.079 251.798 248.87 252.025 C 248.04 252.927 246.752 252.728 246.752 251.695 C 246.752 251.323 245.309 250.095 244.597 249.864 C 244.218 249.74 243.835 249.578 243.744 249.504 C 243.521 249.319 240.763 249.332 240.647 249.518 C 240.596 249.6 240.223 249.749 239.818 249.85 C 238.875 250.084 237.928 251.04 237.458 252.229 C 237.103 253.127 237.101 253.229 237.101 280.918 L 237.101 308.707 L 237.597 309.757 C 238.25 311.144 238.999 311.899 240.04 312.219 C 242.968 313.12 245.681 312.243 247.026 309.954 L 247.527 309.103 L 247.579 300.624 C 247.638 291.066 247.569 291.472 248.923 292.648 C 249.239 292.924 249.774 293.201 250.108 293.264 C 250.442 293.326 250.715 293.442 250.715 293.523 C 250.715 293.604 251.14 293.792 251.659 293.941 C 252.179 294.09 252.642 294.276 252.692 294.352 C 252.739 294.43 253.148 294.546 253.6 294.612 C 254.05 294.677 254.652 294.829 254.937 294.949 C 257.027 295.829 263.494 295.889 265.2 295.042 C 265.347 294.97 265.929 294.818 266.492 294.705 C 267.055 294.593 267.688 294.393 267.898 294.26 C 268.107 294.128 268.371 294.02 268.484 294.02 C 268.799 294.02 270.873 293.021 271.703 292.468 C 272.112 292.196 272.514 291.975 272.6 291.975 C 272.685 291.975 272.816 291.876 272.893 291.759 C 272.968 291.639 273.255 291.399 273.53 291.227 C 273.802 291.053 274.501 290.452 275.08 289.888 C 275.658 289.325 276.306 288.75 276.52 288.61 C 276.734 288.471 276.907 288.251 276.907 288.121 C 276.907 287.991 276.973 287.885 277.054 287.885 C 277.207 287.885 279.031 285.357 279.513 284.477 C 279.666 284.199 279.869 283.872 279.965 283.755 C 280.058 283.636 280.235 283.232 280.354 282.857 C 280.472 282.483 280.639 282.09 280.722 281.988 C 280.886 281.781 281.526 280.042 281.685 279.364 C 281.741 279.13 281.883 278.784 282.002 278.597 C 282.122 278.408 282.303 277.464 282.407 276.496 C 282.511 275.529 282.672 274.595 282.768 274.419 C 283.023 273.949 282.977 270.377 282.701 269.301 C 282.571 268.79 282.417 267.77 282.358 267.038 C 282.298 266.288 282.138 265.544 281.993 265.337 C 281.85 265.137 281.732 264.801 281.732 264.594 C 281.732 264.385 281.659 264.171 281.571 264.117 C 281.484 264.064 281.293 263.617 281.146 263.127 C 281.001 262.637 280.725 261.933 280.532 261.56 C 280.339 261.19 280.182 260.796 280.182 260.687 C 280.182 260.578 280.07 260.397 279.936 260.284 C 279.798 260.173 279.64 259.869 279.582 259.608 C 279.524 259.348 279.209 258.878 278.881 258.563 C 278.554 258.25 278.286 257.891 278.286 257.766 C 278.286 257.641 278.178 257.497 278.043 257.447 C 277.91 257.396 277.704 257.126 277.588 256.848 C 277.472 256.57 277.233 256.266 277.056 256.173 C 276.879 256.079 276.736 255.891 276.736 255.753 C 276.736 255.617 276.661 255.503 276.571 255.503 C 276.481 255.503 275.903 255.025 275.289 254.438 C 274.674 253.853 273.991 253.243 273.773 253.082 C 273.166 252.638 272.178 251.857 272.083 251.744 C 272.035 251.69 271.454 251.395 270.79 251.09 C 270.127 250.787 269.468 250.466 269.326 250.379 C 269.001 250.177 269.016 250.184 267.258 249.637 C 266.452 249.385 265.637 249.113 265.449 249.031 C 264.295 248.532 259.046 248.374 256.66 248.764 M 314.992 258.98 C 315.322 259.156 315.71 259.365 315.853 259.443 C 315.994 259.521 316.355 259.708 316.655 259.857 C 316.954 260.007 317.336 260.278 317.5 260.457 C 317.666 260.639 317.892 260.786 318.002 260.786 C 318.208 260.786 320.333 262.9 320.333 263.106 C 320.333 263.168 320.533 263.402 320.777 263.626 C 321.313 264.118 321.261 264.365 320.54 264.727 C 320.238 264.878 319.894 265.077 319.776 265.169 C 319.654 265.26 319.182 265.437 318.723 265.559 C 318.262 265.682 317.607 265.924 317.264 266.097 C 316.922 266.27 316.553 266.411 316.443 266.411 C 316.334 266.411 315.812 266.64 315.284 266.917 C 314.754 267.199 314.009 267.476 313.626 267.537 C 313.243 267.597 312.84 267.752 312.733 267.88 C 312.625 268.011 312.434 268.115 312.312 268.115 C 312.086 268.115 309.84 268.943 308.873 269.381 C 308.589 269.511 308.003 269.777 307.57 269.974 C 307.136 270.169 306.622 270.33 306.427 270.33 C 306.231 270.33 305.982 270.438 305.873 270.569 C 305.763 270.7 305.425 270.854 305.119 270.91 C 304.814 270.967 304.346 271.128 304.077 271.266 C 303.807 271.405 303.265 271.6 302.87 271.7 C 302.212 271.867 301.945 271.967 300.687 272.534 C 300.45 272.64 299.831 272.834 299.309 272.965 C 298.788 273.095 298.187 273.255 297.973 273.319 C 297.503 273.463 297.395 271.084 297.82 269.883 C 297.948 269.52 298.106 268.813 298.173 268.313 C 298.237 267.812 298.443 267.124 298.628 266.781 C 298.813 266.44 298.965 266.034 298.965 265.88 C 298.965 265.727 299.072 265.513 299.203 265.406 C 299.332 265.299 299.481 265 299.534 264.746 C 299.586 264.49 300.105 263.782 300.689 263.172 C 301.273 262.563 301.802 261.987 301.865 261.891 C 301.928 261.797 302.174 261.586 302.411 261.422 C 304.114 260.252 304.933 259.764 305.192 259.764 C 305.359 259.764 305.539 259.689 305.597 259.599 C 305.731 259.383 306.756 258.904 307.46 258.729 C 308.629 258.437 314.331 258.625 314.992 258.98 M 261.657 258.928 C 262.036 259.026 262.643 259.168 263.005 259.243 C 263.37 259.32 263.754 259.469 263.859 259.573 C 263.965 259.679 264.175 259.764 264.324 259.764 C 264.635 259.764 266.948 260.834 267.355 261.164 C 268.803 262.344 270.551 264.354 270.948 265.298 C 271.105 265.668 271.291 266.014 271.361 266.064 C 271.686 266.299 272.085 267.138 272.188 267.806 C 272.252 268.21 272.388 268.694 272.492 268.882 C 273.11 269.989 273.106 274.801 272.488 275.695 C 272.36 275.88 272.255 276.179 272.255 276.359 C 272.255 276.8 271.428 278.511 271.215 278.511 C 271.124 278.511 271.047 278.646 271.046 278.811 C 271.04 279.381 268.92 282.089 268.479 282.089 C 268.406 282.089 268.266 282.264 268.169 282.476 C 268.071 282.688 267.768 282.972 267.495 283.11 C 267.222 283.247 266.861 283.495 266.691 283.662 C 266.522 283.829 266.195 283.966 265.967 283.966 C 265.738 283.966 265.49 284.063 265.414 284.181 C 264.907 284.977 260.049 285.644 258.099 285.187 C 256.654 284.849 255.108 284.395 255.023 284.284 C 254.976 284.223 254.665 284.048 254.334 283.896 C 253.368 283.45 252.394 282.823 252.237 282.546 C 252.085 282.275 250.267 280.451 249.948 280.249 C 249.705 280.094 248.734 278.22 248.585 277.616 C 248.521 277.358 248.392 277.148 248.298 277.148 C 248.207 277.148 248.129 277.011 248.129 276.841 C 248.129 276.672 248.045 276.451 247.941 276.347 C 247.626 276.037 247.269 273.751 247.269 272.05 C 247.269 269.152 247.458 268.495 249.362 264.828 C 249.735 264.111 252.196 261.608 252.937 261.195 C 253.877 260.672 254.112 260.528 254.357 260.328 C 254.486 260.227 254.941 260.041 255.367 259.921 C 255.793 259.801 256.296 259.6 256.482 259.476 C 256.67 259.354 257.023 259.254 257.266 259.254 C 257.51 259.254 257.784 259.182 257.875 259.095 C 258.223 258.76 260.601 258.655 261.657 258.928"
            fill="#9bc36a"
            fill-rule="evenodd" id="path1" stroke="none" xmlns="http://www.w3.org/2000/svg" />
        <path style=""
            d="M 220.653 253.569 C 220.057 253.843 219.267 254.513 218.766 255.168 L 217.905 256.295 L 217.971 274.062 L 218.036 291.829 L 218.722 292.865 C 220.404 295.407 224.595 295.695 226.721 293.415 C 228.002 292.042 227.994 292.169 227.994 273.436 L 227.994 256.05 L 227.266 255 C 225.961 253.117 223.02 252.481 220.653 253.569"
            fill="#0a3459" fill-rule="evenodd" id="path0" stroke="none" />
        <path style=""
            d="M 153.613 235.651 C 150.221 236.882 148.846 241.204 150.878 244.247 C 154.118 249.099 161.801 247.335 161.811 241.736 C 161.819 237.167 157.754 234.15 153.613 235.651"
            fill="#0a3459" fill-rule="evenodd" id="path0" stroke="none" />
        <path style=""
            d="M 382.578 248.595 C 377.9 249.268 374.907 250.548 372.62 252.857 C 370.982 254.51 369.545 257.259 369.183 259.432 C 368.227 265.173 370.502 270.202 375.17 272.673 C 376.944 273.611 380.772 274.945 384.035 275.762 C 390.038 277.264 391.933 278.612 391.893 281.353 C 391.812 286.961 381.908 287.503 376.749 282.182 C 373.773 279.112 371.052 278.698 368.654 280.948 C 365.206 284.183 368.202 289.857 375.049 293.059 C 388.692 299.44 403.72 291.663 401.675 279.28 C 400.604 272.795 395.792 268.929 385.972 266.666 C 385.241 266.498 384.201 266.208 383.662 266.023 C 383.124 265.837 382.531 265.685 382.344 265.685 C 380.752 265.685 378.538 262.945 378.813 261.315 C 379.501 257.241 386.837 257.04 390.923 260.983 C 393.904 263.861 397.506 263.66 399.133 260.524 C 402.138 254.732 391.786 247.272 382.578 248.595"
            fill="#0a3459" fill-rule="evenodd" id="path0" stroke="none" />
        <path style=""
            d="M 99.275 233.55 C 94.921 233.928 92.964 234.37 89.175 235.831 C 88.162 236.222 87.271 236.541 87.196 236.541 C 86.964 236.541 83.803 238.509 82.396 239.53 C 80.199 241.124 75.352 246.158 75.352 246.846 C 75.352 246.94 75.09 247.365 74.769 247.79 C 74.255 248.47 73.777 249.433 72.272 252.813 C 72.064 253.281 71.678 254.315 71.414 255.112 C 70.955 256.501 70.833 257.059 70.223 260.585 C 69.706 263.572 70.165 269.988 71.131 273.26 C 71.315 273.886 71.467 274.528 71.467 274.687 C 71.467 274.966 72.309 277.065 73.118 278.8 C 73.706 280.061 75.911 283.675 76.586 284.482 C 83.252 292.46 91.687 296.335 101.582 295.969 C 106.909 295.772 113.349 294 116.055 291.988 C 116.469 291.681 116.899 291.429 117.011 291.429 C 117.124 291.429 117.714 291.016 118.324 290.511 C 118.934 290.006 119.706 289.421 120.04 289.209 C 125.931 285.486 125.664 278.893 119.574 277.675 C 118.055 277.371 116.701 278.019 114.551 280.08 C 111.412 283.087 110.669 283.559 106.925 284.925 C 101.704 286.829 93.252 285.511 88.831 282.103 C 88.297 281.691 87.718 281.244 87.544 281.109 C 80.702 275.808 78.301 263.9 82.376 255.485 C 83.725 252.7 86.051 249.503 87.226 248.822 C 87.441 248.697 87.771 248.441 87.959 248.254 C 88.314 247.902 89.775 246.897 90.874 246.251 C 95.763 243.375 103.344 243.132 108.77 245.676 C 109.451 245.995 110.087 246.256 110.184 246.256 C 110.384 246.256 112.251 247.764 114.18 249.483 C 116.879 251.889 119.423 252.007 121.89 249.841 C 125.522 246.652 123.327 241.977 116.154 237.621 C 113.737 236.154 113.281 235.961 109.232 234.696 C 107.613 234.19 101.358 233.281 100.489 233.425 C 100.355 233.448 99.809 233.504 99.275 233.55"
            fill="#0a3459" fill-rule="evenodd" id="path0" stroke="none" />
        <path style=""
            d="M 185.613 249.87 C 182.81 250.892 181.927 251.316 180.926 252.117 C 179.882 252.953 179.566 252.923 179.052 251.939 C 177.644 249.243 173.635 248.75 171.387 250.998 C 169.7 252.685 169.748 251.928 169.982 272.89 L 170.191 291.631 L 170.923 292.684 C 173.26 296.044 178.474 295.45 179.866 291.664 C 180.219 290.702 180.271 289.273 180.275 280.371 C 180.282 266.651 180.616 264.802 183.59 262.02 C 189.214 256.759 197.345 259.366 198.73 266.872 C 198.868 267.622 198.971 273.15 198.971 279.817 C 198.971 292.376 198.968 292.343 200.272 293.449 C 203.562 296.238 208.226 294.756 208.894 290.709 C 209.674 285.987 208.987 265.018 207.947 261.799 C 205.297 253.602 199.208 249.143 190.724 249.188 C 187.771 249.204 187.249 249.273 185.613 249.87"
            fill="#0a3459" fill-rule="evenodd" id="path0" stroke="none" />
        <path style=""
            d="M 134.753 233.667 C 133.465 233.913 132.348 234.698 131.576 235.902 C 131.097 236.648 131.09 237.073 131.09 264.469 L 131.09 292.279 L 131.635 293.156 C 133.563 296.256 138.809 296.084 140.451 292.866 C 140.914 291.957 140.926 291.26 140.926 264.592 C 140.926 233.876 141.065 236.234 139.16 234.624 C 138.628 234.175 135.947 233.172 135.947 233.422 C 135.947 233.431 135.41 233.541 134.753 233.667"
            fill="#0a3459" fill-rule="evenodd" id="path0" stroke="none" />
        <path style=""
            d="M 153.167 252.874 C 150.948 254.369 151.015 254.01 150.936 264.957 C 150.817 281.716 151.133 292.119 151.792 293.042 C 153.578 295.545 157.727 295.604 159.938 293.156 C 161.119 291.849 161.159 290.996 160.95 271.57 L 160.772 254.989 L 160.166 254.055 C 158.813 251.969 155.372 251.389 153.167 252.874"
            fill="#0a3459" fill-rule="evenodd" id="path0" stroke="none" />
        <path style=""
            d="M 228.601 235.51 C 226.988 236.315 226.14 239.549 227.024 241.52 C 227.177 241.862 226.942 241.749 226.227 241.137 C 222.639 238.067 218.976 238.447 216.869 242.108 L 216.228 243.22 L 216.222 242.027 C 216.198 237.957 211.143 235.552 209.862 239.001 C 209.077 241.116 210.83 244.439 212.814 244.597 C 214.005 244.691 214.864 244.535 215.295 244.145 C 215.968 243.536 215.987 243.836 215.359 245.164 C 213.97 248.102 215.032 251.113 217.457 251.113 C 218.094 251.113 218.675 251.016 218.748 250.897 C 218.821 250.779 219.176 250.607 219.537 250.517 C 219.897 250.427 220.521 250.118 220.923 249.832 C 221.741 249.249 224.932 249.159 226.219 249.681 C 226.736 249.891 227.067 249.86 227.798 249.536 C 230.265 248.44 230.421 245.535 228.147 243.038 C 227.502 242.33 227.585 242.199 228.402 242.637 C 229.053 242.985 230.894 242.49 231.569 241.785 C 234.557 238.661 232.213 233.705 228.601 235.51"
            fill="#fdf2d9" fill-rule="evenodd" id="path5" stroke="none" />
        <path style=""
            d="M 222.207 230.48 C 220.666 231.692 220.444 235.943 221.844 237.441 C 223.276 238.973 226.609 237.798 227.044 235.609 C 227.881 231.399 224.967 228.309 222.207 230.48"
            fill="#fdf2d9" fill-rule="evenodd" id="path5" stroke="none" />
        <path style=""
            d="M 218.268 232.185 C 220.275 234.036 220.316 237.766 218.338 238.598 C 215.374 239.844 212.524 234.385 214.864 231.943 C 215.91 230.851 216.896 230.921 218.268 232.185"
            fill="#fdf2d9" fill-rule="evenodd" id="path5" stroke="none" />
        <path style=""
            d="M 223.977 240.128 C 230.364 243.323 231.257 249.891 225.201 249.122 C 222.845 248.823 221.307 248.972 220.435 249.583 C 216.863 252.089 213.971 249.875 215.612 245.892 C 215.942 245.09 216.213 244.354 216.213 244.256 C 216.216 243.849 217.797 241.469 218.496 240.819 C 220.328 239.117 221.629 238.953 223.977 240.128"
            fill="#fdf2d9" fill-rule="evenodd" id="path5" stroke="none" />
        <path style=""
            d="M 231.454 235.943 C 231.747 236.148 232.108 236.767 232.257 237.318 C 233.3 241.191 228.579 244.501 227.339 240.765 C 226.273 237.553 229.071 234.274 231.454 235.943"
            fill="#fdf2d9" fill-rule="evenodd" id="path5" stroke="none" />
        <path style=""
            d="M 215.555 230.919 C 213.793 231.435 213.081 235.391 214.401 237.334 C 216.892 241 221.14 238.816 220.086 234.413 C 219.732 232.935 218.053 230.956 217.154 230.956 C 216.926 230.956 216.594 230.912 216.417 230.859 C 216.239 230.805 215.851 230.833 215.555 230.919"
            fill="#fdf2d9" fill-rule="evenodd" id="path5" stroke="none" />
        <path style=""
            d="M 213.795 238.248 C 215.711 239.613 216.446 242.345 215.224 243.566 C 214.082 244.708 212.954 244.617 211.456 243.26 C 208.557 240.636 210.7 236.044 213.795 238.248"
            fill="#fdf2d9" fill-rule="evenodd" id="path5" stroke="none" />
        <path style=""
            d="M 257.083 263.341 C 257.022 263.508 257.06 268.898 257.06 268.898 L 251.309 268.963 L 251.309 275.521 L 256.949 275.381 L 256.895 280.863 L 263.624 280.884 C 263.523 281.667 263.403 275.503 263.457 275.437 C 263.616 275.241 269.137 275.268 269.137 275.268 L 269.281 268.963 L 263.816 268.827 C 263.341 268.843 263.738 263.294 263.525 263.304"
            fill="#7fc7cd" fill-rule="evenodd" id="path2" stroke="none" />
        <path style=""
            d="M 226.084 231.14 C 228.405 234.035 225.936 238.784 222.748 237.554 C 220.849 236.821 220.804 232.211 222.682 230.73 C 223.641 229.973 225.309 230.174 226.084 231.14"
            fill="#fdf2d9" fill-rule="evenodd" id="path5" stroke="none" />
        <path style=""
            d="M 210.623 238.424 C 208.408 241.231 212.73 246.06 215.224 243.566 C 216.19 242.6 216.192 241.721 215.229 240.038 C 213.9 237.716 211.77 236.969 210.623 238.424"
            fill="#fbb949" fill-rule="evenodd" id="path4" stroke="none" />
        <path style=""
            d="M 220.222 239.661 C 218.692 240.381 216.22 243.214 216.213 244.256 C 216.213 244.354 215.942 245.09 215.612 245.892 C 214.856 247.727 214.855 248.221 215.604 249.408 C 216.649 251.064 218.242 251.122 220.435 249.583 C 221.307 248.972 222.845 248.823 225.201 249.122 C 230.014 249.733 230.886 245.998 226.816 242.202 C 224.215 239.776 221.886 238.879 220.222 239.661"
            fill="#fbb949" fill-rule="evenodd" id="path4" stroke="none" />
        <path style=""
            d="M 222.682 230.73 C 220.804 232.211 220.849 236.821 222.748 237.554 C 225.41 238.581 227.466 235.992 226.759 232.504 C 226.369 230.578 224.116 229.598 222.682 230.73"
            fill="#fbb949" fill-rule="evenodd" id="path4" stroke="none" />
        <path style=""
            d="M 228.269 236.265 C 226.546 238.063 226.777 241.765 228.641 242.226 C 230.962 242.799 232.991 240.045 232.257 237.318 C 231.758 235.466 229.584 234.892 228.269 236.265"
            fill="#fbb949" fill-rule="evenodd" id="path4" stroke="none" />
        <path style=""
            d="M 214.864 231.943 C 213.852 232.999 213.81 235.701 214.783 237.166 C 215.942 238.91 218.569 239.299 219.319 237.836 C 221.108 234.349 217.337 229.361 214.864 231.943"
            fill="#fbb949" fill-rule="evenodd" id="path4" stroke="none" />
    </g>
    <g style=""
        id="svgg"
        transform="matrix(1.2626190185546875, 0, 0, 1.2011200189590454, -2.872765064239502, 56.57759475708008)">
        <title>Animales</title>
        <path style=""
            d="M 81.661 46.608 C 80.152 47.318 79.57 48.042 78.42 50.638 C 75.787 56.586 75.462 71.522 77.582 89.132 C 78.768 98.979 78.775 99.2 78.066 104.797 C 77.671 107.914 77.161 114.249 77.069 117.183 C 76.98 120.003 77.386 120.777 77.044 121.05 C 76.678 121.342 77.034 123.156 76.993 123.648 C 76.847 125.402 76.817 123.931 76.952 126.622 C 77.037 128.323 77.238 127.927 81.724 128.253 C 88.675 128.758 92.684 128.921 98.644 128.941 C 102.907 128.956 104.661 129.042 104.727 129.239 C 104.797 129.448 104.949 129.448 105.339 129.239 C 105.64 129.078 107.06 128.957 108.727 128.951 C 110.306 128.945 112.362 128.834 113.297 128.705 C 120.603 127.691 124.22 127.116 125.44 126.776 C 125.974 126.627 126.849 126.396 127.383 126.262 C 130.162 125.565 134.748 123.724 136.339 122.666 C 136.856 122.322 137.809 121.705 138.455 121.295 C 139.502 120.631 141.124 119.325 142.658 117.911 C 144.008 116.668 146.076 113.867 147.59 111.233 C 148.231 110.118 149.753 106.115 150.225 104.302 C 151.055 101.117 151.793 95.429 151.525 94.278 C 151.411 93.785 151.314 92.865 151.311 92.233 C 151.308 91.601 151.197 90.344 151.064 89.44 C 150.931 88.536 150.722 86.922 150.599 85.853 C 150.314 83.382 149.797 81.015 149.281 79.812 C 148.654 78.354 148.836 76.187 149.698 74.837 C 150.301 73.894 150.083 67.209 149.368 64.724 C 149.215 64.189 148.978 63.26 148.843 62.659 C 148.708 62.058 148.456 61.239 148.282 60.838 C 148.109 60.437 147.769 59.576 147.527 58.925 C 146.104 55.094 145.904 54.949 142.562 55.339 C 141.293 55.487 139.271 55.717 138.069 55.85 C 136.867 55.984 135.392 56.201 134.791 56.333 C 134.189 56.465 132.878 56.736 131.876 56.935 C 126.723 57.96 122.609 59.08 120.06 60.152 C 119.64 60.329 119.072 60.474 118.8 60.474 C 118.527 60.474 118.241 60.577 118.163 60.702 C 117.775 61.33 115.92 61.257 114.845 60.572 C 113.876 59.956 111.396 58.356 107.791 56.022 C 107.034 55.532 106.321 55.131 106.207 55.131 C 106.093 55.131 105.405 54.738 104.677 54.259 C 103.949 53.78 102.695 53.036 101.89 52.605 C 101.084 52.175 100.206 51.697 99.939 51.544 C 99.345 51.204 93.64 48.581 92.41 48.083 C 88.417 46.465 83.422 45.779 81.661 46.608"
            fill="#92c16b" fill-rule="evenodd" id="path3" stroke="none" />
        <path style=""
            d="M 294.404 165.078 C 294.322 165.177 275.771 172.815 256.676 174.748 C 237.145 176.725 217.062 172.996 217.036 172.996 C 216.84 172.996 211.541 179.912 210.937 181.299 C 210.315 182.731 210.185 182.998 209.64 183.971 C 209.345 184.496 208.649 186.128 208.136 187.492 C 207.961 187.96 207.578 188.889 207.285 189.557 C 206.797 190.668 205.979 193.024 204.882 196.478 C 204.648 197.213 204.493 198.306 204.536 198.907 L 204.614 200 L 210.322 199.951 C 213.461 199.924 217.832 199.787 220.036 199.646 C 222.24 199.505 226.175 199.283 228.78 199.152 C 234.216 198.879 241.662 198.295 244.323 197.934 C 245.325 197.798 247.62 197.527 249.423 197.331 C 251.226 197.135 253.959 196.816 255.495 196.623 C 257.031 196.43 259.709 196.099 261.445 195.888 C 263.182 195.677 265.094 195.393 265.695 195.258 C 266.296 195.122 267.826 194.848 269.095 194.648 C 271.451 194.278 273.742 193.903 277.838 193.218 C 279.107 193.006 280.583 192.716 281.117 192.573 C 281.651 192.429 282.963 192.157 284.032 191.968 C 287.412 191.369 292.439 190.29 293.625 189.908 C 294.092 189.757 295.131 189.474 295.932 189.279 C 299.445 188.423 300.142 188.236 301.518 187.778 C 303.914 186.98 305.555 186.521 306.012 186.521 C 306.249 186.521 306.673 186.33 306.953 186.096 L 307.464 185.671 L 306.658 183.728 C 306.216 182.659 305.624 181.293 305.344 180.692 C 304.565 179.021 304.068 177.843 304.068 177.667 C 304.068 177.58 303.534 176.394 302.882 175.032 C 302.23 173.67 301.457 172.01 301.165 171.342 C 299.786 168.186 296.65 163.632 296.126 164.263 Z"
            fill="#fbb949" fill-rule="evenodd" id="path4" stroke="none" />
        <path style=""
            d="M 242.434 54.185 C 240.527 54.295 238.154 54.553 237.162 54.758 C 236.169 54.963 235.107 55.134 234.801 55.138 C 234.495 55.143 234.032 55.306 233.773 55.503 C 233.513 55.699 232.323 54.917 232.004 54.917 C 231.685 54.917 231.352 54.13 230.461 54.472 C 229.57 54.815 228.165 54.887 227.631 55.09 C 222.775 56.942 220.559 59.249 216.532 63.011 C 213.164 66.159 210.777 70.295 207.344 75.653 C 205.537 78.472 202.509 83.951 202.08 85.487 C 201.987 85.821 201.503 86.967 201.342 87.338 C 200.693 88.83 200.229 90.251 200.112 90.479 C 200.028 90.643 199.353 92.206 198.687 94.002 C 197.191 98.033 193.318 104.746 194.416 104.348 C 199.085 102.66 216.813 101.841 224.044 103.205 C 224.712 103.331 226.242 103.537 227.444 103.663 C 228.646 103.788 230.067 104.019 230.601 104.176 C 231.135 104.332 231.986 104.564 232.492 104.692 C 232.997 104.82 233.598 105.023 233.827 105.144 C 234.057 105.265 234.845 105.658 235.58 106.018 C 236.315 106.378 237.088 106.824 237.299 107.01 C 237.51 107.195 237.766 107.347 237.869 107.347 C 237.971 107.347 238.379 107.577 238.774 107.859 C 239.607 108.452 242.988 110.343 242.58 109.559 C 242.423 109.259 256.62 115.006 253.178 114.909 C 250.085 114.822 254.959 120.756 256.102 122.542 C 256.57 123.273 256.952 123.963 256.952 124.076 C 256.952 124.189 257.197 124.593 257.496 124.973 C 258.067 125.7 259.859 129.379 259.864 129.835 C 259.865 129.982 260.048 130.465 260.27 130.91 C 261.48 133.336 262.181 140.453 261.574 144.141 C 261.068 147.215 260.726 148.61 260.179 149.848 C 259.853 150.583 259.424 151.566 259.225 152.034 C 258.625 153.445 257.88 154.779 257.193 155.677 C 256.835 156.145 256.443 156.702 256.322 156.916 C 255.179 158.936 250.846 162.636 247.48 164.465 C 245.304 165.648 240.165 167.459 237.28 168.059 C 236.679 168.184 235.586 168.41 234.851 168.561 C 232.852 168.972 228.632 170.344 229.59 170.569 C 237.355 172.394 258.303 178.643 269.252 176.224 C 270.12 176.032 280.54 169.33 281.246 169.019 C 281.951 168.709 285.926 168.212 286.46 167.962 C 291.94 165.397 294.187 165.961 295.956 164.371 C 296.603 163.79 297.295 156.163 297.39 156.163 C 297.627 156.163 298.503 155.022 299.062 153.986 C 300.416 151.477 300.911 150.43 300.911 150.078 C 300.911 149.862 300.993 149.604 301.093 149.504 C 301.193 149.404 301.4 148.767 301.553 148.087 L 301.831 146.853 L 308.679 130.467 C 306.381 128.097 313.439 119.682 312.102 116.852 C 309.585 111.526 307.706 105.469 307.583 104.801 C 306.619 99.573 299.82 93.608 299.822 85.963 C 299.825 74.392 292.802 76.75 295.584 74.054 C 296.671 73.001 288.971 66.08 288.599 65.962 C 288.355 65.884 287.556 65.424 286.822 64.938 C 286.089 64.452 284.505 63.517 283.303 62.86 C 282.101 62.204 280.953 61.572 280.753 61.457 C 280.553 61.341 279.514 60.892 278.446 60.459 C 277.377 60.026 275.902 59.425 275.167 59.123 C 273.849 58.582 273.167 58.364 269.581 57.332 C 268.579 57.044 267.213 56.642 266.545 56.439 C 261.039 54.762 250.12 53.741 242.434 54.185 Z"
            fill="#fbb949" fill-rule="evenodd" id="path4" stroke="none" />
        <path style=""
            d="M 139.413 160.939 C 138.344 160.823 126.632 162.627 125.296 162.48 C 123.961 162.332 115.137 160.143 114.571 159.97 L 107.973 157.523 L 106.196 160.486 C 105.351 161.923 105.356 165.778 106.094 167.127 C 107.036 168.848 111.271 171.762 116.038 172.743 C 116.639 172.867 117.581 174.08 118.583 174.348 C 124.906 176.042 139.232 175.129 149.415 174.254 C 154.092 173.852 152.608 174.764 151.702 176.447 C 148.689 182.041 149.739 183.442 151.704 187.152 C 154.312 192.075 160.066 193.023 166.15 190.561 C 172.506 187.989 172.854 177.8 166.198 173.721 C 163.845 172.279 179.219 167.807 180.866 166.992 C 189.475 162.731 192.087 159.265 187.866 153.393 C 186.95 152.119 185.757 152.568 182.777 154.06 Z"
            fill="#fbb949" fill-rule="evenodd" id="path4" stroke="none" />
        <path style=""
            d="M 85.831 56.716 C 85.332 57.245 84.256 57.919 84.171 58.477 C 84.095 58.974 84.64 59.716 84.51 60.127 C 84.201 61.104 84.206 67.715 84.517 69.445 C 84.65 70.188 84.864 71.615 84.991 72.617 C 85.344 75.393 85.71 77.53 85.946 78.203 C 86.064 78.537 86.355 79.466 86.594 80.267 C 88.099 85.32 88.982 85.257 94.589 79.701 C 99.34 74.992 100.218 74.158 101.693 72.953 C 106.903 68.694 106.879 68.035 101.362 63.752 C 100.158 62.817 98.753 61.724 98.241 61.324 C 97.04 60.384 95.189 59.218 93.503 58.339 C 92.769 57.955 91.949 57.519 91.682 57.369 C 91.415 57.22 90.814 56.943 90.346 56.755 C 89.879 56.567 89.19 56.288 88.817 56.136 C 87.557 55.623 86.432 55.788 85.557 56.716"
            fill="#fbb949" fill-rule="evenodd" id="path4" stroke="none" />
        <path style=""
            d="M 177.334 31.545 C 177.088 31.699 174.92 32.279 174.685 32.279 C 173.447 32.281 167.902 36.636 165.149 40.275 C 164.815 40.715 163.737 42.081 162.754 43.306 C 161.771 44.533 160.592 46.084 160.135 46.751 C 159.677 47.42 158.897 48.529 158.4 49.216 C 157.904 49.903 156.847 51.434 156.05 52.616 C 155.254 53.799 154.488 54.846000000000004 154.35 54.944 C 154.212 55.043 151.01 55.789 150.992 55.556 C 150.962 55.178 150.66 55.131 148.35 55.131 L 145.741 55.131 L 146.446 56.526 C 146.835 57.295 147.379 58.524 147.657 59.259 C 147.934 59.994 148.261 60.814 148.384 61.08 C 148.506 61.348 148.714 62.058 148.847 62.659 C 148.98 63.259 149.215 64.188 149.368 64.724 C 150.083 67.209 150.301 73.893 149.698 74.837 C 148.836 76.186 148.654 78.353 149.281 79.811 C 149.797 81.014 150.314 83.381 150.599 85.852 C 150.722 86.921 150.931 88.536 151.064 89.44 C 151.197 90.344 151.308 91.6 151.311 92.232 C 151.314 92.865 151.411 93.785 151.525 94.278 C 151.793 95.428 151.055 101.116 150.225 104.302 C 149.753 106.114 148.231 110.118 147.59 111.233 C 146.076 113.867 144.008 116.668 142.658 117.911 C 141.124 119.324 139.502 120.631 138.455 121.294 C 137.809 121.705 136.856 122.322 136.339 122.665 C 134.748 123.724 130.162 125.564 127.383 126.261 C 126.849 126.395 125.974 126.627 125.44 126.776 C 124.906 126.925 123.43 127.209 122.162 127.409 C 118.559 127.976 111.822 128.933 111.293 128.95 C 111.104 128.958 80.107 137.08 80.168 137.523 C 80.261 138.198 81.753 140.775 82.08 141.204 C 82.407 141.632 82.959 142.429 83.133 142.606 C 83.307 142.782 83.895 143.528 84.44 144.262 C 84.985 144.996 85.711 145.919 86.053 146.312 C 86.395 146.704 86.626 147.106 86.565 147.203 C 86.409 147.456 88.74 149.192 89.011 149.192 C 89.135 149.192 89.693 149.663 90.164 150.03 C 90.635 150.398 91.261 150.862 91.556 151.062 C 91.852 151.263 92.685 151.881 93.409 152.438 C 94.133 152.995 95.214 153.687 95.813 153.978 C 96.411 154.268 96.964 154.606 97.042 154.732 C 97.12 154.859 98.678 155.673 100.504 156.543 C 102.331 157.413 104.015 158.23 104.247 158.358 C 104.479 158.485 104.807 158.592 104.975 158.593 C 105.144 158.593 105.561 158.739 105.901 158.917 C 106.242 159.095 107.007 159.306 107.602 159.389 C 108.196 159.469 114.36 161.352 118.519 162.129 C 119.654 162.342 121.075 162.619 121.676 162.745 C 122.277 162.869 124.105 163.113 125.374 163.239 C 126.643 163.367 127.984 163.544 128.719 163.675 C 133.481 164.524 151.768 163.924 157.498 162.731 C 158.166 162.592 159.642 162.314 160.777 162.114 C 164.189 161.511 168.662 160.506 170.249 159.985 C 171.764 159.488 174.223 158.729 175.956 158.225 C 176.758 157.992 177.796 157.6 178.264 157.357 C 178.731 157.115 179.715 156.678 180.449 156.386 C 181.184 156.097 182.964 155.272 184.405 154.553 C 185.846 153.835 187.185 153.248 187.38 153.248 C 187.999 153.248 187.769 152.725 186.582 151.433 C 184.161 148.798 183.411 147.818 182.587 146.204 C 182.416 145.87 182.147 145.462 181.988 145.294 C 181.35 144.623 178.886 138.552 178.613 136.975 C 178.532 136.508 178.369 135.852 178.251 135.518 C 177.988 134.773 177.268 127.862 177.41 127.443 C 177.466 127.275 177.632 125.887 177.778 124.356 C 178.601 115.744 186.791 110.246 194.248 104.232 C 195.209 103.457 195.964 99.955 196.727 98.996 C 196.825 98.872 200.737 88.7 200.995 88.167 C 201.861 86.373 201.463 85.567 197.497 79.016 C 197.404 78.864 196.973 78.229 196.539 77.607 C 196.105 76.986 195.75 76.429 195.75 76.369 C 195.75 76.151 192.604 71.829 191.732 70.851 C 191.404 70.482 190.688 69.438 190.688 69.337 C 190.688 69.164 181.109 70.576 177.628 69.259 C 175.608 68.496 175.511 64.522 175.511 63.819 C 175.511 63.689 174.917 63.808 174.672 63.531 C 173.908 62.671 170.735 62.868 170.735 61.018 C 170.735 59.097 170.517 58.829 168.626 58.423 C 167.74 58.231 167.211 57.713 167.471 57.291 C 167.57 57.132 167.801 56.281 167.986 55.398 C 168.7 51.992 168.807 51.573 169.26 50.395 C 169.516 49.727 169.961 48.361 170.248 47.358 C 170.534 46.357 170.862 45.318 170.976 45.051 C 171.09 44.784 171.372 43.934 171.602 43.161 C 171.832 42.389 172.114 41.699 172.228 41.629 C 172.341 41.559 172.435 41.304 172.435 41.062 C 172.435 40.58 174.22 35.705 174.753 34.732 C 174.936 34.397 175.323 33.549 175.612 32.848 Z"
            fill="#7fc7cd" fill-rule="evenodd" id="path2" stroke="none" />
        <path style=""
            d="M 187.857 162.053 C 185.799 164.028 180.55 167.089 177.535 168.07 C 177.201 168.179 175.507 168.776 173.77 169.398 C 172.034 170.02 170.283 170.612 169.885 170.725 C 160.779 173.306 161.997 170.81 165.97 173.609 C 170.847 177.042 172.327 183.885 168.713 188.148 C 164.047 193.652 152.268 192.015 151.146 184.151 C 150.776 181.555 151.041 179.353 152.996 175.592 L 154.747 174.048 L 152.672 174.077 C 151.91 174.036 149.797 174.022 148.727 174.156 C 146.297 174.46 129.035 174.155 126.693 173.893 C 123.909 173.581 126.135 173.842 124.376 175.558 C 123.037 176.866 120.393 181.17 119.935 182.381 C 119.806 182.72 119.343 183.709 118.904 184.578 C 118.466 185.445 117.904 186.702 117.655 187.371 C 117.405 188.039 117.061 188.859 116.89 189.192 C 116.719 189.525 116.716 190.023 116.577 190.183 C 115.927 190.934 113.514 190.449 109.068 189.709 C 108.44 189.605 107.358 189.231 106.757 189.139 C 106.156 189.048 104.845 188.693 104.311 188.599 C 103.777 188.505 102.574 188.174 101.639 187.865 C 100.704 187.556 99.31 187.122 98.541 186.9 C 97.21 186.513 97.151 186.463 97.299 185.84 C 97.697 184.16 102.401 174.654 103.572 173.162 C 103.729 172.963 104.32 172.033 104.884 171.098 C 105.449 170.164 106.083 169.153 106.294 168.851 C 106.505 168.552 106.613 168.305 106.535 168.305 C 106.412 168.305 105.668 169.403 103.327 173.042 C 102.628 174.127 101.703 175.872 98.437 182.271 C 97.655 183.802 96.903 185.824 96.903 186.396 C 96.903 186.555 97.532 186.874 98.3 187.105 C 102.681 188.426 103.707 188.725 104.918 189.038 C 105.653 189.227 107.128 189.625 108.197 189.922 C 111.018 190.705 112.859 191.132 114.511 191.385 C 116.297 191.658 119.035 192.221 120.34 192.583 C 121.808 192.99 125.774 193.677 132.24 194.646 C 133.576 194.845 135.161 195.122 135.762 195.258 C 136.957 195.532 142.533 196.227 152.398 197.331 C 154.402 197.555 156.752 197.834 157.62 197.953 C 165.253 198.989 185.499 200.072 197.855 200.105 L 204.211 200.121 L 204.383 198.519 C 204.486 197.56 204.45 196.56 204.296 196.029 C 204.153 195.541 203.874 194.596 203.676 193.927 C 203.478 193.259 203.239 192.276 203.144 191.743 C 203.05 191.207 202.896 190.662 202.801 190.528 C 202.706 190.395 202.501 189.684 202.343 188.948 C 202.185 188.213 201.904 187.318 201.719 186.96 C 201.533 186.602 201.308 185.947 201.219 185.504 C 201.01 184.472 200.44 182.838 199.751 181.298 C 198.879 179.348 198.51 178.462 198.04 177.17 C 197.796 176.503 197.36 175.519 197.073 174.985 C 196.785 174.45 196.346 173.466 196.098 172.799 C 195.85 172.131 195.145 170.71 194.532 169.642 C 193.919 168.573 193.341 167.499 193.248 167.255 C 193.088 166.834 191.854 164.843 190.86 163.397 C 190.611 163.035 190.407 162.649 190.407 162.538 C 190.407 162.427 190.106 162.01 189.739 161.612 L 189.071 160.886 L 187.857 162.053"
            fill="#7fc7cd" fill-rule="evenodd" id="path2" stroke="none" />
        <path style=""
            d="M 78.247 132.331 C 79.096 135.082 79.199 135.273 79.467 135.168 C 81.001 134.566 110.288 129.16 110.288 128.934 C 110.288 128.814 102.002 128.953 98.664 128.94 C 95.358 128.93 91.014 128.83 89.01 128.719 C 83.566 128.417 77.929 127.536 77.55 127.394 C 77.279 127.294 77.032 127.478 77.164 128.512 Z"
            fill="#7fc7cd" fill-rule="evenodd" id="path2" stroke="none" />
        <path style=""
            d="M 253.393 80.864 C 249.241 81.912 243.444 85.994 241.85 88.993 C 236.238 99.55 237.663 108.834 245.913 115.479 C 246.575 116.011 247.329 116.64 247.59 116.878 C 247.851 117.116 249.436 117.975 251.112 118.786 C 252.788 119.598 254.349 120.363 254.581 120.483 C 255.301 120.86 261.201 120.742 263.109 120.314 C 265.158 119.855 268.48 118.32 270.188 117.046 C 271.962 115.723 274.924 112.426 274.924 111.774 C 274.924 111.641 275.092 111.394 275.3 111.223 C 275.673 110.912 276.298 109.656 277.346 107.103 C 280.21 100.129 277.658 90.425 271.616 85.32 C 269.769 83.762 267.75 82.331 267.393 82.331 C 267.267 82.331 266.587 82.071 265.883 81.752 C 262.757 80.337 257.085 79.934 253.393 80.864"
            fill="#7fc7cd" fill-rule="evenodd" id="path2" stroke="none" />
        <path style=""
            d="M 203.279 102.614 C 200.377 102.93 198.733 103.208 196.6 103.744 C 196.066 103.879 195.301 104.049 194.9 104.122 C 194.499 104.196 194.117 104.325 194.05 104.408 C 193.983 104.491 193.327 104.829 192.593 105.158 C 183.672 109.163 178.603 115.732 177.778 124.357 C 177.632 125.888 177.466 127.276 177.41 127.443 C 177.268 127.863 177.988 134.774 178.251 135.519 C 178.369 135.853 178.532 136.509 178.613 136.976 C 178.886 138.553 181.35 144.624 181.988 145.295 C 182.147 145.462 182.416 145.871 182.587 146.205 C 183.411 147.818 183.83 149.078 186.251 151.712 C 187.408 152.972 189.279 154.704 189.505 154.704 C 189.684 154.704 190.445 155.454 190.756 155.722 C 192.447 157.179 200.994 162.224 201.784 162.231 C 201.964 162.233 202.408 162.446 202.77 162.704 C 203.133 162.962 203.751 163.251 204.144 163.345 C 204.536 163.439 204.967 163.595 205.1 163.692 C 205.234 163.788 205.656 163.942 206.038 164.034 C 206.42 164.125 207.185 164.41 207.738 164.666 C 208.816 165.165 210.1 165.523 212.325 165.947 C 213.588 166.187 213.722 166.272 213.722 166.828 L 213.722 167.443 L 214.112 166.886 C 214.547 166.265 215.331 166.292 217.729 167.011 C 219.054 167.407 222.077 167.91 225.501 168.303 C 226.703 168.441 228.606 168.682 229.73 168.839 C 232.799 169.269 237.743 168.278 244.202 165.939 C 248.661 164.325 254.655 159.862 256.322 156.916 C 256.443 156.702 256.835 156.145 257.193 155.677 C 257.88 154.779 258.625 153.445 259.225 152.034 C 259.424 151.566 259.853 150.583 260.179 149.848 C 260.726 148.61 261.068 147.215 261.574 144.141 C 262.181 140.453 261.48 133.336 260.27 130.91 C 260.048 130.465 259.865 129.982 259.864 129.835 C 259.859 129.379 258.067 125.7 257.496 124.973 C 257.197 124.593 256.952 124.189 256.952 124.076 C 256.952 123.963 256.57 123.273 256.102 122.542 C 255.634 121.811 255.252 121.117 255.252 121 C 255.252 120.882 255.006 120.671 254.706 120.529 C 250.521 118.56 247.91 117.16 247.116 116.461 C 246.582 115.99 245.817 115.37 245.416 115.084 C 244.374 114.34 242.286 111.868 241.094 109.967 C 240.533 109.071 239.909 108.331 239.709 108.323 C 239.508 108.314 239.071 108.094 238.737 107.832 C 238.403 107.571 238.029 107.355 237.906 107.352 C 237.783 107.349 237.51 107.195 237.299 107.01 C 237.088 106.824 236.315 106.378 235.58 106.018 C 234.845 105.658 234.057 105.265 233.827 105.144 C 233.598 105.023 232.997 104.82 232.492 104.692 C 231.986 104.564 231.135 104.332 230.601 104.176 C 230.067 104.019 228.646 103.788 227.444 103.663 C 226.242 103.537 224.712 103.331 224.044 103.205 C 220.038 102.45 207.938 102.105 203.279 102.614"
            fill="#fdf2d9" fill-rule="evenodd" id="path5" stroke="none" />
        <path style=""
            d="M 209.957 29.061 C 208.489 29.228 204.707 30.468 203.07 31.32 C 202.584 31.573 201.311 32.21 200.243 32.734 C 199.174 33.259 197.808 33.963 197.207 34.298 C 196.606 34.634 195.579 35.196 194.925 35.547 C 194.271 35.898 193.616 36.284 193.468 36.404 C 193.321 36.524 192.653 36.922 191.985 37.288 C 190.604 38.045 186.695 40.647 185.064 41.896 C 183.66 42.97 183.283 42.96 182.821 41.834 C 182.616 41.333 181.982 39.775 181.411 38.373 C 178.944 32.304 176.712 30.177 175.612 32.848 C 175.323 33.549 174.935 34.399 174.75 34.737 C 174.393 35.389 172.831 39.537 172.558 40.559 C 172.469 40.893 172.199 41.603 171.96 42.137 C 171.72 42.672 171.441 43.488 171.341 43.951 C 171.241 44.414 171.069 44.96 170.959 45.165 C 170.85 45.37 170.528 46.357 170.243 47.359 C 169.959 48.361 169.516 49.727 169.26 50.395 C 168.807 51.573 168.7 51.993 167.986 55.399 C 167.801 56.281 167.57 57.133 167.471 57.292 C 167.198 57.734 167.741 58.219 168.714 58.401 C 170.447 58.727 170.735 59.103 170.735 61.048 C 170.735 65.069 173.297 68.338 177.656 69.88 C 181.364 71.191 187.233 70.991 190.96 69.426 C 191.925 69.021 193.175 68.541 193.739 68.36 C 195.855 67.679 204.114 63.132 205.752 61.745 C 206.158 61.401 210.462 63.344 211.172 64.191 C 211.305 64.35 211.906 64.804 212.508 65.198 C 213.109 65.593 213.727 66.008 213.882 66.121 C 214.065 66.254 214.621 65.874 215.461 65.041 C 217.215 63.302 220.159 61.036 221.979 60.023 C 224.08 58.853 226.716 57.559 226.998 57.559 C 227.18 57.559 227.519 57.452 227.751 57.321 C 228.73 56.77 231.407 55.827 232.383 55.691 C 232.963 55.61 233.491 55.404 233.556 55.233 C 233.739 54.758 228.739 44.997 226.964 42.363 C 226.7 41.972 226.276 41.269 226.021 40.801 C 225.766 40.334 225.347 39.678 225.091 39.344 C 223.917 37.818 222.951 36.446 222.951 36.306 C 222.951 36.221 222.814 36.016 222.647 35.848 C 222.48 35.681 222.016 35.127 221.615 34.617 C 217.931 29.931 214.923 28.497 209.957 29.061"
            fill="#0a3459" fill-rule="evenodd" id="path0" stroke="none" />
        <path style=""
            d="M 150.986 55.313 C 150.928 55.413 151.079 56.096 151.32 56.83 C 151.564 57.565 151.836 58.713 151.925 59.381 C 152.015 60.048 152.172 60.704 152.273 60.838 C 152.375 60.971 152.537 61.627 152.633 62.295 C 152.729 62.963 152.893 63.619 152.997 63.752 C 153.1 63.886 153.261 64.418 153.354 64.934 C 153.448 65.451 153.79 66.455 154.115 67.165 C 154.44 67.876 154.706 68.553 154.706 68.67 C 154.706 70.144 157.397 73.103 158.739 73.103 C 160.375 73.103 160.78 72.594 161.745 69.33 C 162.291 67.484 161.711 60.423 160.728 56.952 C 160.404 55.807 160.324 55.722 159.306 55.454 C 158.116 55.14 151.154 55.022 150.986 55.313"
            fill="#92c16b" fill-rule="evenodd" id="path3" stroke="none" />
        <path style=""
            d="M 158.732 180.565 L 154.827 180.571 L 154.827 184.457 L 158.949 184.604 C 158.882 184.791 158.956 188.342 158.956 188.342 L 163.084 188.342 L 163.138 184.533 L 167.111 184.335 L 167.04 180.419 L 162.849 180.497 C 162.849 180.497 162.824 176.86 162.747 176.862 C 162.377 176.869 159.881 176.841 158.753 176.811"
            fill="#0a3459" fill-rule="evenodd" id="path0" stroke="none" />
        <path style=""
            d="M 106.259 169.095 C 106.049 169.396 105.463 170.298 104.956 171.099 C 104.45 171.9 103.826 172.884 103.57 173.285 C 101.969 175.795 97.473 184.476 97.256 185.656 L 97.197 186.59 L 98.762 186.898 C 99.543 187.126 101.003 187.563 102.004 187.867 C 103.005 188.171 102.756 188.148 105.525 188.824 C 108.294 189.5 108.1 189.478 109.168 189.782 C 114.293 191.24 115.4 191.396 116.103 190.759 C 116.363 190.524 116.576 190.212 116.577 190.066 C 116.578 189.919 116.719 189.526 116.89 189.192 C 117.061 188.859 117.406 188.039 117.656 187.371 C 118.383 185.428 120.959 180.213 121.556 179.478 C 121.718 179.277 122.137 178.622 122.486 178.021 C 122.835 177.42 123.663 176.333 124.326 175.605 C 125.722 174.074 125.716 174 124.17 173.818 C 121.519 173.505 119.524 173.129 118.103 172.674 C 117.274 172.409 116.431 172.192 116.23 172.192 C 116.029 172.192 115.396 172.039 114.823 171.853 C 114.251 171.666 112.976 171.27 111.991 170.973 C 111.006 170.676 109.452 170.009 108.538 169.491 C 106.58 168.381 106.739 168.409 106.259 169.095"
            fill="#0a3459" fill-rule="evenodd" id="path0" stroke="none" />
        <path style=""
            d="M 296.343 157.347 C 295.773 157.956 295.053 158.472 293.018 159.732 C 292.224 160.223 285.822 163.327 284.639 163.795 C 284.038 164.032 283.163 164.392 282.696 164.594 C 281.756 165 278.933 165.929 276.867 166.513 C 276.132 166.721 275.039 167.059 274.438 167.265 C 272.171 168.042 265.647 169.245 259.502 170.021 C 253.151 170.822 240.863 170.811 235.944 170 C 235.143 169.868 233.613 169.664 232.544 169.547 C 225.427 168.768 220.604 168.064 218.049 167.431 C 213.932 166.412 213.886 166.456 214.008 171.266 C 214.108 175.201 214.061 175.138 218.336 177.098 C 219.071 177.435 220.328 177.902 221.129 178.137 C 221.931 178.372 222.914 178.671 223.315 178.801 C 223.716 178.931 224.645 179.196 225.379 179.39 C 226.114 179.584 227.098 179.856 227.565 179.994 C 233.577 181.774 248.365 182.694 258.288 181.905 C 263.202 181.514 270.941 180.246 271.645 179.716 C 271.779 179.615 272.38 179.457 272.981 179.364 C 273.582 179.272 274.402 179.098 274.803 178.979 C 275.203 178.86 276.351 178.533 277.353 178.253 C 278.355 177.973 279.393 177.65 279.66 177.537 C 279.927 177.423 280.692 177.144 281.36 176.917 C 282.028 176.69 282.919 176.354 283.34 176.17 C 283.761 175.985 284.258 175.835 284.445 175.835 C 284.632 175.835 284.888 175.743 285.015 175.632 C 285.142 175.52 285.847 175.178 286.582 174.871 C 289.572 173.623 295.383 170.574 296.804 169.506 C 297.26 169.164 298.019 168.631 298.492 168.322 C 300.779 166.825 300.986 162.036 298.92 158.413 C 297.791 156.432 297.365 156.256 296.343 157.347"
            fill="#0a3459" fill-rule="evenodd" id="path0" stroke="none" />
        <path style=""
            d="M 79.417 120.954 C 77.48 121.055 75.24 121.258 74.438 121.405 C 73.637 121.553 72.38 121.673 71.645 121.674 C 70.559 121.675 64.392 122.557 62.261 123.017 C 61.632 123.152 61.393 123.691 61.598 124.508 C 61.777 125.219 62.505 125.222 67.031 124.526 C 76.917 123.008 95.728 123.162 103.582 124.827 C 107.797 125.72 110.636 125.807 110.877 125.05 C 111.287 123.758 110.425 123.248 106.982 122.746 C 105.78 122.57 104.25 122.308 103.582 122.163 C 102.914 122.018 101.056 121.792 99.454 121.662 C 97.851 121.532 95.883 121.323 95.082 121.198 C 93.042 120.88 83.634 120.733 79.417 120.954"
            fill="#0a3459" fill-rule="evenodd" id="path0" stroke="none" />
        <path style=""
            d="M 195.628 110.517 C 191.267 110.991 189.463 111.938 188.458 114.282 C 187.639 116.193 188.052 119.477 189.356 121.429 C 189.667 121.894 189.921 122.347 189.921 122.436 C 189.921 123.319 193.458 127.298 195.386 128.584 C 197.357 129.899 197.379 129.947 197.537 133.212 C 197.615 134.815 197.745 136.727 197.825 137.462 L 197.972 138.798 L 196.696 140.08 C 192.67 144.126 187.741 143.947 185.82 139.667 C 184.696 137.164 182.87 137.02 182.88 139.45 C 182.901 144.376 190.766 147.939 195.367 145.107 C 195.912 144.772 196.576 144.363 196.843 144.198 C 197.11 144.033 197.739 143.543 198.24 143.109 C 199.51 142.009 199.49 142.002 201.008 144.019 C 208.378 153.812 222.775 156.176 231.836 149.081 C 237.871 144.356 241.273 137.219 237.49 137.219 C 236.837 137.219 236.692 137.372 236.052 138.737 C 232.432 146.459 227.482 149.698 219.308 149.692 C 209.506 149.686 201.896 143.664 200.868 135.102 C 200.376 131.002 200.494 130.781 203.456 130.276 C 207.651 129.56 213.306 126.924 215.131 124.833 C 219.283 120.076 218.171 116.265 211.779 113.344 C 210.072 112.564 207.799 111.718 207.409 111.718 C 207.188 111.718 206.524 111.565 205.933 111.378 C 204.917 111.056 201.623 110.623 198.664 110.423 C 197.93 110.373 196.563 110.416 195.628 110.517"
            fill="#0a3459" fill-rule="evenodd" id="path0" stroke="none" />
        <path style=""
            d="M 157.498 108.225 C 147.845 109.627 147.45 114.23 156.68 117.752 C 158.268 118.358 158.196 124.722 156.575 127.14 C 153.376 131.911 148.851 131.936 145.389 127.201 C 143.837 125.077 142.076 126.876 143.276 129.36 C 145.537 134.04 153.096 135.121 157.147 131.344 C 158.301 130.268 159.696 128.482 159.909 127.808 C 160.147 127.052 160.525 127.118 162.156 128.196 C 166.275 130.92 170.585 130.771 173.175 127.817 C 175.857 124.757 175.946 120.845 173.325 121.24 C 172.76 121.325 172.537 121.725 171.587 124.364 C 169.943 128.934 162.842 126.854 161.253 121.338 C 160.318 118.09 160.384 117.507 161.882 115.79 C 162.61 114.955 163.206 114.172 163.206 114.05 C 163.206 113.928 163.49 113.456 163.837 113 C 166.407 109.632 163.401 107.367 157.498 108.225"
            fill="#0a3459" fill-rule="evenodd" id="path0" stroke="none" />
        <path style=""
            d="M 125.319 96.781 C 120.211 97.761 116.497 100.931 115.29 105.339 C 114.54 108.079 114.896 109.047 116.652 109.047 C 117.534 109.047 117.34 108.645 117.942 106.249 C 118.849 102.643 122.767 100.627 123.27 100.454 C 125.326 99.153 129.248 99.932 130.28 100.369 C 131.465 100.872 135.381 103.135 135.788 104.747 C 136.409 107.209 137.45 106.993 138.486 106.197 C 141.371 103.979 134.697 97.796 128.597 96.794 C 128.063 96.707 126.187 96.614 125.319 96.781"
            fill="#0a3459" fill-rule="evenodd" id="path0" stroke="none" />
        <path style=""
            d="M 251.351 94.467 C 248.468 95.956 246.579 99.024 245.858 103.386 C 245.723 104.209 246.585 105.404 247.315 105.404 C 247.769 105.404 248.937 104.474 248.939 104.111 C 248.94 103.954 249.087 103.545 249.266 103.202 C 249.445 102.859 249.665 102.283 249.756 101.923 C 250.378 99.443 252.824 97.257 254.767 97.444 C 257.154 97.674 258.166 99.595 258.166 103.899 C 258.166 107.283 258.508 108.075 259.968 108.075 C 262.542 108.075 262.474 99.927 259.872 96.484 C 257.845 93.802 254.275 92.957 251.351 94.467"
            fill="#0a3459" fill-rule="evenodd" id="path0" stroke="none" />
        <path style=""
            d="M 175.349 89.529 C 174.708 89.652 173.567 90.115 172.249 90.785 C 168.101 92.896 164.744 101.692 167.828 102.37 C 168.674 102.555 169.763 101.991 169.763 101.367 C 169.763 101.156 169.913 100.64 170.095 100.219 C 170.278 99.798 170.699 98.823 171.031 98.052 C 173.53 92.252 179.909 91.671 185.103 96.772 C 186.776 98.414 187.267 98.613 188.139 98.002 C 190.348 96.455 186.929 92.237 182.271 89.958 C 181.429 89.546 176.965 89.249 175.349 89.529"
            fill="#0a3459" fill-rule="evenodd" id="path0" stroke="none" />
        <path style=""
            d="M 211.234 84.78 C 209.239 85.251 207.244 87.004 206.283 89.132 C 205.951 89.866 205.581 90.686 205.46 90.953 C 204.084 93.997 204.556 95.959 206.573 95.581 C 207.286 95.447 207.511 95.254 207.809 94.521 C 208.173 93.625 208.902 91.971 209.433 90.837 C 209.911 89.817 211.887 87.917 212.471 87.917 C 214.758 87.917 215.631 89.431 215.893 93.849 C 216.097 97.294 216.378 97.88 217.817 97.871 C 218.848 97.865 219.07 97.566 219.343 95.812 C 220.421 88.883 216.494 83.54 211.234 84.78"
            fill="#0a3459" fill-rule="evenodd" id="path0" stroke="none" />
        <path style=""
            d="M 105.404 129.205 C 105.203 129.334 104.719 129.442 104.328 129.444 C 103.937 129.446 103.281 129.551 102.871 129.678 C 102.461 129.805 101.305 130.017 100.304 130.15 C 99.302 130.283 97.553 130.566 96.418 130.778 C 95.282 130.99 93.719 131.269 92.944 131.397 C 92.169 131.525 90.908 131.836 90.142 132.087 C 89.376 132.339 88.261 132.623 87.665 132.72 C 87.069 132.816 86.09 133.038 85.489 133.213 C 84.888 133.388 83.74 133.713 82.939 133.935 C 82.137 134.156 80.771 134.614 79.903 134.951 C 77.136 136.025 75.191 136.709 74.196 136.959 C 73.795 137.06 73.127 137.318 72.712 137.533 C 72.297 137.749 71.259 138.162 70.405 138.453 C 68.606 139.066 68.002 139.516 68.002 140.244 C 68.002 141.342 69.18 141.671 70.726 141.004 C 71.165 140.815 71.923 140.487 72.411 140.275 C 72.898 140.064 73.397 139.891 73.519 139.891 C 73.64 139.891 74.172 139.682 74.701 139.427 C 75.651 138.968 77.541 138.315 79.66 137.715 C 80.261 137.545 81.026 137.317 81.36 137.209 C 83.482 136.522 91.241 134.435 93.139 134.041 C 94.567 133.744 97.327 133.249 100.546 132.711 C 101.815 132.499 103.4 132.225 104.068 132.1 C 104.736 131.976 106.43 131.736 107.832 131.566 C 110.883 131.197 110.99 131.142 110.99 129.919 L 110.99 128.962 L 108.379 128.965 C 106.943 128.968 105.604 129.075 105.404 129.205"
            fill="#0a3459" fill-rule="evenodd" id="path0" stroke="none" />
        <path style=""
            d="M 290.2 66.136 C 287.09 67.3 285.416 70.21 284.812 75.5 C 284.114 81.618 284.566 97.506 285.616 103.704 C 285.74 104.438 286.006 106.242 286.206 107.711 C 286.905 112.839 287.259 115.003 287.539 115.847 C 287.694 116.315 287.973 117.407 288.158 118.276 C 289.155 122.937 291.398 130.137 292.716 132.905 C 293.051 133.608 293.766 135.133 294.306 136.293 C 299.234 146.886 308.723 152.525 317.183 149.887 C 320.327 148.907 323.267 147.625 323.775 147.013 C 323.922 146.836 324.193 146.691 324.377 146.691 C 324.561 146.691 324.712 146.599 324.712 146.487 C 324.712 146.375 324.957 146.168 325.258 146.028 C 326.546 145.425 331.029 141.001 332.436 138.942 C 333.974 136.692 335.384 134.436 335.391 134.212 C 335.395 134.094 335.644 133.602 335.944 133.119 C 336.535 132.169 336.647 131.89 337.756 128.597 C 339.299 124.016 339.473 115.398 338.077 112.691 C 337.973 112.49 337.584 111.459 337.212 110.401 C 335.994 106.939 332.167 99.798 330.621 98.105 C 330.31 97.763 330.055 97.396 330.055 97.289 C 330.055 96.436 323.34 88.696 317.921 83.303 C 306.124 71.563 294.663 64.465 290.2 66.136"
            fill="#0a3459" fill-rule="evenodd" id="path0" stroke="none" />
        <path style=""
            d="M 110.625 134.86 C 110.358 135.04 109.593 135.386 108.925 135.629 C 106.549 136.493 101.169 139.075 97.025 141.342 C 96.09 141.853 94.724 142.598 93.989 142.997 C 92.01 144.071 87.643 146.811 86.946 147.416 C 86.211 148.054 83.817 149.605 83.567 149.605 C 83.468 149.605 83.131 149.879 82.817 150.213 C 82.504 150.546 82.152 150.82 82.036 150.82 C 81.92 150.82 81.693 150.926 81.532 151.055 C 79.518 152.671 78.42 153.492 78.267 153.494 C 78.165 153.495 77.336 154.181 76.424 155.017 L 74.768 156.538 L 75.288 157.201 C 76 158.105 76.031 158.095 78.667 156.107 C 82.19 153.452 83.132 152.783 83.704 152.534 C 83.992 152.409 84.305 152.182 84.399 152.029 C 84.494 151.876 85.187 151.359 85.941 150.881 C 86.694 150.403 87.365 149.937 87.432 149.845 C 87.498 149.754 88.394 149.238 89.421 148.7 C 91.044 147.848 91.904 147.304 92.896 146.499 C 93.03 146.391 93.345 146.224 93.596 146.128 C 93.847 146.032 95.05 145.375 96.268 144.669 C 98.98 143.097 108.936 138.191 109.414 138.191 C 109.938 138.191 112.672 136.585 112.767 136.221 C 113.074 135.046 111.671 134.154 110.625 134.86"
            fill="#0a3459" fill-rule="evenodd" id="path0" stroke="none" />
    </g>
</svg>