<?xml version="1.0" encoding="utf-8"?>
<svg height="341.374px" viewBox="37.6359 79.313 424.7282 341.3739" width="424.728px"
    xmlns="http://www.w3.org/2000/svg">
    <g style=""
        id="svg"
        transform="matrix(1.2626190185546875, 0, 0, 1.2011200189590454, -38.12461853027344, -54.20087814331055)">
        <title>Letras</title>
        <a transform="matrix(1, 0, 0, 1, -7.159965, -1.358615)">
            <path style="stroke-width: 1;" d="M 290.213 253.118 C 284.863 253.888 283.692 256.402 283.603 267.326 L 283.547 274.508 L 279.54 274.712 C 272.051 275.095 269.042 276.528 267.291 280.549 C 266.285 282.865 266.178 287.3 267.098 288.299 C 267.418 288.645 267.68 289.172 267.68 289.474 C 267.68 292.067 273.23 294.261 279.782 294.261 C 284.15 294.261 283.713 291.692 283.721 317.591 C 283.727 338.742 283.913 344.056 284.681 345.009 C 284.836 345.203 285.068 345.948 285.198 346.668 C 285.464 348.129 286.693 350.747 287.114 350.747 C 287.265 350.747 287.387 350.938 287.387 351.172 C 287.387 351.736 289.793 355.289 290.785 356.193 C 293.267 358.466 295.019 359.889 295.317 359.889 C 295.504 359.889 295.834 360.094 296.048 360.349 C 296.262 360.597 296.843 360.902 297.342 361.024 C 297.84 361.147 298.47 361.443 298.747 361.678 C 299.49 362.32 307.947 364.459 309.754 364.465 C 310.799 364.468 314.915 363.529 316.288 362.976 C 316.838 362.753 317.765 362.472 318.352 362.351 C 318.936 362.232 319.591 361.922 319.812 361.663 C 320.029 361.407 320.357 361.196 320.54 361.196 C 323.315 361.196 328.479 354.377 328.479 350.71 C 328.479 347.363 324.658 342.201 321.857 341.762 C 321.181 341.654 320.251 341.478 319.796 341.369 C 319.335 341.259 318.817 341.205 318.647 341.244 C 318.476 341.287 317.617 341.45 316.739 341.616 C 315.271 341.887 312.672 343.358 310.919 344.915 C 309.997 345.731 309.95 345.719 308.022 344.218 C 307.097 343.499 306.215 342.911 306.063 342.911 C 304.528 342.911 304.117 336.595 304.103 312.803 C 304.094 295.468 304.111 294.925 304.739 294.6 C 305.117 294.402 307.936 294.258 311.503 294.255 C 321.022 294.249 323.617 293.425 325.28 289.885 C 327.034 286.146 327.037 284.096 325.291 280.386 C 323.352 276.262 320.275 275.199 308.935 274.719 L 303.927 274.508 L 303.759 266.95 C 303.613 260.356 303.519 259.312 303.006 258.763 C 302.684 258.414 302.421 258.009 302.421 257.864 C 302.421 257.268 300.666 255.396 299.196 254.426 C 296.976 252.964 294.158 252.552 290.213 253.118 M 217.238 273.725 C 211.114 274.574 210.141 274.75 209.297 275.181 C 208.796 275.438 208.131 275.649 207.822 275.649 C 207.507 275.65 207.169 275.788 207.066 275.951 C 206.96 276.118 206.388 276.356 205.793 276.48 C 204.75 276.695 201.567 277.984 200.536 278.604 C 200.258 278.771 199.527 279.128 198.909 279.399 C 198.293 279.672 197.288 280.294 196.687 280.794 C 196.08 281.285 195.025 282.059 194.342 282.507 C 193.661 282.957 192.748 283.694 192.317 284.141 C 191.885 284.59 191.356 285.102 191.141 285.281 C 189.773 286.442 186.512 289.833 185.687 290.958 C 185.149 291.699 184.583 292.3 184.435 292.3 C 184.288 292.3 184.166 292.527 184.166 292.796 C 184.166 293.069 183.863 293.541 183.499 293.847 C 183.129 294.157 182.828 294.587 182.828 294.802 C 182.828 295.015 181.995 296.785 180.977 298.729 C 179.955 300.672 178.917 303.114 178.66 304.155 C 178.409 305.202 178.048 306.235 177.857 306.457 C 177.672 306.681 177.414 307.884 177.292 309.133 C 177.166 310.38 176.857 311.898 176.603 312.503 C 175.96 314.061 175.966 325.033 176.611 326.983 C 176.868 327.753 177.174 329.237 177.288 330.28 C 177.4 331.324 177.704 332.497 177.958 332.892 C 178.212 333.282 178.53 334.108 178.658 334.722 C 178.793 335.335 179.481 336.953 180.192 338.313 C 180.901 339.674 181.487 340.961 181.49 341.171 C 181.493 341.381 181.611 341.601 181.755 341.66 C 181.898 341.72 182.452 342.623 182.989 343.668 C 183.524 344.712 184.327 345.951 184.773 346.419 C 185.217 346.89 186.171 348.003 186.892 348.892 C 187.613 349.782 188.9 351.118 189.761 351.856 C 190.62 352.592 191.909 353.749 192.628 354.421 C 193.345 355.094 194.041 355.646 194.177 355.646 C 194.307 355.646 194.692 355.939 195.024 356.299 C 195.354 356.659 195.807 356.95 196.03 356.95 C 196.249 356.95 197.131 357.475 197.986 358.111 C 198.84 358.749 200.027 359.433 200.625 359.626 C 201.215 359.82 201.929 360.167 202.204 360.389 C 202.479 360.615 203.23 360.901 203.875 361.025 C 204.519 361.157 205.345 361.447 205.717 361.677 C 206.083 361.901 207.137 362.255 208.053 362.46 C 208.972 362.659 210.773 363.135 212.06 363.512 C 218.157 365.295 228.294 365.357 233.438 363.64 C 234.726 363.205 236.528 362.696 237.444 362.501 C 238.357 362.3 239.334 361.957 239.614 361.734 C 239.89 361.51 240.869 361.14 241.782 360.918 C 242.698 360.69 243.525 360.405 243.62 360.28 C 243.715 360.157 244.494 359.71 245.351 359.292 C 246.204 358.868 247.185 358.32 247.524 358.066 C 248.689 357.192 250.675 355.971 250.926 355.971 C 253.071 355.971 259.331 347.168 259.331 344.154 C 259.331 342.029 256.585 336.708 255.493 336.708 C 255.242 336.708 254.831 336.513 254.585 336.269 C 253.114 334.832 247.513 334.53 245.126 335.762 C 242.906 336.909 240.251 338.704 240.06 339.188 C 239.819 339.813 237.595 341.227 234.779 342.557 C 233.489 343.163 232.037 343.854 231.551 344.099 C 231.062 344.344 230.38 344.543 230.031 344.543 C 229.684 344.543 229.209 344.728 228.979 344.951 C 228.678 345.248 226.987 345.361 222.916 345.361 C 218.845 345.361 217.157 345.248 216.852 344.951 C 216.626 344.728 216.108 344.543 215.709 344.543 C 214.978 344.543 212.221 343.455 209.721 342.179 C 207.854 341.225 204.204 338.321 204.21 337.794 C 204.218 337.434 206.446 336.428 207.793 336.177 C 208.385 336.066 209.044 335.772 209.255 335.526 C 209.464 335.278 209.972 335.076 210.381 335.076 C 210.793 335.076 212.091 334.593 213.264 334.001 C 214.438 333.408 216.077 332.72 216.903 332.466 C 217.73 332.213 218.706 331.828 219.076 331.608 C 219.444 331.386 220.308 331.104 221.001 330.981 C 221.691 330.859 222.331 330.64 222.42 330.497 C 222.641 330.143 225.14 329.004 226.594 328.589 C 227.233 328.402 228.813 327.864 230.1 327.386 C 231.383 326.908 233.115 326.297 233.938 326.032 C 235.851 325.419 238.215 324.347 238.444 323.985 C 238.543 323.832 239.207 323.608 239.926 323.489 C 240.643 323.372 241.505 323.067 241.842 322.817 C 242.181 322.568 242.643 322.358 242.866 322.352 C 243.091 322.346 244.095 321.975 245.099 321.527 C 246.103 321.076 247.129 320.708 247.375 320.708 C 247.627 320.708 248.418 320.413 249.14 320.057 C 249.858 319.699 250.624 319.404 250.841 319.404 C 251.054 319.404 251.409 319.19 251.628 318.935 C 251.845 318.677 252.505 318.366 253.09 318.249 C 253.673 318.13 254.453 317.856 254.819 317.641 C 255.186 317.424 256.12 317.049 256.889 316.811 C 257.661 316.571 258.371 316.172 258.464 315.928 C 258.56 315.683 258.837 315.487 259.083 315.487 C 260.897 315.487 263.942 308.746 262.886 307.074 C 262.781 306.907 262.527 305.421 262.322 303.765 C 261.969 300.93 261.042 298.123 260.32 297.684 C 260.143 297.576 259.995 297.263 259.995 296.989 C 259.995 296.568 258.898 294.513 257.229 291.812 C 255.608 289.197 250.013 283.647 247.195 281.868 C 245.97 281.093 244.964 280.347 244.964 280.213 C 244.964 280.078 244.363 279.731 243.628 279.442 C 242.893 279.156 242.291 278.773 242.291 278.591 C 242.291 278.411 242.03 278.261 241.707 278.26 C 241.385 278.258 240.372 277.896 239.452 277.456 C 238.531 277.013 237.588 276.645 237.357 276.643 C 237.118 276.635 235.992 276.24 234.848 275.768 C 230.686 274.041 222.127 273.047 217.238 273.725 M 116.519 274.493 C 115.23 274.704 113.73 275.058 113.18 275.288 C 112.627 275.513 111.273 275.995 110.171 276.357 C 109.071 276.72 107.792 277.214 107.333 277.45 C 106.873 277.685 105.518 278.348 104.325 278.915 C 103.131 279.48 101.824 280.306 101.418 280.741 C 99.809 282.469 97.312 282.088 97.312 280.109 C 97.312 279.396 94.515 277.044 93.134 276.601 C 92.4 276.363 91.657 276.052 91.481 275.911 C 91.049 275.557 85.702 275.582 85.477 275.938 C 85.379 276.095 84.655 276.381 83.87 276.574 C 82.042 277.022 80.206 278.854 79.295 281.131 C 78.607 282.852 78.602 283.047 78.602 336.095 L 78.602 389.334 L 79.564 391.345 C 80.83 394.002 82.282 395.448 84.301 396.061 C 89.977 397.788 95.235 396.108 97.844 391.723 L 98.815 390.092 L 98.915 373.847 C 99.03 355.536 98.896 356.314 101.521 358.567 C 102.133 359.097 103.171 359.626 103.818 359.748 C 104.466 359.867 104.995 360.088 104.995 360.244 C 104.995 360.399 105.819 360.759 106.825 361.044 C 107.833 361.329 108.73 361.687 108.827 361.832 C 108.918 361.982 109.711 362.203 110.587 362.33 C 111.46 362.454 112.627 362.746 113.18 362.976 C 117.231 364.661 129.767 364.776 133.075 363.154 C 133.36 363.016 134.489 362.724 135.579 362.508 C 136.671 362.294 137.898 361.91 138.305 361.656 C 138.71 361.402 139.222 361.196 139.441 361.196 C 140.052 361.196 144.073 359.282 145.681 358.223 C 146.475 357.702 147.253 357.278 147.42 357.278 C 147.585 357.278 147.839 357.089 147.989 356.864 C 148.134 356.634 148.69 356.174 149.223 355.845 C 149.75 355.511 151.105 354.36 152.227 353.28 C 153.348 352.201 154.605 351.099 155.019 350.831 C 155.434 350.565 155.77 350.143 155.77 349.895 C 155.77 349.645 155.897 349.442 156.055 349.442 C 156.351 349.442 159.888 344.599 160.822 342.913 C 161.119 342.381 161.512 341.754 161.698 341.53 C 161.878 341.302 162.221 340.527 162.452 339.81 C 162.681 339.093 163.004 338.34 163.166 338.144 C 163.484 337.748 164.724 334.417 165.033 333.118 C 165.14 332.669 165.417 332.006 165.646 331.648 C 165.88 331.286 166.23 329.477 166.432 327.623 C 166.634 325.77 166.946 323.98 167.132 323.643 C 167.626 322.744 167.536 315.9 167.002 313.838 C 166.75 312.86 166.452 310.905 166.337 309.503 C 166.221 308.067 165.911 306.641 165.629 306.244 C 165.352 305.861 165.123 305.217 165.123 304.821 C 165.123 304.421 164.981 304.01 164.811 303.907 C 164.643 303.805 164.273 302.948 163.987 302.011 C 163.706 301.071 163.171 299.723 162.797 299.009 C 162.423 298.299 162.119 297.545 162.119 297.335 C 162.119 297.127 161.901 296.781 161.642 296.564 C 161.374 296.351 161.068 295.769 160.955 295.269 C 160.843 294.77 160.232 293.87 159.596 293.267 C 158.963 292.667 158.443 291.979 158.443 291.74 C 158.443 291.501 158.233 291.224 157.972 291.128 C 157.714 291.03 157.315 290.514 157.09 289.981 C 156.865 289.449 156.402 288.865 156.059 288.688 C 155.715 288.507 155.438 288.148 155.438 287.883 C 155.438 287.623 155.293 287.404 155.119 287.404 C 154.944 287.404 153.824 286.488 152.633 285.364 C 151.441 284.242 150.117 283.075 149.694 282.765 C 148.518 281.915 146.602 280.419 146.418 280.203 C 146.325 280.099 145.198 279.534 143.911 278.949 C 142.626 278.368 141.348 277.754 141.073 277.588 C 140.443 277.201 140.472 277.214 137.064 276.165 C 135.502 275.683 133.922 275.162 133.558 275.005 C 131.321 274.049 121.145 273.747 116.519 274.493 M 229.6 294.066 C 230.239 294.402 230.992 294.802 231.27 294.952 C 231.542 295.102 232.242 295.461 232.825 295.745 C 233.404 296.033 234.144 296.552 234.462 296.895 C 234.784 297.244 235.222 297.526 235.435 297.526 C 235.834 297.526 239.955 301.575 239.955 301.97 C 239.955 302.089 240.342 302.537 240.814 302.966 C 241.854 303.909 241.753 304.382 240.355 305.075 C 239.77 305.365 239.103 305.746 238.874 305.923 C 238.638 306.097 237.723 306.436 236.833 306.669 C 235.939 306.905 234.669 307.369 234.005 307.7 C 233.342 308.032 232.626 308.302 232.413 308.302 C 232.201 308.302 231.19 308.74 230.166 309.271 C 229.138 309.812 227.695 310.342 226.952 310.459 C 226.21 310.574 225.429 310.871 225.221 311.116 C 225.011 311.367 224.641 311.566 224.405 311.566 C 223.967 311.566 219.612 313.153 217.738 313.992 C 217.187 314.24 216.051 314.75 215.212 315.128 C 214.371 315.501 213.374 315.81 212.996 315.81 C 212.617 315.81 212.134 316.016 211.923 316.267 C 211.709 316.519 211.054 316.814 210.461 316.921 C 209.869 317.03 208.962 317.339 208.441 317.603 C 207.917 317.87 206.866 318.243 206.1 318.435 C 204.825 318.755 204.308 318.946 201.869 320.032 C 201.409 320.236 200.21 320.607 199.198 320.858 C 198.187 321.107 197.022 321.414 196.608 321.537 C 195.697 321.812 195.487 317.254 196.311 314.953 C 196.559 314.258 196.866 312.904 196.995 311.946 C 197.12 310.986 197.519 309.667 197.877 309.01 C 198.236 308.357 198.531 307.58 198.531 307.285 C 198.531 306.992 198.738 306.581 198.992 306.376 C 199.242 306.172 199.531 305.598 199.634 305.112 C 199.735 304.622 200.741 303.265 201.873 302.096 C 203.005 300.93 204.03 299.826 204.152 299.642 C 204.275 299.462 204.752 299.058 205.212 298.743 C 208.513 296.502 210.1 295.568 210.602 295.568 C 210.926 295.568 211.275 295.424 211.388 295.251 C 211.647 294.837 213.634 293.919 214.999 293.585 C 217.265 293.025 228.319 293.385 229.6 294.066 M 126.206 293.966 C 126.941 294.154 128.117 294.425 128.819 294.569 C 129.527 294.717 130.272 295.002 130.475 295.201 C 130.68 295.405 131.088 295.568 131.377 295.568 C 131.98 295.568 136.463 297.617 137.252 298.249 C 140.059 300.51 143.448 304.361 144.218 306.169 C 144.522 306.879 144.883 307.542 145.018 307.637 C 145.648 308.087 146.422 309.695 146.622 310.974 C 146.746 311.748 147.009 312.675 147.211 313.036 C 148.409 315.157 148.401 324.376 147.203 326.088 C 146.955 326.443 146.752 327.015 146.752 327.361 C 146.752 328.206 145.148 331.484 144.735 331.484 C 144.559 331.484 144.409 331.742 144.408 332.057 C 144.396 333.15 140.287 338.338 139.432 338.338 C 139.29 338.338 139.018 338.673 138.83 339.08 C 138.64 339.486 138.053 340.03 137.524 340.294 C 136.995 340.557 136.295 341.032 135.966 341.352 C 135.637 341.671 135.004 341.934 134.562 341.934 C 134.117 341.934 133.637 342.12 133.49 342.346 C 132.507 343.871 123.09 345.149 119.309 344.273 C 116.507 343.626 113.51 342.755 113.346 342.544 C 113.255 342.427 112.652 342.091 112.01 341.8 C 110.137 340.945 108.249 339.744 107.945 339.213 C 107.651 338.694 104.126 335.2 103.507 334.813 C 103.036 334.517 101.154 330.925 100.865 329.769 C 100.741 329.275 100.492 328.872 100.309 328.872 C 100.133 328.872 99.981 328.609 99.981 328.284 C 99.981 327.961 99.819 327.537 99.617 327.337 C 99.006 326.743 98.315 322.364 98.315 319.105 C 98.315 313.552 98.68 312.294 102.371 305.269 C 103.095 303.896 107.865 299.1 109.302 298.309 C 111.125 297.307 111.58 297.031 112.055 296.648 C 112.305 296.454 113.187 296.099 114.013 295.868 C 114.839 295.638 115.813 295.253 116.174 295.015 C 116.539 294.782 117.223 294.59 117.694 294.59 C 118.168 294.59 118.698 294.452 118.874 294.286 C 119.55 293.644 124.16 293.443 126.206 293.966"
                fill="#9bc36a"
                fill-rule="evenodd" id="path1" stroke="none" xmlns="http://www.w3.org/2000/svg" />
            <path style=""
                d="M 359.199 158.118 C 358.044 158.643 356.512 159.926 355.541 161.181 L 353.872 163.34 L 354 197.379 L 354.126 231.417 L 355.456 233.402 C 358.717 238.272 366.841 238.824 370.963 234.456 C 373.446 231.825 373.431 232.069 373.431 196.179 L 373.431 162.871 L 372.02 160.86 C 369.489 157.252 363.788 156.033 359.199 158.118"
                fill="#0a3459" fill-rule="evenodd" id="path0" stroke="none" />
            <path style=""
                d="M 229.237 123.79 C 222.661 126.148 219.996 134.429 223.936 140.259 C 230.216 149.555 245.11 146.174 245.13 135.448 C 245.145 126.694 237.265 120.915 229.237 123.79"
                fill="#0a3459" fill-rule="evenodd" id="path0" stroke="none" />
            <path style=""
                d="M 366.165 271.67 C 357.096 272.96 351.294 275.412 346.861 279.835 C 343.685 283.003 340.899 288.27 340.197 292.432 C 338.344 303.431 342.754 313.066 351.804 317.8 C 355.243 319.597 362.664 322.153 368.989 323.718 C 380.627 326.595 384.3 329.178 384.223 334.429 C 384.066 345.173 364.865 346.211 354.864 336.017 C 349.095 330.136 343.821 329.343 339.171 333.653 C 332.488 339.851 338.295 350.721 351.569 356.856 C 378.017 369.081 407.15 354.181 403.185 330.457 C 401.11 318.033 391.781 310.627 372.744 306.291 C 371.327 305.97 369.31 305.414 368.266 305.059 C 367.223 304.703 366.073 304.412 365.711 304.412 C 362.625 304.412 358.333 299.163 358.866 296.04 C 360.2 288.235 374.421 287.849 382.342 295.404 C 388.121 300.917 395.104 300.533 398.258 294.524 C 404.083 283.428 384.015 269.136 366.165 271.67"
                fill="#0a3459" fill-rule="evenodd" id="path0" stroke="none" />
            <path style=""
                d="M 123.9 119.765 C 115.458 120.49 111.665 121.336 104.32 124.135 C 102.356 124.884 100.629 125.496 100.484 125.496 C 100.033 125.496 93.906 129.265 91.178 131.222 C 86.92 134.275 77.522 143.92 77.522 145.237 C 77.522 145.418 77.015 146.233 76.392 147.047 C 75.397 148.349 74.47 150.194 71.553 156.67 C 71.149 157.566 70.4 159.547 69.889 161.074 C 68.999 163.735 68.762 164.804 67.58 171.559 C 66.577 177.282 67.467 189.573 69.34 195.842 C 69.697 197.041 69.992 198.272 69.992 198.576 C 69.992 199.111 71.623 203.132 73.192 206.456 C 74.331 208.872 78.606 215.796 79.915 217.342 C 92.837 232.626 109.189 240.05 128.372 239.349 C 138.698 238.971 151.183 235.577 156.429 231.722 C 157.231 231.134 158.065 230.65 158.282 230.65 C 158.501 230.65 159.644 229.86 160.828 228.892 C 162.01 227.925 163.507 226.803 164.154 226.398 C 175.574 219.266 175.056 206.635 163.25 204.3 C 160.305 203.718 157.681 204.96 153.513 208.908 C 147.427 214.669 145.987 215.573 138.73 218.191 C 128.608 221.838 112.224 219.313 103.652 212.783 C 102.617 211.994 101.495 211.138 101.158 210.88 C 87.894 200.724 83.239 177.91 91.14 161.789 C 93.755 156.453 98.264 150.328 100.542 149.024 C 100.958 148.784 101.597 148.294 101.963 147.936 C 102.651 147.261 105.483 145.335 107.614 144.098 C 117.091 138.587 131.787 138.122 142.306 142.996 C 143.626 143.608 144.859 144.108 145.047 144.108 C 145.435 144.108 149.054 146.997 152.794 150.29 C 158.025 154.899 162.958 155.125 167.74 150.976 C 174.781 144.866 170.525 135.909 156.62 127.564 C 151.935 124.754 151.051 124.384 143.201 121.961 C 140.063 120.991 127.938 119.249 126.253 119.525 C 125.993 119.57 124.935 119.677 123.9 119.765"
                fill="#0a3459" fill-rule="evenodd" id="path0" stroke="none" />
            <path style=""
                d="M 291.272 151.032 C 285.838 152.99 284.126 153.801 282.185 155.336 C 280.162 156.938 279.549 156.881 278.552 154.995 C 275.823 149.829 268.052 148.886 263.693 153.192 C 260.424 156.425 260.516 154.974 260.97 195.133 L 261.375 231.038 L 262.794 233.055 C 267.324 239.493 277.433 238.355 280.13 231.101 C 280.815 229.258 280.916 226.52 280.924 209.466 C 280.937 183.18 281.584 179.638 287.35 174.308 C 298.252 164.229 314.015 169.224 316.7 183.604 C 316.968 185.041 317.167 195.632 317.167 208.404 C 317.167 232.466 317.161 232.402 319.69 234.521 C 326.067 239.864 335.109 237.025 336.404 229.272 C 337.916 220.225 336.584 180.052 334.567 173.885 C 329.431 158.182 317.627 149.639 301.179 149.725 C 295.456 149.756 294.443 149.888 291.272 151.032"
                fill="#0a3459" fill-rule="evenodd" id="path0" stroke="none" />
            <path style=""
                d="M 192.676 119.99 C 190.179 120.461 188.014 121.964 186.517 124.271 C 185.589 125.701 185.575 126.515 185.575 179 L 185.575 232.28 L 186.632 233.959 C 190.369 239.899 200.539 239.569 203.722 233.403 C 204.62 231.662 204.643 230.327 204.643 179.236 C 204.643 120.39 204.912 124.907 201.219 121.823 C 200.188 120.962 194.991 119.041 194.991 119.52 C 194.991 119.537 193.95 119.748 192.676 119.99"
                fill="#0a3459" fill-rule="evenodd" id="path0" stroke="none" />
            <path style=""
                d="M 228.373 156.787 C 224.071 159.65 224.201 158.962 224.048 179.936 C 223.817 212.043 224.43 231.973 225.707 233.741 C 229.17 238.536 237.213 238.649 241.499 233.959 C 243.788 231.455 243.866 229.821 243.461 192.605 L 243.115 160.838 L 241.941 159.049 C 239.318 155.052 232.647 153.942 228.373 156.787"
                fill="#0a3459" fill-rule="evenodd" id="path0" stroke="none" />
            <path style=""
                d="M 374.607 123.52 C 371.48 125.063 369.836 131.258 371.55 135.035 C 371.847 135.689 371.391 135.473 370.005 134.3 C 363.049 128.419 355.948 129.146 351.864 136.161 L 350.621 138.291 L 350.61 136.006 C 350.563 128.208 340.763 123.601 338.28 130.208 C 336.758 134.26 340.156 140.626 344.003 140.929 C 346.312 141.11 347.977 140.811 348.812 140.063 C 350.116 138.897 350.154 139.471 348.936 142.015 C 346.243 147.644 348.303 153.412 353.003 153.412 C 354.238 153.412 355.365 153.226 355.506 152.999 C 355.648 152.773 356.336 152.443 357.035 152.271 C 357.734 152.098 358.943 151.507 359.723 150.959 C 361.309 149.841 367.494 149.669 369.989 150.669 C 370.992 151.072 371.633 151.013 373.05 150.391 C 377.833 148.292 378.136 142.726 373.726 137.942 C 372.477 136.585 372.637 136.336 374.221 137.175 C 375.483 137.841 379.052 136.893 380.361 135.542 C 386.153 129.557 381.61 120.062 374.607 123.52"
                fill="#fdf2d9" fill-rule="evenodd" id="path5" stroke="none" />
            <path style=""
                d="M 362.212 113.884 C 359.225 116.206 358.794 124.35 361.508 127.219 C 364.284 130.155 370.746 127.904 371.589 123.709 C 373.211 115.644 367.562 109.724 362.212 113.884"
                fill="#fdf2d9" fill-rule="evenodd" id="path5" stroke="none" />
            <path style=""
                d="M 354.576 117.15 C 358.466 120.697 358.546 127.842 354.711 129.436 C 348.965 131.823 343.44 121.364 347.977 116.687 C 350.005 114.594 351.916 114.729 354.576 117.15"
                fill="#fdf2d9" fill-rule="evenodd" id="path5" stroke="none" />
            <path style=""
                d="M 365.643 132.367 C 378.024 138.489 379.755 151.072 368.015 149.599 C 363.448 149.025 360.468 149.311 358.777 150.482 C 351.852 155.282 346.246 151.041 349.427 143.41 C 350.067 141.874 350.592 140.463 350.592 140.275 C 350.598 139.496 353.662 134.937 355.018 133.691 C 358.569 130.431 361.092 130.116 365.643 132.367"
                fill="#fdf2d9" fill-rule="evenodd" id="path5" stroke="none" />
            <path style=""
                d="M 380.138 124.35 C 380.706 124.742 381.405 125.928 381.694 126.984 C 383.717 134.404 374.564 140.745 372.16 133.587 C 370.093 127.434 375.518 121.153 380.138 124.35"
                fill="#fdf2d9" fill-rule="evenodd" id="path5" stroke="none" />
            <path style=""
                d="M 349.316 114.724 C 345.901 115.713 344.52 123.293 347.079 127.015 C 351.908 134.038 360.144 129.853 358.101 121.418 C 357.414 118.586 354.159 114.795 352.416 114.795 C 351.974 114.795 351.33 114.711 350.988 114.61 C 350.642 114.506 349.89 114.56 349.316 114.724"
                fill="#fdf2d9" fill-rule="evenodd" id="path5" stroke="none" />
            <path style=""
                d="M 345.905 128.765 C 349.619 131.38 351.044 136.615 348.674 138.954 C 346.46 141.142 344.274 140.968 341.37 138.367 C 335.751 133.341 339.905 124.544 345.905 128.765"
                fill="#fdf2d9" fill-rule="evenodd" id="path5" stroke="none" />
            <path style=""
                d="M 116.445 302.577 C 116.327 302.898 116.401 313.223 116.401 313.223 L 105.252 313.348 L 105.252 325.912 L 116.185 325.643 L 116.081 336.146 L 129.125 336.187 C 128.93 337.686 128.697 325.878 128.801 325.751 C 129.11 325.376 139.813 325.427 139.813 325.427 L 140.092 313.348 L 129.498 313.087 C 128.576 313.118 129.347 302.487 128.934 302.506"
                fill="#7fc7cd" fill-rule="evenodd" id="path2" stroke="none" />
            <path style=""
                d="M 369.728 115.148 C 374.226 120.694 369.44 129.793 363.26 127.436 C 359.579 126.031 359.492 117.2 363.133 114.362 C 364.992 112.912 368.225 113.297 369.728 115.148"
                fill="#fdf2d9" fill-rule="evenodd" id="path5" stroke="none" />
            <path style=""
                d="M 339.755 129.102 C 335.462 134.48 343.84 143.732 348.674 138.954 C 350.547 137.103 350.552 135.419 348.685 132.195 C 346.108 127.747 341.979 126.315 339.755 129.102"
                fill="#fbb949" fill-rule="evenodd" id="path4" stroke="none" />
            <path style=""
                d="M 358.364 131.472 C 355.398 132.852 350.606 138.279 350.592 140.275 C 350.592 140.463 350.067 141.874 349.427 143.41 C 347.962 146.925 347.959 147.871 349.411 150.146 C 351.437 153.319 354.526 153.43 358.777 150.482 C 360.468 149.311 363.448 149.025 368.015 149.599 C 377.347 150.769 379.037 143.613 371.147 136.34 C 366.104 131.694 361.59 129.975 358.364 131.472"
                fill="#fbb949" fill-rule="evenodd" id="path4" stroke="none" />
            <path style=""
                d="M 363.133 114.362 C 359.492 117.2 359.579 126.031 363.26 127.436 C 368.421 129.403 372.407 124.444 371.036 117.762 C 370.28 114.072 365.913 112.194 363.133 114.362"
                fill="#fbb949" fill-rule="evenodd" id="path4" stroke="none" />
            <path style=""
                d="M 373.963 124.966 C 370.624 128.411 371.072 135.504 374.685 136.387 C 379.184 137.484 383.118 132.209 381.694 126.984 C 380.727 123.435 376.512 122.336 373.963 124.966"
                fill="#fbb949" fill-rule="evenodd" id="path4" stroke="none" />
            <path style=""
                d="M 347.977 116.687 C 346.015 118.709 345.934 123.885 347.82 126.693 C 350.067 130.034 355.159 130.779 356.613 127.976 C 360.081 121.295 352.771 111.74 347.977 116.687"
                fill="#fbb949" fill-rule="evenodd" id="path4" stroke="none" />
        </a>
    </g>
</svg>