<?xml version="1.0" encoding="UTF-8"?>
<svg version="1.1" xmlns="http://www.w3.org/2000/svg" width="512" height="512">
<path d="M0 0 C16.11165774 8.65536128 31.01132503 18.56268192 45.22753906 30.06176758 C46.145271 30.80378418 46.145271 30.80378418 47.08154297 31.56079102 C63.17219229 44.69834326 76.81625293 59.44370324 89.22753906 76.06176758 C89.97624268 75.92077637 90.72494629 75.77978516 91.49633789 75.63452148 C130.91254357 68.26379063 165.79748308 67.89381697 205.22753906 76.06176758 C205.88238281 75.20196289 206.53722656 74.3421582 207.21191406 73.45629883 C213.79666215 64.89441663 220.74182635 56.8452216 228.22753906 49.06176758 C228.69691895 48.57047363 229.16629883 48.07917969 229.64990234 47.57299805 C236.10549853 40.84606331 242.86736054 34.77795244 250.22753906 29.06176758 C251.07131104 28.39540283 251.07131104 28.39540283 251.93212891 27.71557617 C274.05666773 10.28973703 310.8241309 -18.39219819 340.45410156 -16.48901367 C347.17374721 -15.15454883 351.07348274 -11.7731747 354.93359375 -6.18505859 C357.6590844 -1.45247549 359.32016999 3.73079929 361.10253906 8.87426758 C361.53526123 10.11039795 361.9679834 11.34652832 362.41381836 12.62011719 C372.46602597 41.67585363 378.19904031 71.50506424 381.22753906 102.06176758 C381.29956543 102.76140625 381.3715918 103.46104492 381.44580078 104.18188477 C384.52674097 135.51431096 382.14782289 167.74993899 376.56298828 198.61181641 C375.91542655 203.3412793 375.65218377 205.2764076 378.57128906 209.26098633 C379.61178897 210.4341236 380.66460228 211.59642044 381.72753906 212.74926758 C382.83685594 213.99555728 383.94492534 215.24295845 385.05175781 216.49145508 C385.59622559 217.09957031 386.14069336 217.70768555 386.70166016 218.33422852 C390.03776828 222.11123669 393.12552579 226.09239525 396.22753906 230.06176758 C397.10104004 230.94626587 397.10104004 230.94626587 397.9921875 231.84863281 C404.19514049 238.62142119 404.17701271 244.59634985 403.85253906 253.49926758 C403.82340118 254.87887765 403.795672 256.25851813 403.76928711 257.63818359 C402.43649171 312.34722746 385.38240374 367.31619023 349.22753906 409.06176758 C348.4115625 410.00793945 347.59558594 410.95411133 346.75488281 411.92895508 C338.29915659 421.5031636 329.32987366 430.23638404 319.22753906 438.06176758 C318.69064453 438.48039062 318.15375 438.89901367 317.60058594 439.33032227 C275.94170592 471.59084417 225.82092016 487.67655774 174.22753906 495.06176758 C173.47730469 495.17447998 172.72707031 495.28719238 171.95410156 495.40332031 C121.34078261 502.12238329 65.47152929 488.54450609 20.22753906 466.06176758 C19.43879395 465.67553223 18.65004883 465.28929687 17.83740234 464.89135742 C-4.47464449 453.88624326 -24.39135939 439.60580271 -42.34423828 422.42700195 C-43.62008669 421.20742173 -44.90835656 420.00086668 -46.19824219 418.79614258 C-89.05071121 377.69430729 -108.12375692 314.56268336 -109.34228516 256.59155273 C-109.37908544 255.2377581 -109.43380156 253.88433269 -109.50634766 252.53198242 C-109.92171127 244.60944788 -109.64656353 239.2220409 -104.51464844 232.93676758 C-102.95212415 231.294255 -101.37138341 229.66886952 -99.77246094 228.06176758 C-98.25390215 226.24377684 -96.75146711 224.41207887 -95.27246094 222.56176758 C-92.97687204 219.7105326 -90.67036181 216.95246325 -88.17089844 214.27661133 C-87.33816406 213.36008789 -86.50542969 212.44356445 -85.64746094 211.49926758 C-84.88175781 210.69360352 -84.11605469 209.88793945 -83.32714844 209.05786133 C-81.00088294 204.57483209 -81.93269713 200.91419366 -82.77246094 196.06176758 C-82.88686523 195.31596436 -83.00126953 194.57016113 -83.11914062 193.80175781 C-83.34651906 192.33220112 -83.58231984 190.8639263 -83.82592773 189.39697266 C-93.5455207 130.29467975 -92.49697506 43.85509945 -59.28417969 -8.27416992 C-44.24799019 -27.31223931 -16.10674439 -8.47110872 0 0 Z " fill="#C8C8C8" transform="translate(108.7724609375,15.938232421875)"/>
<path d="M0 0 C16.11165774 8.65536128 31.01132503 18.56268192 45.22753906 30.06176758 C46.145271 30.80378418 46.145271 30.80378418 47.08154297 31.56079102 C63.17219229 44.69834326 76.81625293 59.44370324 89.22753906 76.06176758 C89.97624268 75.92077637 90.72494629 75.77978516 91.49633789 75.63452148 C130.91254357 68.26379063 165.79748308 67.89381697 205.22753906 76.06176758 C205.88238281 75.20196289 206.53722656 74.3421582 207.21191406 73.45629883 C213.79666215 64.89441663 220.74182635 56.8452216 228.22753906 49.06176758 C228.69691895 48.57047363 229.16629883 48.07917969 229.64990234 47.57299805 C236.10549853 40.84606331 242.86736054 34.77795244 250.22753906 29.06176758 C251.07131104 28.39540283 251.07131104 28.39540283 251.93212891 27.71557617 C274.05666773 10.28973703 310.8241309 -18.39219819 340.45410156 -16.48901367 C347.17374721 -15.15454883 351.07348274 -11.7731747 354.93359375 -6.18505859 C357.6590844 -1.45247549 359.32016999 3.73079929 361.10253906 8.87426758 C361.53526123 10.11039795 361.9679834 11.34652832 362.41381836 12.62011719 C372.46602597 41.67585363 378.19904031 71.50506424 381.22753906 102.06176758 C381.29956543 102.76140625 381.3715918 103.46104492 381.44580078 104.18188477 C384.52674097 135.51431096 382.14782289 167.74993899 376.56298828 198.61181641 C375.91542655 203.3412793 375.65218377 205.2764076 378.57128906 209.26098633 C379.61178897 210.4341236 380.66460228 211.59642044 381.72753906 212.74926758 C382.83685594 213.99555728 383.94492534 215.24295845 385.05175781 216.49145508 C385.59622559 217.09957031 386.14069336 217.70768555 386.70166016 218.33422852 C390.03776828 222.11123669 393.12552579 226.09239525 396.22753906 230.06176758 C397.10104004 230.94626587 397.10104004 230.94626587 397.9921875 231.84863281 C404.19514049 238.62142119 404.17701271 244.59634985 403.85253906 253.49926758 C403.82340118 254.87887765 403.795672 256.25851813 403.76928711 257.63818359 C402.43649171 312.34722746 385.38240374 367.31619023 349.22753906 409.06176758 C348.4115625 410.00793945 347.59558594 410.95411133 346.75488281 411.92895508 C338.29915659 421.5031636 329.32987366 430.23638404 319.22753906 438.06176758 C318.69064453 438.48039062 318.15375 438.89901367 317.60058594 439.33032227 C275.94170592 471.59084417 225.82092016 487.67655774 174.22753906 495.06176758 C173.47730469 495.17447998 172.72707031 495.28719238 171.95410156 495.40332031 C121.34078261 502.12238329 65.47152929 488.54450609 20.22753906 466.06176758 C19.43879395 465.67553223 18.65004883 465.28929687 17.83740234 464.89135742 C-4.47464449 453.88624326 -24.39135939 439.60580271 -42.34423828 422.42700195 C-43.62008669 421.20742173 -44.90835656 420.00086668 -46.19824219 418.79614258 C-89.05071121 377.69430729 -108.12375692 314.56268336 -109.34228516 256.59155273 C-109.37908544 255.2377581 -109.43380156 253.88433269 -109.50634766 252.53198242 C-109.92171127 244.60944788 -109.64656353 239.2220409 -104.51464844 232.93676758 C-102.95212415 231.294255 -101.37138341 229.66886952 -99.77246094 228.06176758 C-98.25390215 226.24377684 -96.75146711 224.41207887 -95.27246094 222.56176758 C-92.97687204 219.7105326 -90.67036181 216.95246325 -88.17089844 214.27661133 C-87.33816406 213.36008789 -86.50542969 212.44356445 -85.64746094 211.49926758 C-84.88175781 210.69360352 -84.11605469 209.88793945 -83.32714844 209.05786133 C-81.00088294 204.57483209 -81.93269713 200.91419366 -82.77246094 196.06176758 C-82.88686523 195.31596436 -83.00126953 194.57016113 -83.11914062 193.80175781 C-83.34651906 192.33220112 -83.58231984 190.8639263 -83.82592773 189.39697266 C-93.5455207 130.29467975 -92.49697506 43.85509945 -59.28417969 -8.27416992 C-44.24799019 -27.31223931 -16.10674439 -8.47110872 0 0 Z M-47.77246094 17.06176758 C-54.05122774 36.74522175 -59.61783682 56.21881277 -62.95996094 76.62426758 C-63.1149707 77.56794189 -63.26998047 78.51161621 -63.4296875 79.48388672 C-66.20182428 97.38349536 -67.14101478 115.08855801 -67.08496094 133.18676758 C-67.0847998 134.25506805 -67.08463867 135.32336853 -67.08447266 136.42404175 C-67.06763892 152.48237429 -66.48690331 168.2010498 -63.77246094 184.06176758 C-60.44668792 182.65075113 -58.65991351 181.03604068 -56.42480469 178.21801758 C-55.81958984 177.46649414 -55.214375 176.7149707 -54.59082031 175.94067383 C-53.97013672 175.15563477 -53.34945312 174.3705957 -52.70996094 173.56176758 C-51.47280752 172.00670786 -50.23206569 170.45449445 -48.98730469 168.90551758 C-48.44195068 168.21651367 -47.89659668 167.52750977 -47.3347168 166.81762695 C-44.82879921 164.00116199 -43.15283895 163.1040318 -39.39746094 162.68676758 C-35.77246094 163.06176758 -35.77246094 163.06176758 -32.83496094 164.49926758 C-30.24154128 167.72139504 -29.97725536 169.65310166 -30.24121094 173.71801758 C-31.22727517 178.06830094 -33.86268611 180.7882709 -36.77246094 184.06176758 C-38.07325769 185.60546003 -39.37389088 187.14929355 -40.67163086 188.69555664 C-42.10052777 190.39275739 -43.53906482 192.0813786 -44.97949219 193.76879883 C-47.44883287 196.66920068 -49.86920205 199.60623376 -52.27246094 202.56176758 C-55.51259663 206.54563548 -58.81367895 210.46914736 -62.14746094 214.37426758 C-66.46842639 219.44473429 -70.65005804 224.60778321 -74.69311523 229.90307617 C-76.90259196 232.77806754 -79.13990438 235.50111069 -81.68652344 238.08520508 C-86.52968252 243.08548477 -89.40630675 246.88343862 -89.52246094 254.06176758 C-89.37908611 256.02520625 -89.23258079 257.98942899 -89.01074219 259.94555664 C-88.7617332 262.15704223 -88.59040195 264.36571395 -88.42871094 266.58520508 C-88.01881946 271.7628652 -87.42072629 276.9090512 -86.77246094 282.06176758 C-86.65418945 283.01873535 -86.53591797 283.97570312 -86.4140625 284.96166992 C-82.945812 311.95313088 -75.35075579 338.37315243 -61.77246094 362.06176758 C-56.20845093 361.68240326 -51.85415487 359.93410041 -46.76074219 357.73364258 C-41.40295217 355.45324307 -35.96281856 353.38538192 -30.52246094 351.31176758 C-29.49258057 350.91086914 -28.4627002 350.5099707 -27.40161133 350.09692383 C-21.7926692 347.97106719 -16.76339038 346.49173859 -10.77246094 346.06176758 C-10.89105469 345.39790039 -11.00964844 344.7340332 -11.13183594 344.05004883 C-11.32519531 342.72553711 -11.32519531 342.72553711 -11.52246094 341.37426758 C-11.73128906 340.0690918 -11.73128906 340.0690918 -11.94433594 338.73754883 C-11.70340198 334.98664513 -10.47585124 333.62562806 -7.77246094 331.06176758 C-4.80371094 329.83911133 -4.80371094 329.83911133 -1.27246094 328.99926758 C-0.63244141 328.84425781 0.00757812 328.68924805 0.66699219 328.52954102 C2.84865816 328.01359252 5.0361301 327.53457787 7.22753906 327.06176758 C8.48630859 326.78453857 8.48630859 326.78453857 9.77050781 326.50170898 C12.42003204 325.92396007 15.07246747 325.36343572 17.72753906 324.81176758 C18.56349609 324.63637451 19.39945312 324.46098145 20.26074219 324.28027344 C31.39588561 322.06686231 31.39588561 322.06686231 36.54003906 323.87426758 C38.22753906 325.06176758 38.22753906 325.06176758 40.22753906 328.06176758 C40.95481179 333.69813121 40.95481179 333.69813121 40.22753906 336.06176758 C35.97379404 340.22867663 32.40191166 341.98742927 26.52050781 343.08129883 C25.79567703 343.22959641 25.07084625 343.37789398 24.3240509 343.53068542 C22.79871797 343.83894232 21.27160079 344.13848712 19.74291992 344.4296875 C17.42785289 344.87182039 15.11997102 345.34226431 12.81152344 345.81762695 C5.57756527 347.27262401 -1.35923079 348.49286762 -8.77246094 348.06176758 C-8.97355469 349.04532227 -9.17464844 350.02887695 -9.38183594 351.04223633 C-10.80128336 355.97197228 -13.81958859 359.45459284 -17.02246094 363.37426758 C-18.28165146 364.95623838 -19.54076363 366.53827157 -20.79980469 368.12036133 C-21.45062012 368.92973145 -22.10143555 369.73910156 -22.77197266 370.57299805 C-26.06857337 374.67423647 -29.33149943 378.80127722 -32.58496094 382.93676758 C-33.49133301 384.06852417 -33.49133301 384.06852417 -34.41601562 385.22314453 C-34.97321289 385.93043701 -35.53041016 386.63772949 -36.10449219 387.36645508 C-36.84276245 388.29433838 -36.84276245 388.29433838 -37.59594727 389.2409668 C-38.89947243 391.25833361 -39.55231602 392.664535 -39.77246094 395.06176758 C-38.87173694 396.77589828 -38.87173694 396.77589828 -37.33496094 398.27661133 C-36.77760254 398.87376953 -36.22024414 399.47092773 -35.64599609 400.08618164 C-35.02772949 400.7175 -34.40946289 401.34881836 -33.77246094 401.99926758 C-33.13743652 402.66023438 -32.50241211 403.32120117 -31.84814453 404.00219727 C11.84875026 448.80357799 79.22207326 475.20421129 141.55004883 476.36694336 C169.70627167 476.44220725 198.51618536 472.08774132 225.22753906 463.06176758 C226.516521 462.64072754 226.516521 462.64072754 227.83154297 462.21118164 C268.26208816 448.9885254 306.57970095 428.13893946 334.22753906 395.06176758 C332.62721057 389.84018296 329.33013181 386.0723756 325.97753906 381.87426758 C325.36434814 381.09341797 324.75115723 380.31256836 324.11938477 379.50805664 C320.84867325 375.34571113 317.5447007 371.21133902 314.22363281 367.08911133 C313.58522461 366.28820068 312.94681641 365.48729004 312.2890625 364.66210938 C311.06397802 363.1256466 309.82929813 361.59677314 308.58398438 360.07666016 C305.43871534 356.1196061 303.46656149 353.3037766 303.22753906 348.06176758 C302.62345215 348.09947266 302.01936523 348.13717773 301.39697266 348.17602539 C293.32562753 348.44710581 285.82427381 347.0471315 278.00048828 345.29077148 C275.83893754 344.80873437 273.67274174 344.35432708 271.50488281 343.90161133 C270.11259751 343.59725584 268.72065602 343.29132234 267.32910156 342.98364258 C266.08467285 342.71132813 264.84024414 342.43901367 263.55810547 342.15844727 C260.00919543 340.98987199 257.92692926 339.61620319 255.22753906 337.06176758 C253.65818312 333.9230557 253.87552803 331.52320936 254.22753906 328.06176758 C256.16503906 325.12426758 256.16503906 325.12426758 259.22753906 323.06176758 C267.02623088 322.35503681 274.32900345 324.13310962 281.87646484 325.88769531 C283.9840617 326.37577811 286.095456 326.84370243 288.20800781 327.30981445 C289.56374719 327.61787064 290.91922619 327.92707546 292.27441406 328.23754883 C293.48967773 328.5151001 294.70494141 328.79265137 295.95703125 329.07861328 C300.71279382 330.50825316 303.45565113 331.90393568 306.22753906 336.06176758 C306.45595837 339.64033675 306.15618024 342.62208066 305.22753906 346.06176758 C305.76016357 346.1365332 306.29278809 346.21129883 306.84155273 346.28833008 C315.46739943 347.74065462 323.41874877 350.93473591 331.54003906 354.06176758 C332.99354646 354.6145578 334.447321 355.16664614 335.90136719 355.71801758 C346.14738782 359.61156266 346.14738782 359.61156266 350.01513672 361.22363281 C352.22992782 362.18689191 352.22992782 362.18689191 354.76269531 362.22192383 C358.86558102 360.2907716 359.91665921 356.517406 361.66503906 352.49926758 C362.05409424 351.63519287 362.44314941 350.77111816 362.84399414 349.88085938 C363.99810992 347.284994 365.11847575 344.67715538 366.22753906 342.06176758 C366.52337891 341.37566406 366.81921875 340.68956055 367.12402344 339.98266602 C372.30583286 327.79349445 375.31178389 314.94785521 378.22753906 302.06176758 C378.41171387 301.25860107 378.59588867 300.45543457 378.78564453 299.62792969 C380.37164689 292.27471473 381.11407371 284.85311311 381.85253906 277.37426758 C381.98660156 276.11420898 382.12066406 274.85415039 382.25878906 273.5559082 C384.79836437 257.78809069 384.79836437 257.78809069 381.13769531 243.13989258 C379.78925724 241.66062954 379.78925724 241.66062954 378.29003906 240.31176758 C377.26935269 239.24516344 376.2498375 238.17743742 375.23144531 237.10864258 C374.46598389 236.34197266 374.46598389 236.34197266 373.68505859 235.55981445 C371.53849243 233.35356153 369.6438271 230.96843059 367.72753906 228.56176758 C364.42129833 224.49846277 361.05937478 220.48877449 357.66503906 216.49926758 C353.79562008 211.94951119 350.02675104 207.33659091 346.32128906 202.65161133 C344.30779988 200.16104541 342.24431013 197.72464394 340.15844727 195.29492188 C324.80619388 177.37042607 324.80619388 177.37042607 324.47753906 171.62426758 C325.22753906 168.06176758 325.22753906 168.06176758 326.66503906 165.56176758 C330.49989594 163.31697331 333.89828262 163.19278482 338.22753906 164.06176758 C340.4369815 165.7188494 341.56373623 166.93947362 343.22753906 169.06176758 C344.72190791 170.71271552 346.22247962 172.35805966 347.72753906 173.99926758 C350.28568155 176.85159645 352.80329467 179.71988708 355.22753906 182.68676758 C355.88753906 183.47051758 356.54753906 184.25426758 357.22753906 185.06176758 C357.55753906 185.06176758 357.88753906 185.06176758 358.22753906 185.06176758 C360.80751463 168.00603644 361.75691713 151.30052128 361.66503906 134.06176758 C361.66097549 132.26474899 361.66097549 132.26474899 361.65682983 130.431427 C361.56508527 103.59982574 358.95817141 78.09731442 352.22753906 52.06176758 C351.72307121 50.05018959 351.21918396 48.03846591 350.71582031 46.02661133 C348.2411527 36.24793419 345.6940723 26.54375556 342.22753906 17.06176758 C338.86305452 18.54183561 336.48750261 20.45309962 333.79003906 22.93676758 C332.48292969 24.1375293 332.48292969 24.1375293 331.14941406 25.36254883 C330.18519531 26.25329102 329.22097656 27.1440332 328.22753906 28.06176758 C327.12944464 29.05621195 326.03045664 30.04967033 324.93066406 31.04223633 C323.80019248 32.0692904 322.66998107 33.09663091 321.54003906 34.12426758 C321.01804932 34.59396973 320.49605957 35.06367187 319.95825195 35.54760742 C315.70846852 39.44040637 311.96490009 43.68055998 308.22753906 48.06176758 C307.43174438 48.97454468 307.43174438 48.97454468 306.61987305 49.90576172 C295.97127936 62.15123205 286.86202895 75.33426892 278.22753906 89.06176758 C277.54675293 90.1373291 276.8659668 91.21289062 276.16455078 92.32104492 C275.51373535 93.38403809 274.86291992 94.44703125 274.19238281 95.54223633 C273.5993335 96.50411865 273.00628418 97.46600098 272.39526367 98.45703125 C271.05638658 100.92062788 271.05638658 100.92062788 271.32617188 103.2565918 C272.45489877 105.5171028 273.50036365 106.21367433 275.68457031 107.46411133 C276.38517578 107.87983398 277.08578125 108.29555664 277.80761719 108.72387695 C278.54431641 109.14475586 279.28101563 109.56563477 280.04003906 109.99926758 C289.17972826 115.25560439 289.17972826 115.25560439 292.22753906 120.06176758 C292.93417316 124.45860197 292.74684141 126.29904225 290.22753906 129.99926758 C287.08620943 132.1589317 285.26797921 132.60092181 281.49365234 132.4921875 C276.9578511 131.63066869 273.41917629 128.81165496 269.66503906 126.24926758 C258.64697063 119.09110708 247.24306726 113.35000608 235.22753906 108.06176758 C234.43782715 107.71388184 233.64811523 107.36599609 232.83447266 107.00756836 C220.35890455 101.61528746 207.47251451 98.02857705 194.22753906 95.06176758 C193.14633789 94.81620117 192.06513672 94.57063477 190.95117188 94.31762695 C154.32868321 86.27828539 116.89278173 88.50045654 81.22753906 100.06176758 C80.48552246 100.29025391 79.74350586 100.51874023 78.97900391 100.75415039 C58.71161131 107.02224126 38.66742404 116.05635361 21.40112305 128.45507812 C16.88846796 131.56501573 13.6558304 132.61806073 8.15209961 132.44555664 C6.22753906 132.06176758 6.22753906 132.06176758 3.66503906 129.99926758 C1.86275007 126.31632921 1.64796138 124.11881133 2.22753906 120.06176758 C5.41851943 114.99818557 10.00598386 112.33690841 14.97753906 109.24926758 C16.16669922 108.49613281 16.16669922 108.49613281 17.37988281 107.7277832 C19.32431356 106.49787219 21.27343648 105.27623022 23.22753906 104.06176758 C22.70793322 98.88608587 20.11192285 95.11984283 17.41503906 90.81176758 C16.92729004 90.02471436 16.43954102 89.23766113 15.93701172 88.42675781 C5.72904664 72.13983741 -5.80373129 57.24431921 -18.77246094 43.06176758 C-20.08923828 41.58836914 -20.08923828 41.58836914 -21.43261719 40.08520508 C-27.20572201 33.64954587 -33.20116286 27.70088501 -39.77246094 22.06176758 C-40.39507812 21.51262695 -41.01769531 20.96348633 -41.65917969 20.39770508 C-44.32979122 17.83373298 -44.32979122 17.83373298 -47.77246094 17.06176758 Z " fill="#010101" transform="translate(108.7724609375,15.938232421875)"/>
<path d="M0 0 C1.8881543 -0.01740234 1.8881543 -0.01740234 3.81445312 -0.03515625 C14.82839448 -0.00103976 28.97836107 0.75489605 37.4609375 8.82421875 C42.24289502 14.31103128 43.39656394 18.41619865 43.25390625 25.55859375 C42.36816322 33.44280026 37.26776165 39.64665231 31.30078125 44.53515625 C14.5596828 57.375 14.5596828 57.375 9.9375 57.375 C10.59833305 62.66166436 12.20512234 65.02126762 16.3125 68.4375 C28.83357291 77.73372104 42.28954755 82.73413644 57.9375 81.375 C63.58988622 80.45934865 69.26558561 79.50588478 74.55859375 77.265625 C78.43676864 75.81369746 81.98543996 76.33342904 85.9375 77.375 C88.38993461 79.27563682 89.56677427 80.63354855 90.9375 83.375 C91.35383486 88.05876714 90.79256619 90.6288622 87.9375 94.375 C85.30078125 95.39453125 85.30078125 95.39453125 82.25 96.1875 C76.11897065 98.49956287 74.20934643 101.41470104 71.625 107.125 C70.68633648 109.24357458 69.75704474 111.36603154 68.83007812 113.48974609 C66.86794929 117.63404557 63.98630349 120.99449798 60.9375 124.375 C60.4425 124.96152344 59.9475 125.54804688 59.4375 126.15234375 C47.01956132 139.84312114 27.0296601 147.29406852 8.87304688 148.59448242 C-4.92140455 149.08788024 -17.96112359 149.01602184 -31.0625 144.375 C-32.12082031 144.01277344 -33.17914063 143.65054688 -34.26953125 143.27734375 C-52.97106964 136.19524641 -67.17846757 122.37138115 -75.5 104.3125 C-77.0625 100.69717573 -77.0625 100.69717573 -77.0625 98.375 C-77.65417969 98.21644531 -78.24585938 98.05789063 -78.85546875 97.89453125 C-84.05339504 96.35974388 -87.86774068 95.01255385 -91.0625 90.375 C-91.70057452 87.56633269 -91.69250005 85.18445967 -91.0625 82.375 C-89.26886089 79.5649654 -88.04369065 77.86559532 -85.0625 76.375 C-79.44729979 75.98193599 -75.2664023 77.09101213 -70.0625 78.875 C-55.0864823 83.60340703 -41.00964841 82.00120304 -26.875 75.1875 C-20.90199228 72.04869107 -15.37107714 68.65407347 -11.0625 63.375 C-9.86369245 60.08560456 -9.86369245 60.08560456 -10.0625 57.375 C-10.78050781 57.10816406 -11.49851562 56.84132813 -12.23828125 56.56640625 C-24.45965602 51.41077789 -37.04358373 41.41283254 -43.0625 29.375 C-43.7884275 22.63424466 -43.89489463 16.700887 -39.71875 11.12109375 C-29.3057478 0.1432353 -14.27523488 -0.13197444 0 0 Z " fill="#020101" transform="translate(256.0625,290.625)"/>
<path d="M0 0 C4.852687 15.09523879 9.25380925 30.14016529 12.50341797 45.66503906 C12.97534446 47.88406805 13.485592 50.0912908 14 52.30078125 C18.71879836 73.69344199 19.40619555 95.17343562 19.4375 117 C19.44635223 118.7356723 19.44635223 118.7356723 19.4553833 120.50640869 C19.51078863 136.55377954 18.40049027 152.13081221 16 168 C12.29786205 165.11373696 9.36930692 162.23873093 6.4375 158.5625 C5.69371094 157.63566406 4.94992187 156.70882812 4.18359375 155.75390625 C2.72678601 153.91660847 1.28143479 152.0701688 -0.15234375 150.21484375 C-1.80876083 147.92881034 -1.80876083 147.92881034 -4 147 C-5.47765166 146.92990267 -6.95834814 146.91564061 -8.4375 146.9375 C-9.21996094 146.94652344 -10.00242187 146.95554688 -10.80859375 146.96484375 C-11.53175781 146.97644531 -12.25492187 146.98804688 -13 147 C-13.99 147 -14.98 147 -16 147 C-18.03188596 144.85820208 -19.89358162 142.72300842 -21.75 140.4375 C-22.83535986 139.13905144 -23.92258218 137.84215729 -25.01171875 136.546875 C-25.53169434 135.92619141 -26.05166992 135.30550781 -26.58740234 134.66601562 C-31.58367135 128.77342321 -37.31053172 124.00568113 -43.3515625 119.2109375 C-46.06581292 116.94505883 -48.53685332 114.53428449 -51 112 C-50.67 111.34 -50.34 110.68 -50 110 C-49.6473081 106.26146586 -49.45781284 103.87152631 -51.47265625 100.6328125 C-54.84316937 97.12164427 -58.6321943 94.74491001 -62.75 92.1875 C-63.54277344 91.68541016 -64.33554687 91.18332031 -65.15234375 90.66601562 C-67.0967745 89.43610461 -69.04589742 88.21446265 -71 87 C-66.21419103 65.28934622 -44.55038001 43.00780876 -29.97265625 27.16015625 C-28.11526426 25.12622007 -26.33811247 23.04269251 -24.5625 20.9375 C-20.42998872 16.19417874 -15.72220766 12.14090247 -11 8 C-10.15179688 7.22527344 -9.30359375 6.45054688 -8.4296875 5.65234375 C-7.22699219 4.55599609 -7.22699219 4.55599609 -6 3.4375 C-5.278125 2.77621094 -4.55625 2.11492188 -3.8125 1.43359375 C-2 0 -2 0 0 0 Z " fill="#ED7777" transform="translate(451,33)"/>
<path d="M0 0 C4.73295436 2.29421135 8.12171357 5.47149573 12 9 C12.49242188 9.4419873 12.98484375 9.88397461 13.4921875 10.33935547 C20.7728625 16.87642495 27.62232532 23.56124109 34 31 C34.84949219 31.96164063 35.69898438 32.92328125 36.57421875 33.9140625 C48.25107902 47.25303442 57.92841306 61.93479614 66.91064453 77.18945312 C67.84727393 78.74616393 68.85305937 80.26088942 69.87109375 81.765625 C71 84 71 84 70.78662109 85.98950195 C69.80139227 88.50761474 68.86802613 89.0712711 66.54296875 90.40234375 C65.49206055 91.02592773 65.49206055 91.02592773 64.41992188 91.66210938 C63.68322266 92.08298828 62.94652344 92.50386719 62.1875 92.9375 C55.18469527 96.91804696 55.18469527 96.91804696 50 103 C49.67329685 106.7897565 49.79809099 109.39427296 51 113 C50.37996094 113.48726563 49.75992188 113.97453125 49.12109375 114.4765625 C36.94841051 124.22179654 25.40965961 134.50478805 16 147 C15.40960938 146.84273437 14.81921875 146.68546875 14.2109375 146.5234375 C10.9524961 145.75200438 8.34368103 145.65410196 5 146 C-0.88956779 149.75929859 -4.76777637 155.5286511 -9 161 C-10.61876992 163.06729559 -12.24750531 165.04132946 -14 167 C-14.66 167 -15.32 167 -16 167 C-21.35346161 135.71926822 -21.76528747 101.01474804 -16.44873047 69.71630859 C-15.97081692 66.82334552 -15.5763873 63.9262548 -15.19140625 61.01953125 C-12.31561088 40.1897571 -6.8600097 19.86164378 0 0 Z " fill="#ED7777" transform="translate(61,33)"/>
<path d="M0 0 C3.38546064 1.47492981 5.6511499 3.39565785 8.3125 5.9375 C48.50513161 42.60960914 103.86822262 61.31322021 157 68 C158.02480469 68.13277344 159.04960937 68.26554687 160.10546875 68.40234375 C223.70585139 75.10195116 295.07828372 53.24943113 345.4609375 14.3828125 C348.02606545 12.30628035 350.52871671 10.18693936 353 8 C353.87527344 7.23300781 354.75054687 6.46601563 355.65234375 5.67578125 C357.78048473 3.79685246 359.89636027 1.90626118 362 0 C365.99996286 1.33332095 366.83782337 3.4957827 369 7 C367.39673792 10.82246665 364.85233699 13.62968746 362.0625 16.625 C361.56943359 17.15496582 361.07636719 17.68493164 360.56835938 18.23095703 C333.78631579 46.6762167 299.44693927 63.50535184 263 76 C262.26458984 76.25910156 261.52917969 76.51820313 260.77148438 76.78515625 C242.70230922 83.14114751 223.06304853 87.20774757 204 89 C202.93394531 89.10957031 201.86789062 89.21914063 200.76953125 89.33203125 C145.05271827 94.2309304 83.13309229 77.69963944 37 46 C36.45537109 45.62907227 35.91074219 45.25814453 35.34960938 44.87597656 C28.23776722 40.01059833 21.53853408 34.96470688 15.2265625 29.07421875 C13.20047504 27.18675832 11.12103095 25.40379289 9 23.625 C3.88272651 19.18933056 -0.52684158 14.06896845 -5 9 C-3.68753462 5.55905814 -2.33411133 2.86459118 0 0 Z " fill="#ADADAD" transform="translate(74,402)"/>
<path d="M0 0 C4.852687 15.09523879 9.25380925 30.14016529 12.50341797 45.66503906 C12.97534446 47.88406805 13.485592 50.0912908 14 52.30078125 C18.71879836 73.69344199 19.40619555 95.17343562 19.4375 117 C19.44340149 118.15711487 19.44930298 119.31422974 19.4553833 120.50640869 C19.51078863 136.55377954 18.40049027 152.13081221 16 168 C12.29786205 165.11373696 9.36930692 162.23873093 6.4375 158.5625 C5.69371094 157.63566406 4.94992187 156.70882812 4.18359375 155.75390625 C2.77103061 153.97240891 1.38593485 152.16863148 0.03515625 150.33984375 C-1.81995036 147.836511 -1.81995036 147.836511 -4.58520508 147.01171875 C-7 145 -7 145 -7.47093201 142.93739319 C-7.66256711 140.10606199 -7.69163228 137.31051342 -7.671875 134.47265625 C-7.68462463 133.41453232 -7.69737427 132.35640839 -7.71051025 131.26622009 C-7.74689318 127.86471317 -7.74951821 124.46418416 -7.75 121.0625 C-7.77897551 116.63665123 -7.81974569 112.210921 -7.859375 107.78515625 C-7.8676532 106.69547546 -7.8759314 105.60579468 -7.88446045 104.48309326 C-8.01896213 89.18632311 -8.75129756 74.22726855 -11.25 59.125 C-11.46975553 57.75156388 -11.6893988 56.37810978 -11.90893555 55.00463867 C-13.40696618 45.79995767 -15.23308652 36.68946916 -17.47558594 27.63525391 C-19.62517416 18.91747943 -19.62517416 18.91747943 -19 16 C-17.15875853 13.76525557 -15.41178931 11.89404749 -13.3125 9.9375 C-12.51682617 9.1630957 -12.51682617 9.1630957 -11.70507812 8.37304688 C-3.0120422 0 -3.0120422 0 0 0 Z " fill="#C7C6C6" transform="translate(451,33)"/>
<path d="M0 0 C3.90845161 1.88043838 6.70252454 4.23182703 9.890625 7.15625 C11.92961891 9.01906155 11.92961891 9.01906155 14.109375 10.40625 C16.17565628 11.82785152 17.5341104 12.96055966 19 15 C19.44187126 22.02156535 17.39614345 29.17679611 15.6875 35.9375 C13.56051362 44.79709691 12.01930566 53.66617134 10.75 62.6875 C10.58717529 63.84435303 10.42435059 65.00120605 10.2565918 66.19311523 C8.68893114 77.72287225 7.87405604 88.98174451 7.89453125 100.62109375 C7.88109408 103.21029489 7.86607444 105.79948822 7.84960938 108.38867188 C7.82523324 112.4333409 7.80972042 116.47748389 7.82495117 120.5222168 C7.83882507 124.45140658 7.80499949 128.37952942 7.76953125 132.30859375 C7.78176224 133.52212021 7.79399323 134.73564667 7.80659485 135.98594666 C7.76129397 139.10601142 7.67322454 141.95302837 7 145 C4.13012695 147.60205078 4.13012695 147.60205078 1 149 C-0.61986378 150.50008183 -0.61986378 150.50008183 -1.8515625 152.05859375 C-2.31046875 152.60966797 -2.769375 153.16074219 -3.2421875 153.72851562 C-3.69851562 154.29248047 -4.15484375 154.85644531 -4.625 155.4375 C-5.0890625 155.99759766 -5.553125 156.55769531 -6.03125 157.13476562 C-8.1440719 159.69223508 -10.20356142 162.26793861 -12.2109375 164.91015625 C-12.80132812 165.59980469 -13.39171875 166.28945312 -14 167 C-14.66 167 -15.32 167 -16 167 C-21.35346161 135.71926822 -21.76528747 101.01474804 -16.44873047 69.71630859 C-15.97081692 66.82334552 -15.5763873 63.9262548 -15.19140625 61.01953125 C-12.31561088 40.1897571 -6.8600097 19.86164378 0 0 Z " fill="#C7C7C7" transform="translate(61,33)"/>
<path d="M0 0 C2.44961798 1.36687147 4.426171 2.81969759 6.5546875 4.640625 C19.33745599 14.80345417 34.55279293 18.57444211 50.4921875 20.390625 C45.26920701 31.5488106 35.4926489 37.64502284 24.4921875 42.390625 C23.73550781 42.73222656 22.97882813 43.07382812 22.19921875 43.42578125 C5.04018253 49.54162821 -15.9256482 48.08302252 -32.57421875 41.10546875 C-41.25994746 36.76864454 -48.78356083 30.22724288 -54.5078125 22.390625 C-54.5078125 21.730625 -54.5078125 21.070625 -54.5078125 20.390625 C-53.38246094 20.23207031 -52.25710937 20.07351563 -51.09765625 19.91015625 C-33.33832181 17.26999227 -18.24267886 12.78975418 -4.61328125 0.515625 C-2.5078125 -0.609375 -2.5078125 -0.609375 0 0 Z " fill="#A80C18" transform="translate(257.5078125,372.609375)"/>
<path d="M0 0 C0.1344938 9.98446866 -0.21494111 19.79001686 -1.05859375 29.74609375 C-1.16877941 31.09550634 -1.27847412 32.44495909 -1.38771057 33.79444885 C-1.615241 36.59041454 -1.84661842 39.38602198 -2.08129883 42.18139648 C-2.38030971 45.74341484 -2.67245787 49.30595266 -2.96211147 52.86874294 C-3.24194625 56.30721848 -3.52513198 59.74541564 -3.80859375 63.18359375 C-3.91280136 64.45142197 -4.01700897 65.71925018 -4.12437439 67.02549744 C-5.57189925 84.27898821 -5.57189925 84.27898821 -7.1875 87 C-10.04305427 88.57547822 -11.80444894 88.58693795 -15 88 C-19.55473527 82.47617212 -21.92136237 75.5967832 -24.6875 69.0625 C-25.53056454 67.08857793 -26.37572492 65.11556184 -27.22105408 63.14260864 C-27.82626735 61.72987068 -28.4307935 60.31683817 -29.03468323 58.90353394 C-31.53452313 53.06048232 -34.07795342 47.23714584 -36.6328125 41.41796875 C-37.41707416 39.62947617 -38.20133523 37.84098333 -38.9855957 36.05249023 C-40.14732154 33.40378936 -41.31005379 30.75555365 -42.47592163 28.1086731 C-43.56668638 25.63117791 -44.65293324 23.15174691 -45.73828125 20.671875 C-46.06889557 19.92427414 -46.39950989 19.17667328 -46.74014282 18.40641785 C-49 13.22755627 -49 13.22755627 -49 11 C-49.66 10.67 -50.32 10.34 -51 10 C-42.1496616 7.16599182 -33.23032959 5.13037083 -24.125 3.3125 C-23.05580322 3.09827393 -21.98660645 2.88404785 -20.88500977 2.66333008 C-13.92828458 1.30066137 -7.11051229 0 0 0 Z " fill="#909090" transform="translate(237,107)"/>
<path d="M0 0 C17.46445664 1.58578101 34.23237047 4.85756223 51 10 C50.34 10.33 49.68 10.66 49 11 C48.23403158 12.79398511 48.23403158 12.79398511 47.63110352 14.97021484 C46.05257986 19.97486847 44.04854753 24.6925054 41.90234375 29.4765625 C41.51148087 30.35722885 41.12061798 31.2378952 40.71791077 32.14524841 C39.46172453 34.97360901 38.19986573 37.79939273 36.9375 40.625 C35.21590086 44.49019784 33.49646162 48.35635429 31.77734375 52.22265625 C31.35875092 53.16300217 30.94015808 54.10334808 30.50888062 55.07218933 C28.17553293 60.32220718 25.8766694 65.5838624 23.62890625 70.87109375 C22.94163452 72.48540283 22.94163452 72.48540283 22.24047852 74.13232422 C21.43796818 76.02796072 20.64240313 77.92655898 19.85522461 79.82861328 C19.51112549 80.63927246 19.16702637 81.44993164 18.8125 82.28515625 C18.53019531 82.96457275 18.24789063 83.64398926 17.95703125 84.34399414 C17 86 17 86 14 88 C11.27061033 88.34117371 9.6984103 88.47893423 7.39648438 86.90039062 C5.34630994 84.11043297 5.41046559 81.7158649 5.15625 78.28125 C5.10197342 77.60342468 5.04769684 76.92559937 4.99177551 76.22723389 C4.81508719 73.98560272 4.65751777 71.74305306 4.5 69.5 C4.38051326 67.9331637 4.25964328 66.36643233 4.13745117 64.79980469 C3.94750707 62.35807769 3.75895608 59.91630119 3.57572937 57.47406006 C3.14818594 51.78502967 2.66463837 46.10314687 2.14453125 40.421875 C2.00386035 38.8678427 1.86323478 37.31380629 1.72265625 35.75976562 C1.52136628 33.53772427 1.31867794 31.31587567 1.11035156 29.09448242 C0.20259652 19.36321293 -0.16632947 9.76855603 0 0 Z " fill="#909090" transform="translate(275,107)"/>
<path d="M0 0 C3.34906851 2.58356714 4.13148427 4.30783782 4.75 8.5 C4.59625568 12.11896827 4.17277439 12.70540263 1.70703125 15.703125 C-3.72017363 20.05767822 -10.70619949 20.92743961 -17.37255859 22.18579102 C-19.68042371 22.62365743 -21.97814776 23.09897099 -24.27734375 23.58007812 C-31.65409712 25.07107301 -38.32451523 26.19703679 -45.8125 24.6875 C-45.70164063 25.53183594 -45.59078125 26.37617188 -45.4765625 27.24609375 C-45.94193887 32.01349587 -48.12078865 34.21640373 -51.1875 37.75 C-52.29668259 39.07980438 -53.40473759 40.41055001 -54.51171875 41.7421875 C-55.06907715 42.40444336 -55.62643555 43.06669922 -56.20068359 43.74902344 C-58.54362306 46.56679674 -60.77858596 49.4610588 -63 52.375 C-63.79535156 53.41398437 -64.59070313 54.45296875 -65.41015625 55.5234375 C-69.23460017 60.56050999 -73.03100437 65.61810368 -76.8125 70.6875 C-80.56118336 67.11891353 -83.70459687 63.36150152 -86.6875 59.125 C-87.11659668 58.52091309 -87.54569336 57.91682617 -87.98779297 57.29443359 C-91.95846596 51.62648673 -95.46247038 45.74417606 -98.8125 39.6875 C-95.09788455 37.2110897 -91.23847596 35.89857615 -87.05859375 34.36865234 C-82.58498666 32.72538658 -78.13452803 31.03745481 -73.69921875 29.29296875 C-72.64371826 28.88312744 -71.58821777 28.47328613 -70.50073242 28.05102539 C-68.40969325 27.23872416 -66.32243225 26.41661448 -64.23950195 25.58374023 C-58.47523928 23.36547195 -53.99253528 22.2019258 -47.8125 22.6875 C-48.3075 21.883125 -48.3075 21.883125 -48.8125 21.0625 C-50.12323605 17.94950189 -50.28270737 16.04612409 -49.8125 12.6875 C-47.74273052 8.54796104 -46.17612279 7.20424127 -41.84375 5.5625 C-37.85529059 4.45266782 -33.86235751 3.53910956 -29.8125 2.6875 C-28.97477051 2.50413086 -28.13704102 2.32076172 -27.27392578 2.13183594 C-24.62281064 1.55335743 -21.96889754 0.99119202 -19.3125 0.4375 C-18.4764624 0.26202637 -17.6404248 0.08655273 -16.77905273 -0.09423828 C-5.15234434 -2.40442736 -5.15234434 -2.40442736 0 0 Z " fill="#919191" transform="translate(145.8125,339.3125)"/>
<path d="M0 0 C2.10759685 0.48808279 4.21899116 0.95600712 6.33154297 1.42211914 C7.68728235 1.73017532 9.04276135 2.03938014 10.39794922 2.34985352 C11.61321289 2.62740479 12.82847656 2.90495605 14.08056641 3.19091797 C18.94409649 4.65295407 22.8720493 6.60744741 25.35107422 11.17407227 C25.76439982 15.14199806 25.44786237 17.76679152 23.35107422 21.17407227 C24.34059082 21.11759521 25.33010742 21.06111816 26.34960938 21.00292969 C30.75112434 21.01031316 34.31505506 22.32064236 38.37451172 23.91235352 C39.49292953 24.33450386 39.49292953 24.33450386 40.63394165 24.7651825 C43.00224936 25.66154537 45.36418315 26.57345262 47.72607422 27.48657227 C50.07768293 28.38388393 52.43051138 29.2779363 54.7835083 30.17160034 C56.28756758 30.7430913 57.79111931 31.31592003 59.29412842 31.89016724 C64.27320279 33.7872913 69.27284719 35.55721147 74.35107422 37.17407227 C71.37252886 43.95403676 67.60324123 49.94753519 63.35107422 55.98657227 C62.84092773 56.71545654 62.33078125 57.44434082 61.80517578 58.1953125 C58.92517723 62.2274032 55.97029083 65.78770967 52.35107422 69.17407227 C36.76605811 49.16755939 36.76605811 49.16755939 30.55029297 41.01000977 C29.12817175 39.17615541 27.67403221 37.36650144 26.18310547 35.58813477 C21.4386533 29.88721619 21.4386533 29.88721619 20.91357422 25.61157227 C21.05794922 24.80719727 21.20232422 24.00282227 21.35107422 23.17407227 C20.57763672 23.42157227 20.57763672 23.42157227 19.78857422 23.67407227 C11.91062031 25.29006281 4.17169152 23.12823157 -3.51928711 21.45800781 C-5.70561505 20.98782191 -7.89634887 20.54453434 -10.08837891 20.10180664 C-11.49563127 19.80070961 -12.90254565 19.49802763 -14.30908203 19.19360352 C-15.57373291 18.92652588 -16.83838379 18.65944824 -18.14135742 18.38427734 C-22.62367571 16.83775742 -26.44671685 14.57849014 -28.64892578 10.17407227 C-29.04340126 5.99263215 -29.09927764 3.86461179 -26.77392578 0.29907227 C-20.04446949 -6.43038402 -8.25522941 -1.91912309 0 0 Z " fill="#909090" transform="translate(390.64892578125,340.825927734375)"/>
<path d="M0 0 C9.30410686 6.03465672 14.96350509 13.46145121 19.609375 23.38671875 C20.78406323 29.1426911 21.19283895 34.97739066 19.046875 40.51171875 C16.09509577 43.66706896 13.43149263 44.2746391 9.234375 44.88671875 C6.234375 44.44921875 6.234375 44.44921875 3.546875 42.69921875 C0.69605684 38.6926635 0.01894025 35.08122492 -1.03125 30.33203125 C-2.28737508 25.40107217 -4.28217311 22.50882724 -8.390625 19.57421875 C-14.15966965 17.65120387 -20.07301401 17.23389993 -25.640625 20.01171875 C-29.80314672 23.25848569 -32.39220591 26.46698139 -33.05078125 31.7265625 C-33.10105469 32.50128906 -33.15132812 33.27601563 -33.203125 34.07421875 C-33.45588554 37.77716059 -33.69631607 38.36391545 -36.203125 41.44921875 C-39.95090215 44.37431311 -41.99048541 45.00019639 -46.765625 44.44921875 C-49.69500154 42.63611733 -52.20210449 40.57625976 -53.765625 37.44921875 C-54.87567631 28.15026436 -52.35117067 19.73450421 -46.953125 12.13671875 C-35.88339094 -1.4299478 -16.54004969 -8.12743821 0 0 Z " fill="#030303" transform="translate(172.765625,243.55078125)"/>
<path d="M0 0 C7.94718322 4.68680036 13.68384483 12.16872199 16.59765625 20.91015625 C18.01193513 26.68665893 18.67215237 32.12719215 16.41015625 37.72265625 C13.50864995 41.02437032 10.85731043 41.60145668 6.59765625 42.22265625 C3.59765625 41.78515625 3.59765625 41.78515625 0.91015625 40.03515625 C-1.94247679 36.02605035 -2.55736884 32.42330009 -3.59765625 27.671875 C-4.75144389 23.53280188 -6.22735582 21.65776438 -9.40234375 18.78515625 C-14.66449913 16.25119888 -19.6607917 15.98726148 -25.40234375 16.78515625 C-29.45487043 18.48955827 -31.77911637 20.86106048 -34.21484375 24.47265625 C-35.26182463 27.39318187 -35.75025017 29.86796175 -36.21484375 32.91015625 C-36.91795918 36.76857482 -37.182256 37.57507249 -40.15234375 40.41015625 C-43.73306629 41.92507733 -45.57813051 42.50219623 -49.40234375 41.78515625 C-52.32051614 39.94174199 -54.83336687 37.92311001 -56.40234375 34.78515625 C-57.16478491 25.17839767 -54.46840093 16.36772773 -48.40234375 8.78515625 C-35.14858933 -6.33240738 -17.90752293 -9.0556742 0 0 Z " fill="#030303" transform="translate(375.40234375,246.21484375)"/>
<path d="M0 0 C29.16756724 10.55367244 73.21514148 41.32098234 87 70 C83.81484616 71.29750499 80.62647921 72.58692873 77.4375 73.875 C76.54224609 74.23980469 75.64699219 74.60460937 74.72460938 74.98046875 C69.86252314 76.93955111 65.07356646 78.67767129 60 80 C59.49569458 79.12601563 59.49569458 79.12601563 58.98120117 78.234375 C48.75214171 60.56489459 37.95988688 43.78912643 25 28 C24.52449707 27.42008301 24.04899414 26.84016602 23.55908203 26.24267578 C17.39969944 18.78268183 10.94970451 11.74329586 4.01220703 4.99780273 C2.65956713 3.68067119 1.32748886 2.34247664 0 1 C0 0.67 0 0.34 0 0 Z " fill="#797979" transform="translate(90,30)"/>
<path d="M0 0 C0.99 0.495 0.99 0.495 2 1 C1.59273682 1.39678955 1.18547363 1.7935791 0.76586914 2.20239258 C-7.3316945 10.1194773 -15.01792123 18.0648922 -22 27 C-22.95054295 28.16357244 -23.90384331 29.32489584 -24.859375 30.484375 C-37.26951468 45.61171556 -47.33968369 62.01863681 -57 79 C-63.27444779 76.97607539 -69.42984439 74.73023007 -75.5625 72.3125 C-76.38041016 71.99216797 -77.19832031 71.67183594 -78.04101562 71.34179688 C-80.02813622 70.56321746 -82.01418427 69.78190155 -84 69 C-82.10482677 64.95809153 -79.47084243 61.78983628 -76.5625 58.4375 C-76.02826416 57.81979736 -75.49402832 57.20209473 -74.94360352 56.56567383 C-66.707388 47.13844588 -57.86965406 38.71492407 -48 31 C-46.74339401 29.99100443 -45.48689006 28.98188178 -44.23046875 27.97265625 C-33.71328918 19.62793943 -22.64854049 12.65114091 -11 6 C-9.78637314 5.29441735 -8.57282161 4.58870511 -7.359375 3.8828125 C-1.98031595 0.82716901 -1.98031595 0.82716901 0 0 Z " fill="#797979" transform="translate(419,31)"/>
<path d="M0 0 C3.21559627 1.13595009 6.41561185 2.30018875 9.60693359 3.50195312 C11.60673139 4.25482104 13.61076701 4.99529858 15.6159668 5.73364258 C22.41232568 8.25110519 29.10015199 10.90559709 35.68041992 13.9465332 C33.23778198 39.38634749 25.48140298 67.18016795 11.68041992 88.9465332 C8.21541992 88.4515332 8.21541992 88.4515332 4.68041992 87.9465332 C5.67041992 87.4515332 5.67041992 87.4515332 6.68041992 86.9465332 C7.37863474 85.62944616 8.03591664 84.29071985 8.68041992 82.9465332 C10.08497035 80.58407938 11.50223812 78.23204585 12.93041992 75.8840332 C14.13486477 73.87523929 15.33593746 71.86446105 16.53637695 69.85327148 C17.57238613 68.12658952 18.6235855 66.40904412 19.67651367 64.69262695 C20.23467773 63.74516602 20.7928418 62.79770508 21.36791992 61.8215332 C21.86678711 60.99395508 22.3656543 60.16637695 22.87963867 59.3137207 C23.89932998 56.96900814 23.89932998 56.96900814 23.16088867 54.56762695 C21.20852924 51.11107502 18.84034176 48.17922891 16.30541992 45.1340332 C11.42501099 39.15906369 6.72405351 33.08373879 2.13671875 26.88134766 C-0.34057935 23.54408664 -2.85454952 20.25592251 -5.48364258 17.03637695 C-5.99145264 16.41061768 -6.4992627 15.7848584 -7.02246094 15.14013672 C-7.98216349 13.9645366 -8.95116623 12.79644111 -9.93115234 11.63769531 C-12.77908394 8.13832132 -14.08577623 5.47323553 -14.31958008 0.9465332 C-11.70546651 -4.45596816 -4.48390898 -1.42296589 0 0 Z " fill="#909090" transform="translate(453.319580078125,289.053466796875)"/>
<path d="M0 0 C2 3 2 3 1.91796875 5.30078125 C0.71605954 8.83490579 -1.33603151 11.35712738 -3.6875 14.1875 C-4.69088278 15.42905866 -5.69344653 16.67127954 -6.6953125 17.9140625 C-7.2305957 18.5730957 -7.76587891 19.23212891 -8.31738281 19.91113281 C-11.2809953 23.59027797 -14.16856783 27.32847041 -17.0625 31.0625 C-18.245984 32.58862679 -19.4295763 34.11466958 -20.61328125 35.640625 C-21.18256348 36.37474609 -21.7518457 37.10886719 -22.33837891 37.86523438 C-23.89859274 39.86971715 -25.46881695 41.8658305 -27.04296875 43.859375 C-27.9453303 45.01040271 -28.84767521 46.16144347 -29.75 47.3125 C-30.52859375 48.29863281 -31.3071875 49.28476562 -32.109375 50.30078125 C-33.94697361 52.92429497 -35.11309762 54.93246217 -36 58 C-35.38078022 60.35542477 -35.38078022 60.35542477 -34 62.58203125 C-33.52433594 63.43216797 -33.04867187 64.28230469 -32.55859375 65.15820312 C-31.78708984 66.47208008 -31.78708984 66.47208008 -31 67.8125 C-30.51660156 68.67681641 -30.03320312 69.54113281 -29.53515625 70.43164062 C-26.71607661 75.38559356 -23.66645825 79.96414898 -20.1015625 84.4128418 C-19 86 -19 86 -19 88 C-18.34 88.33 -17.68 88.66 -17 89 C-20.465 89.495 -20.465 89.495 -24 90 C-37.21134183 67.44233656 -45.61340706 41.04678162 -48 15 C-37.03313314 10.21402082 -25.79576889 6.13200854 -14.58032227 1.97387695 C-12.83540856 1.3153037 -11.10743559 0.6102935 -9.39819336 -0.13598633 C-5.97075854 -1.37081192 -3.49193495 -0.85651235 0 0 Z " fill="#919191" transform="translate(71,288)"/>
<path d="M0 0 C4.68435816 1.4131984 8.90058789 3.36201831 13.1875 5.6875 C13.83662354 6.03619141 14.48574707 6.38488281 15.15454102 6.74414062 C20.94865662 9.89511388 26.50781831 13.34615771 32 17 C26.24885462 23.95992471 19.8581673 30.19819005 13.43164062 36.52929688 C8.94367833 40.97655203 4.60709207 45.44890678 0.56811523 50.31079102 C-2.15074967 53.23961341 -4.04120263 54.88259624 -8.0625 55.375 C-11 55 -11 55 -12.9375 53.9375 C-17.41980157 45.76389126 -6.95364619 22.86309327 -4.46240234 14.30102539 C-3.05726729 9.50360469 -1.63204645 4.72647116 0 0 Z " fill="#919191" transform="translate(353,129)"/>
<path d="M0 0 C3.61046809 11.62371038 7.14645813 23.26367842 10.375 35 C10.62523926 35.89992676 10.87547852 36.79985352 11.13330078 37.72705078 C14.6767978 50.76583931 14.6767978 50.76583931 12.9375 53.9375 C9.96422336 55.56800655 8.36053694 55.58163139 5 55 C1.04941233 52.52066567 -1.99132596 49.07087389 -4.9765625 45.53125 C-10.00653185 39.74001324 -15.49486844 34.39813681 -20.9375 29 C-22.01390654 27.92862113 -23.09008014 26.85700818 -24.16601562 25.78515625 C-26.77466745 23.18740362 -29.38644471 20.59282038 -32 18 C-29.27418353 15.77830677 -26.5964132 13.63134826 -23.58203125 11.81640625 C-22.66683716 11.26424438 -22.66683716 11.26424438 -21.7331543 10.70092773 C-21.09933838 10.32524658 -20.46552246 9.94956543 -19.8125 9.5625 C-19.15483643 9.17070557 -18.49717285 8.77891113 -17.81958008 8.37524414 C-3.62862741 0 -3.62862741 0 0 0 Z " fill="#919191" transform="translate(159,129)"/>
<path d="M0 0 C0.76441406 0.51949219 1.52882813 1.03898437 2.31640625 1.57421875 C0.02045432 4.17382884 -2.09175088 5.3755121 -5.30859375 6.63671875 C-6.10523438 6.95769531 -6.901875 7.27867187 -7.72265625 7.609375 C-15.58575139 10.17162368 -22.98569505 10.96244915 -31.24609375 10.94921875 C-32.29659912 10.94760742 -33.34710449 10.94599609 -34.42944336 10.94433594 C-46.24577418 10.75994586 -56.48852737 8.75619531 -66.68359375 2.57421875 C-63.2846323 -1.33283488 -59.50452763 -3.31629127 -54.93359375 -5.55078125 C-54.25554687 -5.89753906 -53.5775 -6.24429687 -52.87890625 -6.6015625 C-34.26107648 -15.83968716 -16.59308945 -10.80248062 0 0 Z " fill="#E75E74" transform="translate(287.68359375,408.42578125)"/>
<path d="M0 0 C2.10759685 0.48808279 4.21899116 0.95600712 6.33154297 1.42211914 C7.68728235 1.73017532 9.04276135 2.03938014 10.39794922 2.34985352 C11.61321289 2.62740479 12.82847656 2.90495605 14.08056641 3.19091797 C18.94409649 4.65295407 22.8720493 6.60744741 25.35107422 11.17407227 C25.87973708 14.21388369 25.95803011 16.17178113 24.33154297 18.85766602 C22.16575232 21.58616964 20.68708618 23.06206828 17.35107422 24.17407227 C10.16130902 24.5027379 3.45599422 22.97280602 -3.51928711 21.45800781 C-5.70561505 20.98782191 -7.89634887 20.54453434 -10.08837891 20.10180664 C-11.49563127 19.80070961 -12.90254565 19.49802763 -14.30908203 19.19360352 C-15.57373291 18.92652588 -16.83838379 18.65944824 -18.14135742 18.38427734 C-22.62367571 16.83775742 -26.44671685 14.57849014 -28.64892578 10.17407227 C-29.04340126 5.99263215 -29.09927764 3.86461179 -26.77392578 0.29907227 C-20.04446949 -6.43038402 -8.25522941 -1.91912309 0 0 Z " fill="#040404" transform="translate(390.64892578125,340.825927734375)"/>
<path d="M0 0 C3.34906851 2.58356714 4.13148427 4.30783782 4.75 8.5 C4.59527818 12.11250765 4.17032518 12.70850654 1.71875 15.70703125 C-3.7376395 20.08971509 -10.8309651 20.89262642 -17.53735352 22.13085938 C-19.87669774 22.56281348 -22.20858312 23.02447534 -24.54101562 23.4921875 C-26.03872431 23.78558583 -27.53676204 24.07731049 -29.03515625 24.3671875 C-29.72593765 24.50148163 -30.41671906 24.63577576 -31.12843323 24.7741394 C-41.13097071 26.61110728 -41.13097071 26.61110728 -44.67578125 24.6640625 C-49.62721084 20.0462872 -49.62721084 20.0462872 -50.1875 15.9375 C-49.80138155 12.59114008 -49.17085256 10.54474273 -46.84375 8.0625 C-41.89486552 4.71248589 -35.58152494 3.90061842 -29.8125 2.6875 C-28.97477051 2.50413086 -28.13704102 2.32076172 -27.27392578 2.13183594 C-24.62281064 1.55335743 -21.96889754 0.99119202 -19.3125 0.4375 C-18.4764624 0.26202637 -17.6404248 0.08655273 -16.77905273 -0.09423828 C-5.15234434 -2.40442736 -5.15234434 -2.40442736 0 0 Z " fill="#040404" transform="translate(145.8125,339.3125)"/>
<path d="M0 0 C2.5 2.125 2.5 2.125 3.5 4.125 C3.87712577 9.12191647 3.59290612 12.11567725 0.5 16.125 C-2.44836829 18.09057886 -3.59522955 18.46785895 -6.96484375 18.90625 C-7.84180908 19.02508545 -8.71877441 19.1439209 -9.62231445 19.26635742 C-10.55132568 19.38470947 -11.48033691 19.50306152 -12.4375 19.625 C-14.34651879 19.88028237 -16.25537471 20.13678576 -18.1640625 20.39453125 C-19.08477539 20.51779785 -20.00548828 20.64106445 -20.95410156 20.76806641 C-24.08808356 21.207449 -27.19880021 21.74819194 -30.3125 22.3125 C-41.77890969 24.22356828 -41.77890969 24.22356828 -46.4375 21.25 C-49.28852207 18.31258332 -49.46815355 17.51352666 -49.8125 13.3125 C-49.75157446 10.26068408 -49.4623797 9.05289442 -48 6.25 C-42.63642918 1.6909648 -34.11208082 1.52083018 -27.3125 0.5625 C-25.56885084 0.31230752 -23.82535571 0.06103876 -22.08203125 -0.19140625 C-21.27660889 -0.30798584 -20.47118652 -0.42456543 -19.64135742 -0.54467773 C-17.9750256 -0.80172333 -16.3170105 -1.11290147 -14.6640625 -1.4453125 C-9.24788787 -2.52072624 -4.92390178 -2.63780452 0 0 Z " fill="#030303" transform="translate(413.5,296.875)"/>
<path d="M0 0 C5.35489655 0.04576835 10.45069884 0.9760032 15.67529297 2.04418945 C19.15354939 2.74941843 22.59599078 3.36409308 26.125 3.75390625 C26.79700439 3.82883301 27.46900879 3.90375977 28.16137695 3.98095703 C30.01642018 4.17607907 31.87342309 4.35230261 33.73046875 4.52734375 C37.4241629 5.35966216 39.23179538 6.64322425 41.9375 9.25 C43.5395886 12.45417721 43.43035215 15.77339432 42.9375 19.25 C40.8130173 22.69312714 39.78897359 23.96617547 35.9375 25.25 C29.69836432 25.51139708 23.78655831 24.81238613 17.625 23.875 C16.69945313 23.73562012 15.77390625 23.59624023 14.8203125 23.45263672 C13.00267975 23.17686016 11.18543973 22.89847939 9.36865234 22.6171875 C7.34982142 22.3122747 5.32575674 22.04225651 3.30078125 21.78125 C-4.06103364 20.73673602 -4.06103364 20.73673602 -7.1875 17.75 C-10.20266147 13.72978471 -10.57738774 11.31306275 -10.0625 6.25 C-7.625 3.375 -7.625 3.375 -5.0625 1.25 C-3.52368968 -0.28881032 -2.15060403 0.04308389 0 0 Z " fill="#030303" transform="translate(105.0625,294.75)"/>
<path d="M0 0 C1.26131325 3.53380377 0.75597731 5.34620395 -0.73046875 8.73828125 C-1.12169922 9.64126953 -1.51292969 10.54425781 -1.91601562 11.47460938 C-2.33560547 12.41111328 -2.75519531 13.34761719 -3.1875 14.3125 C-3.58775391 15.23740234 -3.98800781 16.16230469 -4.40039062 17.11523438 C-6.6607398 22.26970973 -9.10435553 27.17392588 -12 32 C-14.31 31.67 -16.62 31.34 -19 31 C-18.34 30.67 -17.68 30.34 -17 30 C-16.30178518 28.68291295 -15.64450328 27.34418665 -15 26 C-13.5954431 23.63753529 -12.1792802 21.28486231 -10.75 18.9375 C-6.98664383 12.71802669 -3.40565045 6.42399164 0 0 Z " fill="#ABABAB" transform="translate(477,346)"/>
<path d="M0 0 C2.08771908 2.69018711 3.88487691 5.40698588 5.55859375 8.37109375 C6.02716797 9.19287109 6.49574219 10.01464844 6.97851562 10.86132812 C7.94854851 12.57414388 8.91730601 14.28768258 9.88476562 16.00195312 C12.33808727 20.29947266 14.86627461 24.15507452 18 28 C18 28.66 18 29.32 18 30 C18.66 30.33 19.32 30.66 20 31 C17.69 31.33 15.38 31.66 13 32 C0 8.67741935 0 8.67741935 0 0 Z " fill="#ABABAB" transform="translate(34,346)"/>
</svg>
