<?xml version="1.0" encoding="utf-8"?>
<svg height="401.703px" viewBox="18.3861 49.148 463.2276 401.7031" width="463.228px"
    xmlns="http://www.w3.org/2000/svg">
    <path style="stroke-width: 1;" d="M 327.241 241.607 C 319.578 242.73 317.902 246.392 317.774 262.308 L 317.693 272.773 L 311.955 273.069 C 301.23 273.627 296.921 275.715 294.414 281.575 C 292.973 284.949 292.818 291.411 294.136 292.866 C 294.595 293.371 294.969 294.139 294.969 294.577 C 294.969 298.356 302.918 301.552 312.302 301.552 C 318.557 301.552 317.932 297.809 317.943 335.546 C 317.951 366.363 318.218 374.106 319.317 375.493 C 319.54 375.775 319.873 376.861 320.059 377.911 C 320.439 380.041 322.199 383.854 322.802 383.854 C 323.018 383.854 323.193 384.133 323.193 384.473 C 323.193 385.294 326.639 390.472 328.06 391.79 C 331.614 395.1 334.123 397.174 334.551 397.174 C 334.817 397.174 335.289 397.473 335.598 397.844 C 335.903 398.207 336.736 398.651 337.449 398.827 C 338.163 399.008 339.065 399.438 339.462 399.781 C 340.526 400.716 352.639 403.832 355.226 403.84 C 356.722 403.846 362.617 402.478 364.582 401.671 C 365.371 401.347 366.698 400.937 367.539 400.761 C 368.375 400.588 369.313 400.136 369.629 399.759 C 369.94 399.385 370.41 399.078 370.673 399.078 C 374.646 399.078 382.042 389.143 382.042 383.801 C 382.042 378.924 376.57 371.401 372.558 370.762 C 371.59 370.606 370.26 370.349 369.607 370.19 C 368.946 370.031 368.205 369.95 367.961 370.008 C 367.717 370.07 366.487 370.307 365.229 370.55 C 363.127 370.944 359.404 373.087 356.895 375.357 C 355.573 376.546 355.506 376.529 352.744 374.341 C 351.42 373.294 350.157 372.437 349.94 372.437 C 347.741 372.437 347.153 363.234 347.133 328.568 C 347.119 303.311 347.144 302.521 348.044 302.047 C 348.585 301.759 352.622 301.55 357.73 301.544 C 371.362 301.536 375.079 300.335 377.461 295.177 C 379.974 289.728 379.977 286.741 377.475 281.337 C 374.699 275.327 370.293 273.778 354.052 273.08 L 346.88 272.773 L 346.639 261.761 C 346.431 252.153 346.295 250.632 345.562 249.831 C 345.101 249.323 344.723 248.734 344.723 248.522 C 344.723 247.654 342.211 244.926 340.106 243.514 C 336.925 241.381 332.891 240.781 327.241 241.607 M 222.73 271.632 C 213.96 272.868 212.566 273.125 211.358 273.753 C 210.639 274.127 209.687 274.434 209.246 274.434 C 208.793 274.437 208.31 274.638 208.163 274.875 C 208.01 275.118 207.191 275.464 206.339 275.646 C 204.845 275.958 200.287 277.837 198.81 278.741 C 198.413 278.984 197.366 279.503 196.48 279.9 C 195.597 280.296 194.159 281.203 193.299 281.932 C 192.43 282.646 190.919 283.774 189.939 284.427 C 188.965 285.083 187.657 286.155 187.041 286.808 C 186.422 287.462 185.664 288.207 185.356 288.469 C 183.396 290.161 178.726 295.102 177.546 296.74 C 176.774 297.82 175.963 298.697 175.752 298.697 C 175.541 298.697 175.367 299.026 175.367 299.417 C 175.367 299.816 174.933 300.503 174.411 300.95 C 173.881 301.402 173.451 302.027 173.451 302.342 C 173.451 302.652 172.257 305.232 170.8 308.062 C 169.336 310.892 167.848 314.451 167.482 315.97 C 167.121 317.494 166.605 318.999 166.332 319.322 C 166.066 319.649 165.697 321.402 165.522 323.222 C 165.341 325.039 164.9 327.25 164.536 328.132 C 163.614 330.401 163.623 346.388 164.547 349.229 C 164.914 350.351 165.352 352.512 165.516 354.033 C 165.677 355.555 166.113 357.263 166.477 357.838 C 166.841 358.407 167.296 359.611 167.479 360.507 C 167.671 361.4 168.656 363.756 169.675 365.738 C 170.691 367.719 171.53 369.595 171.535 369.902 C 171.538 370.207 171.707 370.528 171.913 370.614 C 172.118 370.701 172.912 372.018 173.681 373.54 C 174.448 375.061 175.597 376.867 176.236 377.548 C 176.871 378.235 178.237 379.856 179.27 381.152 C 180.303 382.447 182.146 384.395 183.379 385.47 C 184.609 386.542 186.455 388.228 187.485 389.208 C 188.512 390.187 189.509 390.991 189.703 390.991 C 189.889 390.991 190.442 391.418 190.917 391.943 C 191.389 392.468 192.038 392.892 192.357 392.892 C 192.671 392.892 193.934 393.657 195.159 394.584 C 196.383 395.513 198.082 396.51 198.937 396.792 C 199.784 397.074 200.806 397.579 201.2 397.903 C 201.594 398.232 202.669 398.648 203.593 398.829 C 204.515 399.022 205.698 399.444 206.231 399.779 C 206.755 400.105 208.263 400.622 209.576 400.92 C 210.892 401.211 213.471 401.903 215.315 402.453 C 224.046 405.051 238.563 405.141 245.932 402.64 C 247.775 402.006 250.357 401.264 251.667 400.979 C 252.975 400.686 254.374 400.186 254.774 399.862 C 255.171 399.536 256.573 398.997 257.881 398.673 C 259.191 398.341 260.377 397.925 260.513 397.744 C 260.649 397.565 261.765 396.912 262.992 396.303 C 264.214 395.686 265.618 394.888 266.104 394.517 C 267.773 393.244 270.616 391.466 270.977 391.466 C 274.047 391.466 283.012 378.639 283.012 374.249 C 283.012 371.153 279.081 363.398 277.518 363.398 C 277.157 363.398 276.568 363.114 276.215 362.759 C 274.108 360.666 266.088 360.225 262.67 362.019 C 259.491 363.692 255.688 366.307 255.415 367.013 C 255.068 367.923 251.884 369.983 247.85 371.921 C 246.004 372.803 243.924 373.81 243.228 374.168 C 242.528 374.525 241.551 374.815 241.051 374.815 C 240.554 374.815 239.874 375.083 239.546 375.41 C 239.113 375.842 236.692 376.007 230.862 376.007 C 225.032 376.007 222.614 375.842 222.178 375.41 C 221.853 375.083 221.112 374.815 220.54 374.815 C 219.493 374.815 215.545 373.23 211.964 371.371 C 209.29 369.981 204.065 365.749 204.073 364.981 C 204.085 364.456 207.274 362.991 209.204 362.625 C 210.051 362.463 210.995 362.036 211.297 361.676 C 211.597 361.316 212.325 361.02 212.91 361.02 C 213.499 361.02 215.359 360.317 217.039 359.454 C 218.721 358.592 221.067 357.59 222.25 357.218 C 223.435 356.85 224.832 356.289 225.362 355.968 C 225.89 355.644 227.128 355.234 228.119 355.055 C 229.107 354.876 230.023 354.558 230.151 354.349 C 230.468 353.835 234.046 352.174 236.129 351.569 C 237.045 351.298 239.307 350.513 241.151 349.816 C 242.989 349.12 245.468 348.23 246.648 347.845 C 249.385 346.952 252.772 345.388 253.1 344.861 C 253.242 344.638 254.194 344.311 255.221 344.138 C 256.248 343.968 257.484 343.524 257.967 343.161 C 258.453 342.795 259.113 342.491 259.433 342.483 C 259.755 342.474 261.193 341.933 262.631 341.279 C 264.069 340.623 265.538 340.088 265.89 340.088 C 266.251 340.088 267.384 339.658 268.417 339.138 C 269.447 338.616 270.543 338.187 270.854 338.187 C 271.16 338.187 271.668 337.874 271.982 337.503 C 272.293 337.126 273.236 336.674 274.075 336.503 C 274.911 336.33 276.027 335.931 276.551 335.619 C 277.076 335.303 278.414 334.756 279.516 334.41 C 280.621 334.058 281.638 333.478 281.771 333.123 C 281.91 332.766 282.307 332.478 282.659 332.478 C 285.255 332.478 289.617 322.658 288.104 320.221 C 287.954 319.978 287.59 317.812 287.296 315.401 C 286.79 311.269 285.463 307.18 284.431 306.541 C 284.175 306.382 283.964 305.927 283.964 305.527 C 283.964 304.913 282.393 301.921 280.002 297.985 C 277.681 294.175 269.669 286.088 265.632 283.495 C 263.878 282.367 262.437 281.279 262.437 281.086 C 262.437 280.888 261.576 280.383 260.524 279.961 C 259.472 279.545 258.611 278.987 258.611 278.722 C 258.611 278.459 258.236 278.242 257.773 278.239 C 257.312 278.236 255.862 277.708 254.544 277.066 C 253.225 276.422 251.873 275.886 251.543 275.883 C 251.201 275.872 249.588 275.297 247.95 274.607 C 241.989 272.092 229.732 270.643 222.73 271.632 M 78.488 272.751 C 76.641 273.058 74.493 273.574 73.704 273.909 C 72.913 274.236 70.975 274.939 69.395 275.467 C 67.821 275.995 65.989 276.715 65.331 277.058 C 64.673 277.401 62.732 278.367 61.025 279.193 C 59.315 280.017 57.441 281.22 56.86 281.854 C 54.556 284.371 50.98 283.816 50.98 280.933 C 50.98 279.894 46.974 276.466 44.997 275.821 C 43.945 275.475 42.882 275.023 42.629 274.817 C 42.01 274.3 34.353 274.336 34.031 274.856 C 33.889 275.085 32.854 275.5 31.729 275.782 C 29.111 276.436 26.482 279.104 25.177 282.423 C 24.192 284.93 24.186 285.214 24.186 362.505 L 24.186 440.075 L 25.563 443.006 C 27.376 446.878 29.456 448.985 32.346 449.878 C 40.475 452.393 48.007 449.945 51.741 443.556 L 53.132 441.18 L 53.276 417.512 C 53.44 390.832 53.248 391.965 57.008 395.248 C 57.885 396.019 59.37 396.792 60.297 396.968 C 61.225 397.141 61.983 397.464 61.983 397.691 C 61.983 397.917 63.163 398.441 64.603 398.857 C 66.047 399.273 67.333 399.793 67.471 400.005 C 67.602 400.222 68.737 400.546 69.992 400.73 C 71.242 400.912 72.913 401.336 73.704 401.671 C 79.507 404.128 97.461 404.295 102.197 401.931 C 102.605 401.73 104.221 401.305 105.784 400.99 C 107.347 400.677 109.105 400.119 109.688 399.748 C 110.268 399.379 111.001 399.078 111.315 399.078 C 112.189 399.078 117.947 396.289 120.252 394.746 C 121.387 393.986 122.503 393.37 122.742 393.37 C 122.978 393.37 123.342 393.093 123.555 392.767 C 123.764 392.432 124.56 391.762 125.324 391.282 C 126.079 390.796 128.02 389.118 129.627 387.544 C 131.232 385.972 133.031 384.367 133.625 383.977 C 134.219 383.589 134.699 382.974 134.699 382.612 C 134.699 382.249 134.883 381.953 135.107 381.953 C 135.532 381.953 140.596 374.896 141.934 372.44 C 142.359 371.664 142.923 370.751 143.189 370.424 C 143.447 370.092 143.939 368.964 144.269 367.918 C 144.597 366.874 145.061 365.777 145.291 365.492 C 145.746 364.914 147.523 360.06 147.965 358.167 C 148.12 357.514 148.514 356.548 148.845 356.026 C 149.178 355.499 149.68 352.864 149.969 350.162 C 150.258 347.462 150.705 344.855 150.971 344.364 C 151.679 343.052 151.551 333.081 150.785 330.078 C 150.424 328.651 149.997 325.804 149.833 323.761 C 149.666 321.667 149.222 319.59 148.82 319.013 C 148.423 318.454 148.095 317.516 148.095 316.939 C 148.095 316.355 147.892 315.758 147.648 315.607 C 147.406 315.459 146.876 314.211 146.468 312.844 C 146.066 311.476 145.299 309.511 144.763 308.47 C 144.228 307.437 143.792 306.337 143.792 306.033 C 143.792 305.728 143.481 305.223 143.109 304.908 C 142.726 304.598 142.287 303.749 142.126 303.021 C 141.965 302.295 141.09 300.983 140.18 300.104 C 139.272 299.23 138.528 298.228 138.528 297.879 C 138.528 297.53 138.228 297.128 137.853 296.989 C 137.484 296.846 136.912 296.093 136.59 295.317 C 136.268 294.541 135.604 293.692 135.113 293.432 C 134.622 293.17 134.225 292.645 134.225 292.26 C 134.225 291.88 134.016 291.562 133.767 291.562 C 133.517 291.562 131.912 290.228 130.207 288.589 C 128.5 286.956 126.604 285.254 125.998 284.804 C 124.313 283.565 121.57 281.385 121.307 281.069 C 121.173 280.919 119.56 280.095 117.717 279.244 C 115.876 278.398 114.047 277.502 113.652 277.259 C 112.75 276.695 112.792 276.715 107.911 275.188 C 105.673 274.484 103.411 273.725 102.889 273.496 C 99.685 272.103 85.112 271.662 78.488 272.751 M 240.435 301.268 C 241.351 301.759 242.428 302.342 242.825 302.56 C 243.216 302.778 244.219 303.3 245.052 303.716 C 245.882 304.135 246.942 304.891 247.398 305.391 C 247.858 305.899 248.486 306.309 248.791 306.309 C 249.363 306.309 255.263 312.21 255.263 312.785 C 255.263 312.958 255.818 313.611 256.495 314.237 C 257.984 315.61 257.839 316.299 255.837 317.31 C 254.999 317.731 254.044 318.287 253.716 318.544 C 253.378 318.798 252.067 319.292 250.793 319.632 C 249.513 319.976 247.695 320.651 246.742 321.134 C 245.793 321.617 244.768 322.011 244.463 322.011 C 244.16 322.011 242.711 322.65 241.245 323.423 C 239.774 324.21 237.705 324.983 236.642 325.154 C 235.579 325.321 234.46 325.754 234.163 326.111 C 233.863 326.477 233.333 326.767 232.994 326.767 C 232.367 326.767 226.131 329.078 223.446 330.301 C 222.658 330.664 221.031 331.406 219.829 331.956 C 218.624 332.501 217.197 332.95 216.656 332.95 C 216.111 332.95 215.42 333.251 215.118 333.617 C 214.812 333.983 213.874 334.413 213.024 334.569 C 212.177 334.728 210.878 335.178 210.131 335.563 C 209.382 335.951 207.877 336.495 206.78 336.774 C 204.954 337.24 204.212 337.519 200.72 339.102 C 200.062 339.398 198.343 339.94 196.894 340.305 C 195.447 340.668 193.779 341.115 193.185 341.293 C 191.88 341.695 191.58 335.055 192.76 331.702 C 193.115 330.689 193.554 328.715 193.74 327.32 C 193.918 325.921 194.49 324.001 195.003 323.043 C 195.517 322.091 195.939 320.958 195.939 320.528 C 195.939 320.101 196.236 319.504 196.6 319.205 C 196.958 318.907 197.371 318.072 197.519 317.363 C 197.663 316.648 199.104 314.672 200.725 312.969 C 202.347 311.269 203.815 309.661 203.99 309.393 C 204.165 309.131 204.848 308.542 205.506 308.084 C 210.234 304.818 212.508 303.456 213.227 303.456 C 213.691 303.456 214.19 303.247 214.351 302.996 C 214.723 302.393 217.569 301.056 219.524 300.567 C 222.769 299.752 238.599 300.277 240.435 301.268 M 92.361 301.123 C 93.413 301.396 95.098 301.793 96.103 302.002 C 97.117 302.217 98.183 302.633 98.474 302.923 C 98.769 303.219 99.352 303.456 99.765 303.456 C 100.629 303.456 107.05 306.443 108.18 307.364 C 112.2 310.658 117.053 316.269 118.155 318.904 C 118.591 319.937 119.108 320.902 119.302 321.042 C 120.204 321.698 121.312 324.04 121.598 325.905 C 121.776 327.032 122.153 328.383 122.442 328.908 C 124.158 331.998 124.147 345.43 122.431 347.926 C 122.076 348.442 121.784 349.277 121.784 349.779 C 121.784 351.01 119.488 355.786 118.897 355.786 C 118.644 355.786 118.43 356.163 118.428 356.624 C 118.411 358.215 112.525 365.774 111.301 365.774 C 111.098 365.774 110.709 366.262 110.44 366.854 C 110.168 367.446 109.327 368.239 108.569 368.624 C 107.811 369.006 106.809 369.699 106.337 370.165 C 105.868 370.631 104.96 371.013 104.327 371.013 C 103.691 371.013 103.002 371.284 102.791 371.613 C 101.384 373.835 87.897 375.697 82.483 374.422 C 78.471 373.478 74.179 372.211 73.943 371.901 C 73.812 371.731 72.949 371.242 72.03 370.818 C 69.348 369.573 66.644 367.823 66.208 367.05 C 65.786 366.293 60.739 361.202 59.853 360.638 C 59.179 360.205 56.483 354.974 56.069 353.288 C 55.891 352.568 55.533 351.982 55.272 351.982 C 55.02 351.982 54.803 351.599 54.803 351.125 C 54.803 350.653 54.57 350.036 54.281 349.746 C 53.407 348.88 52.416 342.499 52.416 337.751 C 52.416 329.662 52.94 327.828 58.226 317.592 C 59.262 315.59 66.094 308.604 68.152 307.451 C 70.761 305.991 71.414 305.589 72.094 305.031 C 72.452 304.749 73.715 304.229 74.898 303.894 C 76.081 303.559 77.477 302.998 77.994 302.652 C 78.515 302.312 79.496 302.033 80.17 302.033 C 80.848 302.033 81.608 301.832 81.861 301.589 C 82.827 300.654 89.429 300.361 92.361 301.123"
        fill="#9bc36a"
        fill-rule="evenodd" id="path1" stroke="none" transform="matrix(0.9999999999999999, 0, 0, 0.9999999999999999, -1.1368683772161603e-13, 0)"
        xmlns="http://www.w3.org/2000/svg" />
    <path style=""
        d="M 436.621 115.59 C 434.967 116.355 432.773 118.225 431.383 120.054 L 428.992 123.2 L 429.175 172.794 L 429.356 222.389 L 431.26 225.281 C 435.93 232.376 447.566 233.18 453.468 226.816 C 457.024 222.983 457.002 223.338 457.002 171.047 L 457.002 122.516 L 454.981 119.585 C 451.358 114.329 443.193 112.553 436.621 115.59"
        fill="#0a3459" fill-rule="evenodd" id="path0" stroke="none"
        transform="matrix(0.9999999999999999, 0, 0, 0.9999999999999999, -1.1368683772161603e-13, 0)" />
    <path style=""
        d="M 250.499 65.574 C 241.081 69.011 237.264 81.075 242.905 89.569 C 251.901 103.113 273.231 98.189 273.259 82.56 C 273.281 69.806 261.995 61.384 250.499 65.574"
        fill="#0a3459" fill-rule="evenodd" id="path0" stroke="none"
        transform="matrix(0.9999999999999999, 0, 0, 0.9999999999999999, -1.1368683772161603e-13, 0)" />
    <path style=""
        d="M 428.073 272.279 C 415.086 274.158 406.776 277.731 400.427 284.176 C 395.879 288.79 391.89 296.464 390.885 302.529 C 388.231 318.555 394.547 332.593 407.506 339.49 C 412.432 342.109 423.059 345.832 432.118 348.113 C 448.784 352.305 454.045 356.068 453.934 363.719 C 453.71 379.374 426.213 380.886 411.89 366.033 C 403.628 357.464 396.074 356.308 389.416 362.589 C 379.843 371.619 388.161 387.457 407.171 396.395 C 445.047 414.207 486.77 392.499 481.092 357.933 C 478.119 339.831 464.759 329.039 437.496 322.722 C 435.467 322.253 432.579 321.444 431.083 320.927 C 429.589 320.408 427.943 319.984 427.424 319.984 C 423.004 319.984 416.857 312.336 417.62 307.786 C 419.531 296.414 439.897 295.852 451.241 306.859 C 459.518 314.893 469.518 314.331 474.035 305.578 C 482.378 289.41 453.637 268.586 428.073 272.279"
        fill="#0a3459" fill-rule="evenodd" id="path0" stroke="none"
        transform="matrix(0.9999999999999999, 0, 0, 0.9999999999999999, -1.1368683772161603e-13, 0)" />
    <path style=""
        d="M 99.64 59.71 C 87.552 60.765 82.119 61.999 71.6 66.077 C 68.787 67.168 66.314 68.059 66.105 68.059 C 65.461 68.059 56.685 73.552 52.779 76.402 C 46.68 80.852 33.223 94.903 33.223 96.824 C 33.223 97.086 32.496 98.273 31.604 99.459 C 30.177 101.357 28.85 104.045 24.672 113.48 C 24.095 114.786 23.023 117.673 22.29 119.897 C 21.016 123.775 20.677 125.332 18.983 135.175 C 17.548 143.513 18.822 161.422 21.504 170.556 C 22.015 172.303 22.437 174.095 22.437 174.539 C 22.437 175.318 24.775 181.177 27.021 186.02 C 28.653 189.54 34.775 199.628 36.649 201.88 C 55.156 224.15 78.574 234.967 106.045 233.945 C 120.835 233.395 138.714 228.449 146.227 222.833 C 147.376 221.976 148.57 221.272 148.881 221.272 C 149.194 221.272 150.832 220.119 152.526 218.71 C 154.219 217.3 156.363 215.667 157.29 215.075 C 173.645 204.683 172.904 186.279 155.996 182.88 C 151.779 182.031 148.02 183.84 142.051 189.593 C 133.336 197.986 131.273 199.304 120.879 203.117 C 106.384 208.432 82.919 204.753 70.645 195.24 C 69.162 194.09 67.555 192.842 67.072 192.465 C 48.076 177.668 41.41 144.428 52.724 120.939 C 56.469 113.165 62.927 104.241 66.189 102.34 C 66.786 101.991 67.702 101.276 68.224 100.754 C 69.209 99.772 73.266 96.966 76.317 95.163 C 89.89 87.135 110.937 86.457 126.001 93.558 C 127.892 94.448 129.658 95.177 129.927 95.177 C 130.482 95.177 135.666 99.386 141.021 104.185 C 148.514 110.901 155.577 111.23 162.426 105.184 C 172.51 96.282 166.416 83.233 146.501 71.073 C 139.791 66.978 138.525 66.44 127.284 62.909 C 122.789 61.496 105.423 58.959 103.011 59.361 C 102.639 59.425 101.123 59.581 99.64 59.71"
        fill="#0a3459" fill-rule="evenodd" id="path0" stroke="none"
        transform="matrix(0.9999999999999999, 0, 0, 0.9999999999999999, -1.1368683772161603e-13, 0)" />
    <path style=""
        d="M 339.34 105.265 C 331.558 108.118 329.107 109.301 326.328 111.537 C 323.429 113.871 322.552 113.787 321.125 111.04 C 317.216 103.515 306.086 102.139 299.844 108.414 C 295.161 113.123 295.294 111.01 295.944 169.523 L 296.524 221.836 L 298.556 224.775 C 305.044 234.154 319.52 232.496 323.385 221.928 C 324.365 219.243 324.509 215.254 324.52 190.405 C 324.54 152.107 325.467 146.946 333.724 139.18 C 349.338 124.495 371.912 131.772 375.757 152.724 C 376.14 154.818 376.426 170.248 376.426 188.859 C 376.426 223.916 376.417 223.824 380.038 226.911 C 389.172 234.696 402.12 230.559 403.975 219.262 C 406.141 206.082 404.233 147.549 401.346 138.563 C 393.989 115.682 377.084 103.236 353.53 103.361 C 345.331 103.406 343.882 103.599 339.34 105.265"
        fill="#0a3459" fill-rule="evenodd" id="path0" stroke="none"
        transform="matrix(0.9999999999999999, 0, 0, 0.9999999999999999, -1.1368683772161603e-13, 0)" />
    <path style=""
        d="M 198.138 60.036 C 194.562 60.723 191.461 62.914 189.317 66.275 C 187.988 68.357 187.968 69.544 187.968 146.016 L 187.968 223.645 L 189.481 226.093 C 194.834 234.746 209.398 234.266 213.957 225.283 C 215.242 222.746 215.276 220.8 215.276 146.36 C 215.276 60.62 215.662 67.202 210.373 62.708 C 208.896 61.454 201.453 58.654 201.453 59.352 C 201.453 59.377 199.962 59.684 198.138 60.036"
        fill="#0a3459" fill-rule="evenodd" id="path0" stroke="none"
        transform="matrix(0.9999999999999999, 0, 0, 0.9999999999999999, -1.1368683772161603e-13, 0)" />
    <path style=""
        d="M 249.26 113.65 C 243.1 117.823 243.286 116.821 243.066 147.379 C 242.736 194.159 243.613 223.198 245.443 225.775 C 250.401 232.762 261.92 232.926 268.059 226.093 C 271.338 222.445 271.449 220.064 270.868 165.838 L 270.374 119.554 L 268.692 116.947 C 264.935 111.124 255.382 109.505 249.26 113.65"
        fill="#0a3459" fill-rule="evenodd" id="path0" stroke="none"
        transform="matrix(0.9999999999999999, 0, 0, 0.9999999999999999, -1.1368683772161603e-13, 0)" />
    <path style=""
        d="M 458.687 65.181 C 454.209 67.428 451.855 76.455 454.309 81.957 C 454.734 82.912 454.082 82.596 452.097 80.888 C 442.135 72.318 431.966 73.379 426.116 83.598 L 424.336 86.702 L 424.32 83.372 C 424.253 72.011 410.219 65.298 406.662 74.925 C 404.483 80.829 409.35 90.105 414.858 90.546 C 418.165 90.808 420.549 90.373 421.746 89.284 C 423.615 87.584 423.667 88.422 421.924 92.129 C 418.067 100.33 421.016 108.735 427.748 108.735 C 429.517 108.735 431.13 108.464 431.333 108.132 C 431.535 107.802 432.521 107.322 433.523 107.071 C 434.523 106.82 436.255 105.957 437.371 105.159 C 439.642 103.532 448.501 103.28 452.074 104.737 C 453.51 105.324 454.429 105.237 456.458 104.333 C 463.307 101.273 463.74 93.164 457.427 86.194 C 455.636 84.218 455.867 83.852 458.135 85.075 C 459.942 86.046 465.053 84.665 466.927 82.697 C 475.223 73.976 468.715 60.142 458.687 65.181"
        fill="#fdf2d9" fill-rule="evenodd" id="path5" stroke="none"
        transform="matrix(0.9999999999999999, 0, 0, 0.9999999999999999, -1.1368683772161603e-13, 0)" />
    <path style=""
        d="M 440.936 51.14 C 436.658 54.523 436.041 66.389 439.928 70.571 C 443.904 74.847 453.157 71.567 454.365 65.457 C 456.689 53.705 448.598 45.08 440.936 51.14"
        fill="#fdf2d9" fill-rule="evenodd" id="path5" stroke="none"
        transform="matrix(0.9999999999999999, 0, 0, 0.9999999999999999, -1.1368683772161603e-13, 0)" />
    <path style=""
        d="M 430 55.899 C 435.572 61.066 435.686 71.478 430.194 73.801 C 421.965 77.279 414.053 62.04 420.549 55.224 C 423.453 52.176 426.191 52.371 430 55.899"
        fill="#fdf2d9" fill-rule="evenodd" id="path5" stroke="none"
        transform="matrix(0.9999999999999999, 0, 0, 0.9999999999999999, -1.1368683772161603e-13, 0)" />
    <path style=""
        d="M 445.85 78.071 C 463.582 86.99 466.061 105.324 449.248 103.177 C 442.707 102.342 438.437 102.758 436.016 104.464 C 426.099 111.459 418.07 105.279 422.626 94.161 C 423.542 91.922 424.295 89.868 424.295 89.594 C 424.303 88.458 428.692 81.815 430.633 80 C 435.719 75.249 439.331 74.791 445.85 78.071"
        fill="#fdf2d9" fill-rule="evenodd" id="path5" stroke="none"
        transform="matrix(0.9999999999999999, 0, 0, 0.9999999999999999, -1.1368683772161603e-13, 0)" />
    <path style=""
        d="M 466.608 66.389 C 467.422 66.962 468.424 68.69 468.838 70.228 C 471.733 81.039 458.626 90.278 455.184 79.849 C 452.224 70.884 459.992 61.731 466.608 66.389"
        fill="#fdf2d9" fill-rule="evenodd" id="path5" stroke="none"
        transform="matrix(0.9999999999999999, 0, 0, 0.9999999999999999, -1.1368683772161603e-13, 0)" />
    <path style=""
        d="M 422.468 52.365 C 417.576 53.806 415.599 64.849 419.264 70.272 C 426.18 80.505 437.974 74.409 435.047 62.119 C 434.064 57.993 429.403 52.469 426.907 52.469 C 426.274 52.469 425.352 52.346 424.861 52.198 C 424.367 52.047 423.29 52.125 422.468 52.365"
        fill="#fdf2d9" fill-rule="evenodd" id="path5" stroke="none"
        transform="matrix(0.9999999999999999, 0, 0, 0.9999999999999999, -1.1368683772161603e-13, 0)" />
    <path style=""
        d="M 417.582 72.824 C 422.901 76.634 424.942 84.26 421.549 87.668 C 418.378 90.856 415.247 90.602 411.088 86.814 C 403.039 79.489 408.989 66.671 417.582 72.824"
        fill="#fdf2d9" fill-rule="evenodd" id="path5" stroke="none"
        transform="matrix(0.9999999999999999, 0, 0, 0.9999999999999999, -1.1368683772161603e-13, 0)" />
    <path style=""
        d="M 79.662 313.441 C 79.493 313.907 79.598 328.953 79.598 328.953 L 63.632 329.134 L 63.632 347.44 L 79.29 347.049 L 79.14 362.352 L 97.822 362.41 C 97.541 364.596 97.208 347.39 97.358 347.206 C 97.8 346.658 113.128 346.734 113.128 346.734 L 113.527 329.134 L 98.355 328.755 C 97.036 328.799 98.138 313.31 97.547 313.338"
        fill="#7fc7cd" fill-rule="evenodd" id="path2" stroke="none"
        transform="matrix(0.9999999999999999, 0, 0, 0.9999999999999999, -1.1368683772161603e-13, 0)" />
    <path style=""
        d="M 451.7 52.982 C 458.143 61.063 451.289 74.32 442.438 70.886 C 437.166 68.84 437.041 55.972 442.255 51.838 C 444.917 49.725 449.548 50.286 451.7 52.982"
        fill="#fdf2d9" fill-rule="evenodd" id="path5" stroke="none"
        transform="matrix(0.9999999999999999, 0, 0, 0.9999999999999999, -1.1368683772161603e-13, 0)" />
    <path style=""
        d="M 408.775 73.315 C 402.626 81.15 414.625 94.63 421.549 87.668 C 424.231 84.972 424.236 82.518 421.563 77.82 C 417.873 71.339 411.96 69.253 408.775 73.315"
        fill="#fbb949" fill-rule="evenodd" id="path4" stroke="none"
        transform="matrix(0.9999999999999999, 0, 0, 0.9999999999999999, -1.1368683772161603e-13, 0)" />
    <path style=""
        d="M 435.425 76.768 C 431.177 78.778 424.314 86.686 424.295 89.594 C 424.295 89.868 423.542 91.922 422.626 94.161 C 420.527 99.283 420.524 100.662 422.604 103.975 C 425.505 108.598 429.928 108.76 436.016 104.464 C 438.437 102.758 442.707 102.342 449.248 103.177 C 462.61 104.883 465.031 94.457 453.732 83.861 C 446.511 77.089 440.045 74.585 435.425 76.768"
        fill="#fbb949" fill-rule="evenodd" id="path4" stroke="none"
        transform="matrix(0.9999999999999999, 0, 0, 0.9999999999999999, -1.1368683772161603e-13, 0)" />
    <path style=""
        d="M 442.255 51.838 C 437.041 55.972 437.166 68.84 442.438 70.886 C 449.828 73.753 455.536 66.526 453.574 56.79 C 452.491 51.414 446.236 48.678 442.255 51.838"
        fill="#fbb949" fill-rule="evenodd" id="path4" stroke="none"
        transform="matrix(0.9999999999999999, 0, 0, 0.9999999999999999, -1.1368683772161603e-13, 0)" />
    <path style=""
        d="M 457.766 67.288 C 452.982 72.307 453.623 82.641 458.798 83.928 C 465.242 85.527 470.875 77.84 468.838 70.228 C 467.452 65.058 461.417 63.456 457.766 67.288"
        fill="#fbb949" fill-rule="evenodd" id="path4" stroke="none"
        transform="matrix(0.9999999999999999, 0, 0, 0.9999999999999999, -1.1368683772161603e-13, 0)" />
    <path style=""
        d="M 420.549 55.224 C 417.74 58.172 417.623 65.714 420.325 69.803 C 423.542 74.671 430.836 75.757 432.918 71.673 C 437.885 61.94 427.415 48.016 420.549 55.224"
        fill="#fbb949" fill-rule="evenodd" id="path4" stroke="none"
        transform="matrix(0.9999999999999999, 0, 0, 0.9999999999999999, -1.1368683772161603e-13, 0)" />
</svg>