<svg xmlns="http://www.w3.org/2000/svg" viewBox="0 0 499.363 429.936" xmlns:bx="https://boxy-svg.com">
    <g transform="matrix(1.228731, 0, 0, 1.212864, -63.175499, -71.384689)" style="">
        <path d="M 373.413 138.251 C 373.677 144.964 372.321 189.719 373.013 194.595 C 373.705 199.47 374.657 205.635 375.129 208.294 C 375.6 210.953 376.664 215.17 377.495 217.664 C 378.326 220.159 380.502 225.349 382.332 229.198 L 385.658 236.197 L 383.761 238.235 C 382.717 239.356 378.613 241.855 374.642 243.788 C 370.67 245.721 364.174 248.24 360.206 249.385 C 356.237 250.531 350.46 251.832 347.369 252.276 C 344.277 252.72 338.428 253.403 334.372 253.792 C 328.123 254.392 327.982 252.881 323.564 255.362 C 320.696 256.974 298.223 264.358 298.223 264.769 C 298.223 265.179 290.364 273.672 294.224 273.824 C 298.086 273.976 322.932 270.215 329.992 269.892 C 337.053 269.57 346.693 269.122 349.561 268.612 C 352.429 268.104 359.263 266.439 364.746 264.912 C 370.228 263.385 378.479 259.01 381.6 257.526 C 384.722 256.042 385.994 252.304 388.176 250.818 C 391.026 248.879 392.966 244.765 394.557 241.581 C 395.775 239.143 398.926 232.178 399.22 230.703 C 399.69 228.36 392.625 216.066 390.113 213.481 L 373.413 138.251 Z M 237.224 251.18 C 235.857 252.183 230.389 258.539 227.914 259.868 C 226.573 260.588 195.033 264.841 166.403 265.252 C 142.175 265.6 121.002 262.154 121.003 262.256 C 121.006 262.473 121.494 270.171 122.997 272.738 C 123.172 273.037 137.07 274.821 151.956 274.01 C 182.423 272.352 226.013 267.024 227.513 266.267 C 229.006 265.513 236.978 257.673 239.52 256.058 L 237.224 251.18 Z M 395.435 260.321 C 391.194 262.89 374.386 272.713 368.021 274.764 C 362.592 276.514 355.983 278.483 353.335 279.141 C 350.688 279.798 345 280.77 340.696 281.301 C 335.9 281.89 327.36 282.107 318.632 281.861 C 305.964 281.502 303.334 281.176 294.767 278.904 C 289.472 277.499 282.673 275.417 279.659 274.277 C 275.824 272.825 273.805 267.712 273.215 268.305 C 272.624 268.898 272.475 274.278 274.374 275.439 C 275.867 276.352 280.874 278.294 284.487 279.607 C 288.1 280.922 294.238 282.538 298.126 283.199 C 302.015 283.86 308.988 284.832 313.621 285.358 C 318.654 285.929 325.759 286.105 331.272 285.795 C 336.347 285.509 343.567 284.727 347.318 284.057 C 351.069 283.388 356.484 282.256 359.353 281.544 C 362.221 280.832 366.914 279.325 369.783 278.196 C 371.278 277.608 379.616 274.365 385.3 271.059 C 390.521 268.023 394.145 265.646 395.295 263.798 L 395.435 260.321 Z" stroke="none" fill="#eebc73" fill-rule="evenodd" style="stroke-width: 1;">
            <bx:title>sombra1</bx:title>
        </path>
        <path d="M 200.571 220.112 C 200.282 220.869 176.077 241.831 168.952 241.583 C 161.441 241.321 130.775 238.729 127.11 237.249 C 123.445 235.77 118.449 234.179 117.128 233.233 C 115.807 232.289 111.627 229.469 110.876 229.687 C 110.126 229.905 79.999 196.92 82.907 204.684 C 84.981 210.22 90.049 219.353 94.082 224.512 C 99.984 232.062 119.137 246.341 120.522 247.29 C 121.907 248.239 128.994 251.511 134.667 252.907 C 140.339 254.303 148.039 255.818 151.778 256.272 C 155.517 256.727 163.46 257.097 169.429 257.095 C 175.932 257.093 184.467 256.473 190.728 255.548 C 196.475 254.698 204.146 253.242 207.776 252.311 C 211.406 251.381 216.994 249.675 220.194 248.52 C 223.394 247.366 228.054 245.391 230.55 244.131 C 233.045 242.872 235.853 241.903 236.041 241.338 C 236.229 240.772 245.236 238.143 243.656 236.887 C 242.076 235.631 257.551 148.781 256.354 147 C 255.156 145.218 253.519 142.935 252.652 140.609 C 251.787 138.284 236.321 118.218 235.811 115.392 C 235.687 114.704 208.52 102.97 205.729 111.346 C 197.051 137.388 204.904 210.333 204.483 209.527 L 200.571 220.112 Z" stroke="none" fill="#e8cca6" fill-rule="evenodd" style="stroke-width: 1;"></path>
        <path d="M 229.855 243.796 C 227.403 245.053 221.79 247.345 217.379 248.886 C 212.969 250.428 205.588 252.438 200.977 253.354 C 196.366 254.269 188.803 255.445 184.17 255.965 C 179.121 256.533 170.761 256.729 163.31 256.456 C 155.798 256.181 147.538 255.339 142.45 254.33 C 137.816 253.411 131.8 251.756 128.932 250.874 C 126.063 249.991 123.142 248.36 122.662 248.357 C 122.18 248.353 121.429 250.362 120.917 251.491 C 120.404 252.62 119.417 257.1 119.417 257.655 C 119.417 257.849 130.637 264 143.407 265.019 C 167.658 266.953 202.294 264.33 206.572 263.297 C 213.103 261.718 230.1 253.872 234.585 252.115 C 239.069 250.357 236.363 243.503 235.448 242.613 C 234.484 241.675 233.641 241.854 229.855 243.796 Z" stroke="none" fill="#97abd3" fill-rule="evenodd" style="stroke-width: 1;">
            <bx:title>sonbracollar</bx:title>
        </path>
        <path d="M 232.764 235.922 C 233.442 236.494 237.94 242.152 238.904 242.659 C 239.868 243.166 242.823 245.277 245.471 247.35 C 248.118 249.422 259.417 255.77 263.714 257.374 C 268.012 258.979 275.87 263.059 280.177 263.911 C 284.485 264.763 290.539 273.833 292.966 274.111 C 295.393 274.388 295.575 265.11 296.535 265.305 C 298.061 265.615 317.973 258.501 320.213 257.27 L 324.286 255.033 L 311.172 254.861 C 303.959 254.767 294.169 254.301 289.415 253.826 C 284.662 253.351 276.965 252.251 272.312 251.38 C 267.659 250.509 232.086 235.35 232.764 235.922 Z M 221.619 260.217 C 216.856 260.357 205.15 267.554 188.408 269.868 C 173.724 271.899 153.254 270.207 153.238 270.436 C 153.206 270.897 149.56 278.511 155.513 275.011 C 161.466 271.511 221.69 277.473 224.685 266.715 C 224.685 266.715 224.166 260.142 221.619 260.217 Z" stroke="none" fill="#e4d5b4" fill-rule="evenodd" style="stroke-width: 1;">
            <bx:title>sombra</bx:title>
        </path>
        <path d="M 216.106 71.001 C 214.165 72.388 209.698 76.468 206.182 80.067 C 202.664 83.666 203.251 84.352 202.995 85.024 C 202.738 85.695 189.494 106.29 189.484 105.515 C 189.47 104.494 185.424 104.662 179.913 104.748 C 175.373 104.818 174.183 103.655 175.195 105.648 C 176.064 107.358 170.272 115.205 171.337 118.897 C 172.402 122.588 179.685 125.455 180.153 129.663 C 180.621 133.871 119.626 206.347 107.306 205.599 C 95.33 204.873 82.846 204.066 82.682 204.217 C 82.525 204.361 84.903 207.724 88.07 211.506 C 91.611 215.734 95.763 220.422 97.252 221.52 C 100.074 223.602 107.946 230.602 107.946 230.602 L 117.496 236.779 C 121.397 238.713 127.521 241.956 131.739 243.295 C 135.958 244.633 143.2 246.53 147.833 247.508 C 154.963 249.015 158.846 249.291 173.106 249.305 C 187.616 249.318 191.11 249.069 198.282 247.508 C 202.862 246.51 209.993 244.606 214.128 243.275 C 218.262 241.945 229.163 238.898 229.163 238.621 C 229.163 238.507 223.554 229.862 222.473 225.787 C 220.919 219.934 219.562 213.938 219.691 210.981 L 219.632 202.653 C 219.632 202.653 220.089 199.951 221.511 195.353 C 223.019 190.476 225.796 186.231 227.553 183.998 C 229.31 181.766 232.213 178.419 235.242 176.396 C 238.271 174.374 240.49 171.882 241.197 171.077 C 241.904 170.272 243.625 167.318 245.023 164.513 C 246.42 161.708 248.627 156.516 249.927 152.975 C 251.226 149.434 252.29 145.655 252.29 144.577 C 252.29 143.499 252.659 142.617 253.109 142.617 C 253.56 142.617 253.914 142.123 251.522 138.566 C 249.131 135.007 245.805 130.113 245.282 130.639 C 244.846 131.077 240.715 131.465 236.104 131.501 C 230.043 131.548 226.51 131.164 223.357 130.116 C 220.958 129.319 217.68 127.837 216.072 126.823 C 214.465 125.808 212.346 123.844 211.363 122.458 C 210.38 121.072 209.078 118.274 208.468 116.241 C 207.859 114.208 207.361 110.234 207.361 107.41 C 207.361 104.357 213.43 99.313 214.42 96.333 C 215.095 94.305 211.381 90.691 213.204 85.923 C 213.86 84.209 214.534 82.466 215.188 80.8 C 217.908 73.867 219.225 71.859 219.988 71.652 C 221.116 71.348 222.327 70.114 221.18 70.03 C 220.474 69.978 218.048 69.614 216.106 71.001 Z M 254.486 169.517 C 250.735 170.11 246.253 172.888 244.267 173.688 C 242.281 174.487 239.371 175.944 237.799 176.926 C 236.227 177.906 233.256 180.592 231.197 182.893 C 229.137 185.194 226.337 189.35 224.976 192.13 C 223.146 195.861 222.38 198.753 222.046 203.187 C 221.738 207.288 222.028 211.349 222.962 215.996 C 223.714 219.738 225.363 224.975 226.626 227.634 C 227.888 230.294 230.118 233.621 231.58 235.028 C 233.042 236.436 236.946 239.031 240.256 240.795 C 243.565 242.559 251.147 245.471 257.104 247.266 C 263.061 249.061 271.817 251.803 277.112 252.716 C 283.882 253.884 294.595 255.534 307.685 255.897 L 324.567 255.109 L 336.962 249.807 C 338.534 248.602 341.231 245.734 342.954 243.434 C 344.677 241.135 346.869 237.259 347.827 234.822 C 348.987 231.865 349.71 227.824 349.998 222.681 C 350.327 216.783 350.108 213.863 349.059 210.239 C 348.305 207.635 346.464 203.126 344.968 200.218 C 343.472 197.311 341.787 194.367 341.224 193.677 C 340.66 192.988 340.429 189.158 337.54 187.808 C 334.651 186.457 330.995 183.905 329.283 182.399 C 327.572 180.894 313.848 181.478 312.603 179.51 C 310.687 176.48 309.637 175.708 305.725 174.455 C 303.185 173.642 300.711 167.263 296.298 166.14 C 290.183 164.583 281.873 168.157 273.312 167.91 C 266.268 167.706 258.762 168.843 254.486 169.517 Z M 224.59 264.753 C 224.201 264.769 219.991 267.349 213.419 268.85 C 203.876 271.03 190.965 272.384 190.965 272.384 L 168.959 273.547 C 154.038 273.547 144.499 272.578 144.06 273.967 C 143.801 274.789 141.695 279.289 141.043 283.01 C 140.391 286.732 139.857 291.148 139.856 292.823 C 139.856 294.722 138.696 295.457 137.981 295.732 C 137.35 295.975 155.612 300.62 164.438 301.752 C 173.263 302.885 185.719 304.333 192.117 304.972 C 198.516 305.61 208.083 306.345 213.378 306.605 C 218.674 306.865 242.502 306.834 246.253 307.246 C 250.003 307.658 248.367 306.832 248.367 306.832 L 246.953 296.759 C 246.175 291.219 244.814 283.604 243.929 279.836 C 243.043 276.069 225.662 272.026 225.382 270.143 C 224.957 267.296 226.032 264.695 224.59 264.753 Z M 249.918 271.553 C 249.902 271.775 249.935 271.332 249.918 271.553 Z" stroke="none" fill="#f9f5da" fill-rule="evenodd" style="stroke-width: 1;">
            <bx:title>piel</bx:title>
        </path>
        <path d="M 306.446 103.485 C 303.798 104.037 299.285 105.303 296.417 106.299 C 293.549 107.296 289.11 109.292 286.553 110.736 C 283.996 112.181 279.535 115.322 276.64 117.716 C 273.745 120.109 270.32 123.601 269.028 125.475 C 267.736 127.349 264.976 131.897 262.894 135.583 C 260.813 139.269 258.485 143.539 257.721 145.07 C 256.957 146.602 254.329 153.254 251.88 159.851 C 249.431 166.449 247.408 172.531 247.532 172.635 C 247.656 172.74 251.488 171.701 255.901 171.056 C 261.284 170.27 267.044 170.327 273.773 170.619 C 280.485 170.91 286.634 171.416 292.004 172.755 C 296.417 173.855 301.607 175.32 303.538 176.012 C 305.469 176.703 307.309 177.269 307.628 177.269 C 307.947 177.269 330.976 196.149 332.007 197.326 C 332.631 198.04 334.236 200.819 335.571 203.501 C 336.907 206.184 338.617 210.512 339.371 213.119 C 340.423 216.749 340.643 219.665 340.313 225.567 C 340.024 230.722 339.304 234.738 338.14 237.691 C 337.183 240.119 335.136 243.834 333.593 245.945 C 332.05 248.057 329.558 250.802 328.056 252.046 L 324.061 254.833 L 332.875 254.723 C 335.405 254.373 341.145 253.567 346.016 252.931 C 350.887 252.295 357.972 250.188 362.147 249.022 C 366.322 247.857 372.99 245.326 376.966 243.398 C 380.941 241.47 384.881 239.132 385.719 238.201 C 387.223 236.531 385.748 235.314 383.517 230.748 C 382.273 228.202 381.527 224.483 380.553 222.267 C 379.579 220.051 378.576 215.33 377.671 211.341 C 376.767 207.353 375.687 199.91 375.007 194.37 C 374.327 188.83 373.584 181.033 373.354 177.044 C 373.125 173.055 373.304 162.539 373.751 153.674 C 374.2 144.81 374.924 135.2 375.36 132.319 C 375.796 129.439 377.07 125.28 378.19 123.08 C 380.136 119.252 377.49 118.851 376.097 117.797 C 375.296 117.191 370.67 114.76 365.816 112.396 C 360.962 110.031 354.464 107.347 351.375 106.432 C 348.286 105.515 342.553 104.217 338.633 103.546 C 334.58 102.851 327.143 102.359 321.384 102.404 C 315.816 102.448 309.093 102.934 306.446 103.485 Z M 395.509 263.555 C 395.198 262.273 394.345 265.272 390.724 267.502 C 388.186 269.064 383.584 271.612 380.495 273.164 C 377.406 274.715 371.088 277.274 366.454 278.849 C 361.821 280.424 355.223 282.284 351.791 282.983 C 348.36 283.681 340.843 284.663 335.088 285.163 C 327.158 285.853 322.088 285.841 314.147 285.113 C 308.384 284.584 300.376 283.465 296.351 282.627 C 292.325 281.788 287.454 280.538 285.524 279.847 C 283.595 279.156 279.895 277.635 277.301 276.466 C 273.775 274.877 272.804 272.012 272.753 270.738 C 272.692 269.226 270.714 275.429 270.143 277.219 C 269.79 278.327 269.864 277.972 268.277 281.649 C 266.691 285.326 264.224 294.841 263.087 298.587 C 261.949 302.333 259.511 305.922 259.511 306.562 C 259.511 307.351 259.19 308.135 267.133 307.994 C 275.076 307.854 290.257 307.209 300.869 306.561 C 311.481 305.913 325.922 304.649 332.961 303.752 C 340 302.856 351.896 301.033 359.398 299.701 C 366.899 298.369 376.087 296.557 379.814 295.675 C 383.542 294.793 390.401 292.964 395.058 291.609 C 399.714 290.254 403.824 288.859 404.189 288.507 C 404.554 288.155 403.113 279.759 400.697 274.054 C 398.281 268.348 395.723 264.442 395.509 263.555 Z" stroke="none" fill="#fce19f" fill-rule="evenodd" style="stroke-width: 1;">
            <bx:title>perro</bx:title>
        </path>
        <path d="M 280.575 72.982 C 280.833 73.242 263.562 74.448 262.887 76.731 C 262.212 79.013 246.877 92.26 244.022 95.818 C 241.166 99.376 243.686 113.125 240.541 116.105 C 237.397 119.085 250.055 119.248 250.301 119.248 C 250.548 119.248 252.269 118.475 254.127 117.531 C 255.985 116.587 258.463 115.136 259.634 114.307 C 260.806 113.479 262.435 112.801 263.256 112.801 C 264.076 112.801 266.623 114.07 268.917 115.622 C 271.21 117.173 273.944 119.743 274.199 119.743 C 274.452 119.743 276.918 117.501 279.82 115.266 C 282.723 113.031 287.451 110.131 290.327 108.822 C 293.202 107.512 296.951 106.063 298.659 105.601 C 300.366 105.14 301.763 104.64 301.763 104.493 C 301.763 104.344 300.467 101.602 299.534 99.483 C 298.601 97.364 296.129 92.648 294.041 89.004 C 291.954 85.36 288.545 80.159 286.465 77.444 C 284.386 74.73 282.103 72.509 281.394 72.509 C 280.684 72.509 280.315 72.721 280.575 72.982 Z M 325.278 158.508 C 324.187 159.27 322.675 160.63 321.917 161.53 C 321.16 162.43 319.96 164.882 319.25 166.978 C 318.541 169.075 318.192 171.522 318.475 172.418 C 318.809 173.475 319.688 174.046 320.982 174.046 C 322.511 174.046 323.256 173.372 324.179 171.15 C 324.842 169.558 325.257 167.874 325.103 167.407 C 324.948 166.941 324.373 168.062 323.825 169.899 C 323.09 172.362 322.409 173.24 321.231 173.24 C 320.352 173.24 319.431 172.709 319.183 172.061 C 318.935 171.413 319.317 169.114 320.032 166.953 C 320.747 164.792 322.377 162.017 323.656 160.787 C 325.229 159.274 327.102 158.427 329.451 158.168 C 332.184 157.867 333.519 158.19 335.73 159.687 C 337.274 160.732 339.169 162.849 339.94 164.391 C 340.832 166.173 341.344 166.653 341.344 165.708 C 341.345 164.89 340.596 163.163 339.678 161.868 C 338.761 160.575 336.973 158.978 335.707 158.319 C 334.439 157.661 332.021 157.123 330.332 157.123 C 328.643 157.123 326.369 157.746 325.278 158.508 Z M 332.893 163.852 C 333.963 164.637 334.463 166.259 334.692 169.694 C 334.868 172.309 335.179 175.264 335.386 176.262 C 335.671 177.642 336.32 178.075 338.105 178.075 C 339.394 178.075 340.678 177.702 340.958 177.248 C 341.238 176.793 341.604 174.346 341.774 171.808 L 342.08 167.196 L 341.389 171.51 C 341.01 173.883 340.341 176.183 339.904 176.622 C 339.467 177.061 338.439 177.291 337.62 177.134 C 336.388 176.898 336.054 175.855 335.683 171.082 C 335.437 167.911 334.761 164.742 334.181 164.04 C 333.601 163.338 332.74 162.764 332.269 162.764 C 331.798 162.764 332.079 163.254 332.893 163.852 Z M 446.493 195.602 C 445.898 197.264 378.908 193.979 378.908 194.746 C 378.908 195.514 380.159 200.897 381.509 204.951 C 382.859 209.006 385.266 214.68 386.857 217.561 C 388.448 220.442 391.224 224.721 393.026 227.07 C 394.829 229.42 398.014 232.405 400.104 233.705 C 402.194 235.004 405.554 236.484 407.573 236.995 C 409.591 237.505 413.164 237.724 415.514 237.48 C 417.863 237.237 421.903 236.039 424.492 234.82 C 427.601 233.355 431.267 230.529 435.292 226.493 C 439.559 222.213 442.125 218.812 443.852 215.144 C 445.208 212.263 446.888 207.678 447.586 204.955 C 448.284 202.231 448.855 198.333 448.855 196.292 C 448.855 194.251 448.566 190.423 448.214 190.423 L 446.493 195.602 Z" stroke="none" fill="#a8a1cb" fill-rule="evenodd" style="stroke-width: 1;">
            <bx:title>sumbra orejas</bx:title>
        </path>
        <path d="M 387.478 249.948 C 385.272 251.339 380.859 253.674 377.672 255.136 C 374.484 256.597 368.347 258.873 364.033 260.194 C 359.718 261.514 352.603 263.187 348.22 263.912 C 343.837 264.637 336.255 265.507 331.372 265.844 C 326.488 266.181 319.062 266.343 314.87 266.206 C 310.678 266.069 303.999 265.549 300.027 265.051 C 296.056 264.554 289.738 263.615 285.987 262.965 C 282.236 262.316 277.866 261.584 276.276 261.34 C 273.736 260.951 273.323 261.128 272.877 262.8 C 272.598 263.847 272.365 266.081 272.359 267.764 C 272.351 270.021 272.887 271.326 274.402 272.736 C 275.531 273.788 279.052 275.584 282.224 276.727 C 285.397 277.87 291.062 279.515 294.812 280.383 C 298.563 281.251 304.691 282.339 308.431 282.8 C 312.169 283.263 319.39 283.634 324.477 283.626 C 329.563 283.618 337.415 283.084 341.924 282.44 C 346.435 281.796 353.024 280.526 356.566 279.618 C 360.107 278.71 365.623 277.022 368.823 275.867 C 372.024 274.711 377.71 272.219 381.461 270.327 C 385.212 268.434 389.725 265.729 391.49 264.317 C 393.255 262.903 394.97 261.019 395.302 260.129 C 395.645 259.209 395.377 256.69 394.68 254.28 C 394.006 251.952 393.013 249.455 392.472 248.732 C 391.585 247.544 391.104 247.661 387.478 249.948 Z" stroke="none" fill="#bfe4bc" fill-rule="evenodd" style="stroke-width: 1;">
            <bx:title>collarperro</bx:title>
        </path>
        <path d="M 86.456 92.789 C 85.486 93.273 84.138 94.843 83.46 96.277 C 82.783 97.712 81.612 101.382 80.858 104.433 C 79.795 108.734 79.493 113.511 79.512 125.695 C 79.531 137.717 79.945 144.03 81.271 152.569 C 82.224 158.708 83.004 165.325 83.004 167.276 L 83.004 170.822 L 81.984 185.715 C 81.984 185.715 82.53 203.538 82.692 204.212 C 82.854 204.886 96.466 206.032 101.016 206.394 C 105.566 206.756 128.698 206.326 129.423 206.383 C 130.148 206.441 132.546 206.408 134.752 206.312 C 136.959 206.215 141.123 205.646 144.006 205.047 C 146.89 204.448 152.341 202.834 156.121 201.46 C 160.709 199.792 164.565 197.692 167.726 195.139 C 170.331 193.037 174.14 189.089 176.192 186.367 C 178.244 183.645 180.679 179.388 181.603 176.908 C 182.527 174.427 183.691 169.776 184.189 166.573 C 184.732 163.082 184.885 157.441 184.569 152.491 C 184.28 147.949 184.603 143.307 184.263 142.38 C 183.999 141.664 183.649 136.414 183.252 131.204 C 182.811 125.403 176.967 106.051 176.38 104.905 C 175.508 103.199 159.68 106.685 157.694 106.977 L 155.267 107.335 C 155.267 107.335 141.365 111.611 141.011 111.634 C 140.657 111.658 139.099 111.954 137.545 112.293 C 134.952 112.86 134.071 112.471 126.714 107.499 C 122.31 104.523 115.818 100.721 112.288 99.049 C 108.758 97.379 103.703 95.293 101.056 94.416 C 98.408 93.537 94.437 92.615 92.23 92.363 C 89.961 92.105 87.453 92.29 86.456 92.789 Z M 120.566 265.782 C 120.288 266.511 111.609 282.09 111.548 282.211 C 111.487 282.333 110.829 283.778 110.086 285.423 C 109.341 287.069 108.991 288.563 109.307 288.744 C 109.623 288.924 113.837 290.242 118.673 291.674 C 123.507 293.106 131.27 295.144 135.922 296.204 C 140.574 297.265 145.373 298.426 146.586 298.43 C 148.642 298.436 148.796 297.912 148.835 294.721 C 148.859 292.838 149.537 287.879 150.342 283.702 C 150.973 280.429 151.887 275.697 152.236 273.384 C 152.355 272.596 143.048 271.225 138.856 270.226 C 134.664 269.228 128.68 268.233 125.955 266.962 C 121.991 265.113 121.236 264.553 120.89 265.458 L 120.566 265.782 Z M 224.414 264.753 C 223.843 265.195 227.338 278.224 227.747 279.265 C 228.082 280.12 229.019 284.265 229.829 288.476 C 230.638 292.687 231.547 298.529 231.848 301.46 L 232.395 306.788 L 238.453 307.302 C 241.784 307.585 247.885 307.816 252.01 307.816 C 256.136 307.816 259.511 307.658 259.511 307.463 C 259.511 307.269 258.96 304.64 258.286 301.621 C 257.613 298.601 256.159 292.62 255.056 288.329 C 253.953 284.038 252.247 278.749 251.266 276.575 L 247.097 267.758 C 247.097 267.758 245.092 264.048 243.95 262.278 C 242.573 260.143 239.494 256.095 239.494 256.095 L 232.245 260.832 L 224.414 264.753 Z" stroke="none" fill="#f2ce9e" fill-rule="evenodd" style="stroke-width: 1;">
            <bx:title>gato</bx:title>
        </path>
        <path d="M 261.837 68.719 C 259.366 69.764 254.492 72.181 251.006 74.089 C 247.52 75.997 241.677 79.504 238.022 81.883 C 234.366 84.262 231.153 86.208 230.883 86.208 C 230.613 86.208 221.775 83.804 218.17 87.461 C 214.525 91.159 212.915 98.51 211.898 100.646 C 210.891 102.759 213.433 107.782 213.201 109.521 C 212.969 111.259 213.004 114.41 213.279 115.511 C 213.554 116.611 214.76 118.683 215.959 120.114 C 217.158 121.545 219.747 123.431 221.712 124.304 C 224.29 125.45 226.977 125.878 231.366 125.843 C 235.33 125.811 239.095 125.217 242.181 124.135 C 244.784 123.222 250.548 119.248 250.301 119.248 C 250.055 119.248 252.427 116.81 255.571 113.83 C 258.716 110.85 263.625 105.502 266.481 101.944 C 269.336 98.386 273.229 92.388 275.131 88.616 C 277.034 84.843 279.143 79.888 279.818 77.606 C 280.493 75.323 280.833 73.242 280.575 72.982 C 280.315 72.721 280.707 72.509 281.443 72.509 C 282.191 72.509 284.824 75.309 287.394 78.84 C 289.929 82.323 293.635 88.386 294.213 89.225 C 294.789 90.064 293.269 86.709 292.251 84.859 C 291.232 83.009 288.694 79.303 286.609 76.623 C 284.524 73.945 281.322 70.758 279.495 69.544 C 276.972 67.867 274.987 67.273 271.251 67.077 C 267.47 66.879 265.291 67.259 261.837 68.719 Z M 380.659 119.539 C 378.52 120.237 377.428 121.321 376.078 124.083 C 375.103 126.077 373.932 130.066 373.477 132.947 C 373.021 135.828 372.649 141.993 372.649 146.647 C 372.65 151.3 373.185 160.004 373.836 165.987 C 374.488 171.97 375.796 180.855 376.744 185.73 C 377.691 190.606 378.701 194.776 378.988 194.998 C 379.274 195.219 380.749 197.369 382.265 199.775 C 383.781 202.181 387.053 206.648 389.537 209.7 C 392.02 212.754 395.752 216.465 397.829 217.948 C 399.906 219.431 403.442 221.087 405.686 221.628 C 408.103 222.21 412.023 222.421 415.302 222.145 C 418.656 221.863 422.58 220.878 425.256 219.648 C 427.817 218.47 431.615 215.659 434.296 212.955 C 436.839 210.392 440.381 206.118 442.166 203.459 C 443.952 200.8 446.071 197.212 446.666 195.55 C 447.07 194.42 448.19 192.822 448.349 190.667 C 448.423 189.652 448.125 188.77 447.732 187.286 C 446.6 183.015 444.374 175.478 442.834 172.539 C 441.295 169.6 437.598 163.933 434.617 159.945 C 431.637 155.957 425.764 149.249 421.568 145.037 C 417.372 140.825 411.234 135.172 407.929 132.474 C 404.624 129.776 400.088 126.283 397.85 124.712 C 395.611 123.14 392.723 121.319 391.431 120.665 C 390.14 120.01 387.819 119.283 386.275 119.048 C 384.731 118.813 382.203 119.034 380.659 119.539 Z M 331.467 139.55 C 328.902 139.883 324.985 141.148 322.764 142.363 C 320.541 143.578 317.154 146.325 315.235 148.469 C 313.317 150.612 311.005 154.356 310.099 156.789 C 308.991 159.764 308.451 163.134 308.451 167.082 C 308.451 170.359 309.021 174.631 309.74 176.751 C 310.48 178.933 312.726 182.415 315.018 184.933 C 317.627 187.801 320.857 190.231 324.353 191.956 C 329.282 194.389 330.293 194.591 337.327 194.557 C 343.977 194.524 345.485 194.243 349.072 192.376 C 351.335 191.198 354.667 188.718 356.474 186.866 C 358.282 185.014 360.507 181.95 361.419 180.058 C 362.331 178.166 363.49 174.385 363.996 171.657 C 364.708 167.809 364.685 165.577 363.894 161.708 C 363.334 158.964 361.932 154.973 360.778 152.836 C 359.625 150.701 357.476 147.889 356.002 146.589 C 354.527 145.29 351.617 143.359 349.533 142.298 C 347.451 141.238 343.583 140.05 340.938 139.658 C 338.294 139.267 334.032 139.218 331.467 139.55 Z" stroke="none" fill="#c8c0e2" fill-rule="evenodd" style="stroke-width: 1;">
            <bx:title>mancha perro</bx:title>
        </path>
        <path d="M 227.148 250.507 C 222.663 252.264 216.268 255.865 209.737 257.444 C 203.207 259.021 190.411 260.935 184.145 261.874 C 176.434 263.028 168.7 262.843 160.827 262.822 C 154.429 262.805 145.543 262.241 141.082 261.569 C 136.62 260.897 119.687 256.355 119.522 257.392 C 119.293 258.834 119.906 261.476 121.404 262.923 C 121.912 263.413 122.949 263.499 123.512 263.715 C 126.934 265.028 137.019 267.285 140.77 268.198 C 144.521 269.109 150.649 270.237 154.388 270.705 C 158.127 271.171 164.626 271.531 168.83 271.503 C 173.033 271.476 179.18 271.169 182.49 270.821 C 185.799 270.473 188.642 270.298 188.806 270.433 C 188.971 270.567 187.978 272.387 186.6 274.477 C 184.566 277.561 184.094 279.1 184.094 282.65 C 184.094 285.055 184.692 288.289 185.423 289.836 C 186.154 291.383 188.05 293.51 189.635 294.563 C 191.337 295.692 194.327 296.681 196.931 296.974 C 200.65 297.394 201.912 297.168 204.954 295.533 C 207.209 294.322 209.238 292.405 210.357 290.43 C 211.513 288.389 212.153 285.9 212.162 283.414 C 212.169 281.294 211.681 278.371 211.076 276.918 C 210.472 275.465 208.455 272.967 206.595 271.368 C 203.565 268.763 203.366 268.382 204.685 267.711 C 205.495 267.299 215.768 264.85 219.519 263.691 C 223.27 262.532 225.517 261.615 229.489 259.342 C 233.46 257.07 237.31 253.97 238.391 252.914 C 239.747 251.59 237.283 247.087 236.583 245.117 L 227.148 250.507 Z M 194.921 275.59 C 194.646 276.037 194.645 277.113 194.919 277.981 C 195.314 279.232 194.953 279.661 193.166 280.055 C 191.927 280.328 190.463 280.691 189.911 280.862 C 189.36 281.033 188.908 282.018 188.908 283.052 C 188.908 284.085 189.341 285.365 189.871 285.897 C 190.4 286.429 191.821 286.864 193.03 286.864 C 194.92 286.864 195.26 287.228 195.477 289.483 C 195.708 291.891 195.954 292.102 198.536 292.102 C 201.118 292.102 201.364 291.891 201.595 289.483 C 201.779 287.561 202.242 286.864 203.335 286.864 C 204.153 286.864 205.394 286.644 206.092 286.375 C 206.949 286.045 207.361 284.866 207.361 282.749 C 207.361 279.701 207.282 279.612 204.553 279.612 C 201.968 279.612 201.745 279.42 201.745 277.194 C 201.745 274.917 201.561 274.777 198.583 274.777 C 196.844 274.777 195.196 275.142 194.921 275.59 Z" stroke="none" fill="#b5cce8" fill-rule="evenodd" style="stroke-width: 1;">
            <bx:title>collar gato</bx:title>
        </path>
        <path d="M 219.657 71.501 C 219.388 72.277 216.639 75.32 215.207 78.865 C 213.775 82.411 211.053 89.398 209.459 94.09 C 207.865 98.783 207.3 107.971 207.3 109.082 C 207.3 110.193 208.872 110.02 209.738 110.808 C 210.604 111.595 211.821 109.577 212.443 109.338 C 213.065 109.098 213.825 107.876 214.134 106.621 C 214.443 105.366 215.78 102.633 217.107 100.547 C 218.434 98.46 221.838 94.574 224.672 91.911 C 227.507 89.248 229.826 86.683 229.826 86.211 C 229.826 85.738 229.073 83.097 228.153 80.34 C 227.233 77.584 225.589 74.151 224.502 72.71 C 223.414 71.269 221.989 70.091 221.336 70.091 C 220.682 70.091 219.927 70.726 219.657 71.501 Z M 200.351 87.581 C 199.037 89.264 195.933 93.814 193.453 97.691 C 189.742 103.495 188.586 104.743 186.92 104.743 C 185.807 104.743 184.902 105.014 184.909 105.347 C 184.916 105.68 186.124 110.777 187.594 116.675 C 189.065 122.572 190.99 128.374 191.873 129.568 C 192.757 130.762 194.413 131.851 195.553 131.988 C 197.043 132.168 197.9 131.722 198.602 130.406 C 199.139 129.398 199.6 125.478 199.625 121.694 C 199.652 117.911 199.528 112.096 199.351 108.772 C 199.1 104.055 199.513 100.806 201.234 93.976 C 202.446 89.162 203.281 85.065 203.09 84.873 C 202.898 84.679 201.666 85.899 200.351 87.581 Z M 92.529 106.075 C 91.708 107.069 91.442 110.196 91.484 118.365 C 91.524 126.005 91.958 130.903 92.92 134.548 C 93.679 137.423 94.835 140.596 95.49 141.599 C 96.145 142.602 97.384 143.423 98.244 143.423 C 99.105 143.423 102.797 140.613 106.45 137.178 C 110.102 133.743 114.972 129.51 117.27 127.77 C 119.57 126.03 121.637 124.118 121.865 123.52 C 122.094 122.924 120.98 120.99 119.391 119.223 C 117.802 117.456 114.29 114.331 111.587 112.278 C 108.884 110.225 104.867 107.693 102.66 106.652 C 100.454 105.61 97.52 104.755 96.139 104.751 C 94.759 104.746 93.135 105.342 92.529 106.075 Z M 166.71 105.469 C 163.988 105.735 161.567 106.147 161.329 106.387 C 161.091 106.627 162.832 111.522 165.198 117.266 C 167.564 123.01 170.708 130.784 172.184 134.543 C 174.126 139.488 175.42 141.651 176.866 142.37 C 178.472 143.167 179.181 143.152 180.477 142.293 C 181.646 141.517 182.161 140.142 182.354 137.287 C 182.5 135.121 182.194 130.665 181.674 127.383 C 181.154 124.101 179.502 117.755 178.002 113.281 C 176.503 108.806 175.274 105.054 175.272 104.944 C 175.27 104.834 174.457 104.798 173.464 104.865 C 172.47 104.933 169.432 105.205 166.71 105.469 Z M 146.53 109.359 C 142.699 110.492 142.308 110.812 142.724 112.48 C 142.979 113.501 145.165 118.797 147.58 124.247 C 150.339 130.473 152.876 134.98 154.406 136.372 C 155.746 137.591 157.213 138.588 157.667 138.588 C 158.122 138.588 159.428 137.649 160.571 136.501 C 162.521 134.543 162.618 134.079 162.148 128.996 C 161.872 126.016 160.965 121.589 160.133 119.158 C 159.3 116.727 157.844 113.214 156.899 111.352 C 155.491 108.581 154.78 107.978 152.989 108.031 C 151.784 108.067 148.877 108.665 146.53 109.359 Z M 82.548 172.688 C 82.275 173.403 81.995 176.416 81.926 179.383 C 81.801 184.729 81.822 184.784 84.207 185.461 C 85.531 185.837 90.225 186.156 94.637 186.171 C 99.444 186.187 104.203 185.727 106.51 185.024 C 108.627 184.378 111.245 183.268 112.326 182.555 C 113.645 181.687 114.294 180.512 114.294 178.987 C 114.294 177.736 113.657 176.133 112.878 175.426 C 112.099 174.718 109.843 173.747 107.863 173.267 C 105.884 172.788 99.49 172.169 93.655 171.892 C 84.338 171.45 82.985 171.547 82.548 172.688 Z M 234.639 266.422 C 230.889 269.762 227.698 273.036 227.548 273.699 C 227.399 274.362 227.487 275.746 227.744 276.774 C 228.022 277.887 229.157 278.976 230.547 279.463 C 232.091 280.003 234.064 280.015 236.368 279.497 C 238.286 279.066 241.299 277.865 243.064 276.829 C 244.83 275.792 246.94 274.206 247.752 273.305 C 249.194 271.703 249.16 271.538 246.247 265.969 C 244.607 262.835 242.86 260.289 242.362 260.311 C 241.866 260.332 238.39 263.082 234.639 266.422 Z M 115.664 274.243 C 114.027 277.052 112.689 279.911 112.689 280.595 C 112.689 281.393 113.964 282.161 116.254 282.739 C 118.214 283.236 121.383 283.641 123.296 283.641 C 125.208 283.641 127.576 283.076 128.556 282.386 C 129.538 281.696 130.34 280.317 130.34 279.321 C 130.34 278.317 129.177 276.418 127.732 275.061 C 126.298 273.714 123.819 271.83 122.222 270.874 C 120.626 269.918 119.166 269.136 118.979 269.136 C 118.791 269.136 117.3 271.434 115.664 274.243 Z" stroke="none" fill="#eaa69f" fill-rule="evenodd" style="stroke-width: 1;">
            <bx:title>manchas gato</bx:title>
        </path>
        <path d="M 270.342 145.593 C 269.459 145.775 267.895 146.345 266.866 146.86 C 265.836 147.375 264.122 149.292 263.055 151.12 C 261.951 153.011 261.115 155.726 261.115 157.42 C 261.115 159.334 261.549 160.564 262.329 160.864 C 262.997 161.122 264.033 160.923 264.633 160.423 C 265.233 159.924 265.923 158.281 266.167 156.772 C 266.411 155.264 267.22 153.093 267.966 151.95 C 268.876 150.555 270.044 149.87 271.513 149.87 C 272.718 149.87 274.3 150.532 275.029 151.342 C 275.785 152.18 276.575 154.932 276.868 157.744 C 277.207 161.006 277.786 162.832 278.577 163.137 C 279.234 163.39 280.239 163.208 280.811 162.731 C 281.534 162.128 281.728 160.472 281.447 157.277 C 281.225 154.755 280.675 151.711 280.225 150.514 C 279.775 149.316 278.631 147.833 277.682 147.216 C 276.734 146.6 275.056 145.909 273.952 145.679 C 272.849 145.45 271.225 145.411 270.342 145.593 Z M 217.791 152.766 C 216.247 153.438 213.957 154.965 212.703 156.16 C 211.45 157.354 209.713 159.718 208.846 161.413 C 207.969 163.125 207.378 165.631 207.515 167.054 C 207.703 169.001 208.194 169.675 209.567 169.871 C 211.075 170.086 211.373 169.752 211.373 167.844 C 211.373 166.587 212.041 164.296 212.858 162.751 C 213.675 161.207 215.534 159.128 216.988 158.13 C 218.64 156.998 220.833 156.317 222.83 156.317 C 224.662 156.317 227.173 157.029 228.714 157.986 C 230.193 158.904 232.273 160.771 233.336 162.135 C 234.615 163.777 235.703 164.447 236.559 164.117 C 237.268 163.844 237.849 162.763 237.849 161.714 C 237.849 160.63 236.551 158.4 234.84 156.542 C 232.975 154.516 230.612 152.936 228.622 152.383 C 226.857 151.892 224.33 151.503 223.006 151.518 C 221.682 151.533 219.335 152.094 217.791 152.766 Z M 326.904 158.496 C 326.243 158.738 324.718 159.855 323.516 160.98 C 322.314 162.104 320.747 164.792 320.032 166.953 C 319.317 169.114 318.935 171.413 319.183 172.061 C 319.431 172.709 320.352 173.24 321.231 173.24 C 322.392 173.24 323.084 172.383 323.766 170.098 C 324.281 168.371 325.573 166.014 326.638 164.86 C 327.846 163.552 329.429 162.764 330.85 162.764 C 332.102 162.764 333.601 163.338 334.181 164.04 C 334.761 164.742 335.437 167.915 335.683 171.091 C 336.088 176.304 336.307 176.891 337.935 177.123 C 339.268 177.313 339.948 176.827 340.542 175.258 C 340.984 174.09 341.345 171.799 341.344 170.165 C 341.344 168.532 340.712 165.934 339.94 164.391 C 339.169 162.849 337.311 160.764 335.812 159.758 C 334.312 158.751 331.965 157.958 330.597 157.992 C 329.228 158.027 327.566 158.254 326.904 158.496 Z M 145.989 162.511 C 145.109 162.756 142.888 163.995 141.054 165.263 C 139.051 166.645 137.023 169.011 135.976 171.183 C 135.017 173.172 134.35 175.627 134.493 176.639 C 134.65 177.75 135.388 178.57 136.359 178.709 C 137.636 178.893 138.256 178.117 139.386 174.923 C 140.291 172.362 141.709 170.26 143.297 169.124 C 144.711 168.114 147.464 167.181 149.66 166.969 C 152.827 166.663 154.196 166.986 157.185 168.746 C 159.195 169.929 161.46 171.878 162.219 173.075 C 162.978 174.274 163.968 175.521 164.419 175.847 C 164.871 176.172 165.486 176.444 165.788 176.451 C 166.089 176.457 166.564 175.739 166.844 174.855 C 167.154 173.872 166.651 171.993 165.553 170.031 C 164.563 168.262 162.335 165.827 160.601 164.62 C 158.124 162.897 156.391 162.387 152.519 162.245 C 149.808 162.145 146.869 162.264 145.989 162.511 Z M 189.513 179.363 C 187.261 180.059 185.185 181.337 184.432 182.491 C 183.687 183.632 183.375 185.126 183.679 186.089 C 183.99 187.074 186.108 188.627 188.953 189.956 C 193.027 191.86 193.778 192.552 194.206 194.802 C 194.48 196.245 194.462 199.049 194.166 201.032 C 193.802 203.469 192.864 205.406 191.271 207.006 C 189.974 208.308 187.867 209.604 186.587 209.887 C 185.209 210.191 183.099 209.912 181.413 209.205 C 179.847 208.548 178.098 207.258 177.527 206.339 C 176.955 205.42 175.852 204.668 175.076 204.668 C 174.17 204.668 173.664 205.283 173.664 206.386 C 173.664 207.33 174.954 209.325 176.529 210.818 C 179.071 213.225 179.897 213.532 183.829 213.532 C 186.268 213.532 189.462 212.962 190.925 212.264 C 192.388 211.567 194.53 209.627 195.684 207.954 L 197.783 204.912 L 201.504 206.805 C 203.552 207.845 206.26 208.697 207.523 208.697 C 208.786 208.697 211.064 208.175 212.584 207.537 C 214.105 206.898 216.086 205.176 216.988 203.709 C 217.889 202.242 218.528 200.163 218.41 199.089 C 218.29 198.015 217.736 196.986 217.178 196.802 C 216.604 196.613 215.644 197.717 214.968 199.343 C 214.31 200.925 212.862 202.817 211.753 203.547 C 210.343 204.474 208.751 204.743 206.479 204.437 C 204.689 204.196 202.481 203.333 201.572 202.52 C 200.663 201.707 199.427 199.875 198.826 198.448 C 198.225 197.022 197.733 194.845 197.733 193.611 C 197.733 192.338 198.95 189.648 200.541 187.399 C 202.086 185.217 203.35 182.602 203.35 181.587 C 203.35 180.573 202.652 179.368 201.798 178.909 C 200.944 178.45 198.687 178.1 196.783 178.131 C 194.879 178.162 191.607 178.716 189.513 179.363 Z M 242.914 182.131 C 241.507 182.571 239.612 183.881 238.702 185.043 C 237.648 186.388 237.046 188.344 237.046 190.42 C 237.046 192.214 237.774 195.193 238.665 197.04 C 239.554 198.886 241.63 201.755 243.278 203.415 C 244.925 205.076 247.266 206.952 248.479 207.586 C 250.609 208.699 250.686 208.964 250.686 215.245 C 250.686 221.57 250.609 221.828 247.958 224.492 C 245.729 226.73 244.619 227.232 241.887 227.232 C 240.049 227.232 237.846 226.856 236.993 226.397 C 236.138 225.937 234.903 224.273 234.249 222.699 C 233.575 221.08 232.617 219.983 232.043 220.172 C 231.486 220.357 230.917 221.271 230.78 222.204 C 230.642 223.136 231.1 225.005 231.796 226.357 C 232.492 227.709 234.121 229.366 235.415 230.038 C 236.71 230.71 239.502 231.259 241.619 231.258 C 244.11 231.256 246.321 230.69 247.877 229.658 C 249.201 228.78 250.898 227.615 251.648 227.071 C 252.825 226.218 253.653 226.766 257.666 231.051 C 260.685 234.277 263.876 236.734 266.756 238.052 C 269.197 239.168 273.619 240.426 276.583 240.848 C 279.664 241.286 283.98 241.33 286.658 240.949 C 289.235 240.584 293.131 239.374 295.316 238.262 C 297.502 237.15 300.733 234.666 302.498 232.743 C 304.263 230.82 306.513 227.574 307.498 225.53 C 308.483 223.487 309.062 221.22 308.784 220.494 C 308.507 219.768 307.783 219.173 307.176 219.173 C 306.568 219.173 305.163 220.974 304.052 223.176 C 302.942 225.376 300.711 228.506 299.094 230.13 C 297.478 231.754 294.138 234.014 291.672 235.154 C 288.24 236.741 285.875 237.23 281.574 237.248 C 278.179 237.262 274.286 236.691 271.73 235.807 C 269.404 235.002 265.722 232.931 263.549 231.206 C 261.375 229.48 258.705 226.52 257.614 224.628 C 256.343 222.42 255.432 219.243 255.073 215.759 C 254.633 211.495 254.748 210.266 255.608 210.036 C 256.21 209.875 259.103 209.164 262.035 208.458 C 264.967 207.752 269.193 206.045 271.425 204.665 C 273.657 203.287 276.222 200.957 277.125 199.49 C 278.027 198.023 278.766 195.735 278.766 194.407 C 278.766 193.078 278.043 191.067 277.158 189.938 C 276.274 188.809 273.925 187.095 271.939 186.129 C 269.952 185.164 266.433 183.859 264.119 183.231 C 261.805 182.601 256.663 181.917 252.691 181.71 C 248.72 181.502 244.32 181.691 242.914 182.131 Z M 68.964 197.179 C 64.551 197.845 60.474 198.771 59.904 199.238 C 59.322 199.713 59.171 200.392 59.559 200.782 C 59.946 201.171 64.281 200.902 69.421 200.169 C 76.449 199.166 82.152 198.962 93.835 199.298 C 102.219 199.539 112.689 200.311 117.102 201.013 C 121.514 201.717 125.759 202.489 126.533 202.73 C 127.389 202.996 128.135 202.658 128.437 201.868 C 128.71 201.153 128.737 200.372 128.497 200.13 C 128.256 199.889 126.677 199.362 124.988 198.96 C 123.298 198.558 117.405 197.683 111.892 197.015 C 106.378 196.349 96.269 195.841 89.427 195.886 C 82.585 195.931 73.376 196.513 68.964 197.179 Z M 109.881 209.473 C 105.468 210.27 98.067 211.891 93.434 213.075 C 88.8 214.259 83.114 215.934 80.797 216.797 C 78.481 217.661 74.6 219.118 72.173 220.037 C 69.66 220.988 67.76 222.202 67.76 222.857 C 67.76 223.49 68.277 224.008 68.909 224.008 C 69.54 224.008 72.947 222.938 76.478 221.63 C 80.01 220.323 87.706 217.983 93.581 216.431 C 99.458 214.879 107.514 213.049 111.486 212.364 C 115.457 211.679 120.151 211.114 121.916 211.106 C 123.681 211.098 125.937 210.874 126.93 210.607 C 127.923 210.339 128.735 209.619 128.735 209.006 C 128.735 208.16 127.427 207.907 123.32 207.957 C 120.341 207.993 114.294 208.675 109.881 209.473 Z M 120.311 219.014 C 116.781 220.656 110.729 223.7 106.864 225.78 C 102.997 227.86 96.318 231.944 92.021 234.855 C 87.723 237.766 82.791 241.352 81.061 242.822 C 78.756 244.781 78.062 245.88 78.464 246.931 C 78.94 248.178 79.208 248.222 80.505 247.268 C 81.325 246.664 84.119 244.548 86.712 242.567 C 89.306 240.586 94.858 236.798 99.05 234.149 C 103.242 231.5 109.38 227.893 112.689 226.133 C 115.999 224.374 121.234 221.935 124.323 220.714 C 127.513 219.452 130.051 217.944 130.198 217.221 C 130.377 216.345 129.878 215.962 128.593 215.989 C 127.568 216.012 123.841 217.373 120.311 219.014 Z" stroke="none" fill="#14324d" fill-rule="evenodd" style="stroke-width: 1;">
            <bx:title>ojos y bigote</bx:title>
        </path>
    </g>
    <g style="" id="svg" transform="matrix(0.749485, 0, 0, 0.701361, -29.309723, 235.427734)">
        <bx:title>Letras</bx:title>
        <a transform="matrix(1, 0, 0, 1, -7.159965, -1.358615)">
            <path style="stroke-width: 1;" d="M 591.907 124.161 C 586.557 124.931 585.386 127.445 585.297 138.369 L 585.241 145.551 L 581.234 145.755 C 573.745 146.138 570.736 147.571 568.985 151.592 C 567.979 153.908 567.872 158.343 568.792 159.342 C 569.112 159.688 569.374 160.215 569.374 160.517 C 569.374 163.11 574.924 165.304 581.476 165.304 C 585.844 165.304 585.407 162.735 585.415 188.634 C 585.421 209.785 585.607 215.099 586.375 216.052 C 586.53 216.246 586.762 216.991 586.892 217.711 C 587.158 219.172 588.387 221.79 588.808 221.79 C 588.959 221.79 589.081 221.981 589.081 222.215 C 589.081 222.779 591.487 226.332 592.479 227.236 C 594.961 229.509 596.713 230.932 597.011 230.932 C 597.198 230.932 597.528 231.137 597.742 231.392 C 597.956 231.64 598.537 231.945 599.036 232.067 C 599.534 232.19 600.164 232.486 600.441 232.721 C 601.184 233.363 609.641 235.502 611.448 235.508 C 612.493 235.511 616.609 234.572 617.982 234.019 C 618.532 233.796 619.459 233.515 620.046 233.394 C 620.63 233.275 621.285 232.965 621.506 232.706 C 621.723 232.45 622.051 232.239 622.234 232.239 C 625.009 232.239 630.173 225.42 630.173 221.753 C 630.173 218.406 626.352 213.244 623.551 212.805 C 622.875 212.697 621.945 212.521 621.49 212.412 C 621.029 212.302 620.511 212.248 620.341 212.287 C 620.17 212.33 619.311 212.493 618.433 212.659 C 616.965 212.93 614.366 214.401 612.613 215.958 C 611.691 216.774 611.644 216.762 609.716 215.261 C 608.791 214.542 607.909 213.954 607.757 213.954 C 606.222 213.954 605.811 207.638 605.797 183.846 C 605.788 166.511 605.805 165.968 606.433 165.643 C 606.811 165.445 609.63 165.301 613.197 165.298 C 622.716 165.292 625.311 164.468 626.974 160.928 C 628.728 157.189 628.731 155.139 626.985 151.429 C 625.046 147.305 621.969 146.242 610.629 145.762 L 605.621 145.551 L 605.453 137.993 C 605.307 131.399 605.213 130.355 604.7 129.806 C 604.378 129.457 604.115 129.052 604.115 128.907 C 604.115 128.311 602.36 126.439 600.89 125.469 C 598.67 124.007 595.852 123.595 591.907 124.161 M 518.932 144.768 C 512.808 145.617 511.835 145.793 510.991 146.224 C 510.49 146.481 509.825 146.692 509.516 146.692 C 509.201 146.693 508.863 146.831 508.76 146.994 C 508.654 147.161 508.082 147.399 507.487 147.523 C 506.444 147.738 503.261 149.027 502.23 149.647 C 501.952 149.814 501.221 150.171 500.603 150.442 C 499.987 150.715 498.982 151.337 498.381 151.837 C 497.774 152.328 496.719 153.102 496.036 153.55 C 495.355 154 494.442 154.737 494.011 155.184 C 493.579 155.633 493.05 156.145 492.835 156.324 C 491.467 157.485 488.206 160.876 487.381 162.001 C 486.843 162.742 486.277 163.343 486.129 163.343 C 485.982 163.343 485.86 163.57 485.86 163.839 C 485.86 164.112 485.557 164.584 485.193 164.89 C 484.823 165.2 484.522 165.63 484.522 165.845 C 484.522 166.058 483.689 167.828 482.671 169.772 C 481.649 171.715 480.611 174.157 480.354 175.198 C 480.103 176.245 479.742 177.278 479.551 177.5 C 479.366 177.724 479.108 178.927 478.986 180.176 C 478.86 181.423 478.551 182.941 478.297 183.546 C 477.654 185.104 477.66 196.076 478.305 198.026 C 478.562 198.796 478.868 200.28 478.982 201.323 C 479.094 202.367 479.398 203.54 479.652 203.935 C 479.906 204.325 480.224 205.151 480.352 205.765 C 480.487 206.378 481.175 207.996 481.886 209.356 C 482.595 210.717 483.181 212.004 483.184 212.214 C 483.187 212.424 483.305 212.644 483.449 212.703 C 483.592 212.763 484.146 213.666 484.683 214.711 C 485.218 215.755 486.021 216.994 486.467 217.462 C 486.911 217.933 487.865 219.046 488.586 219.935 C 489.307 220.825 490.594 222.161 491.455 222.899 C 492.314 223.635 493.603 224.792 494.322 225.464 C 495.039 226.137 495.735 226.689 495.871 226.689 C 496.001 226.689 496.386 226.982 496.718 227.342 C 497.048 227.702 497.501 227.993 497.724 227.993 C 497.943 227.993 498.825 228.518 499.68 229.154 C 500.534 229.792 501.721 230.476 502.319 230.669 C 502.909 230.863 503.623 231.21 503.898 231.432 C 504.173 231.658 504.924 231.944 505.569 232.068 C 506.213 232.2 507.039 232.49 507.411 232.72 C 507.777 232.944 508.831 233.298 509.747 233.503 C 510.666 233.702 512.467 234.178 513.754 234.555 C 519.851 236.338 529.988 236.4 535.132 234.683 C 536.42 234.248 538.222 233.739 539.138 233.544 C 540.051 233.343 541.028 233 541.308 232.777 C 541.584 232.553 542.563 232.183 543.476 231.961 C 544.392 231.733 545.219 231.448 545.314 231.323 C 545.409 231.2 546.188 230.753 547.045 230.335 C 547.898 229.911 548.879 229.363 549.218 229.109 C 550.383 228.235 552.369 227.014 552.62 227.014 C 554.765 227.014 561.025 218.211 561.025 215.197 C 561.025 213.072 558.279 207.751 557.187 207.751 C 556.936 207.751 556.525 207.556 556.279 207.312 C 554.808 205.875 549.207 205.573 546.82 206.805 C 544.6 207.952 541.945 209.747 541.754 210.231 C 541.513 210.856 539.289 212.27 536.473 213.6 C 535.183 214.206 533.731 214.897 533.245 215.142 C 532.756 215.387 532.074 215.586 531.725 215.586 C 531.378 215.586 530.903 215.771 530.673 215.994 C 530.372 216.291 528.681 216.404 524.61 216.404 C 520.539 216.404 518.851 216.291 518.546 215.994 C 518.32 215.771 517.802 215.586 517.403 215.586 C 516.672 215.586 513.915 214.498 511.415 213.222 C 509.548 212.268 505.898 209.364 505.904 208.837 C 505.912 208.477 508.14 207.471 509.487 207.22 C 510.079 207.109 510.738 206.815 510.949 206.569 C 511.158 206.321 511.666 206.119 512.075 206.119 C 512.487 206.119 513.785 205.636 514.958 205.044 C 516.132 204.451 517.771 203.763 518.597 203.509 C 519.424 203.256 520.4 202.871 520.77 202.651 C 521.138 202.429 522.002 202.147 522.695 202.024 C 523.385 201.902 524.025 201.683 524.114 201.54 C 524.335 201.186 526.834 200.047 528.288 199.632 C 528.927 199.445 530.507 198.907 531.794 198.429 C 533.077 197.951 534.809 197.34 535.632 197.075 C 537.545 196.462 539.909 195.39 540.138 195.028 C 540.237 194.875 540.901 194.651 541.62 194.532 C 542.337 194.415 543.199 194.11 543.536 193.86 C 543.875 193.611 544.337 193.401 544.56 193.395 C 544.785 193.389 545.789 193.018 546.793 192.57 C 547.797 192.119 548.823 191.751 549.069 191.751 C 549.321 191.751 550.112 191.456 550.834 191.1 C 551.552 190.742 552.318 190.447 552.535 190.447 C 552.748 190.447 553.103 190.233 553.322 189.978 C 553.539 189.72 554.199 189.409 554.784 189.292 C 555.367 189.173 556.147 188.899 556.513 188.684 C 556.88 188.467 557.814 188.092 558.583 187.854 C 559.355 187.614 560.065 187.215 560.158 186.971 C 560.254 186.726 560.531 186.53 560.777 186.53 C 562.591 186.53 565.636 179.789 564.58 178.117 C 564.475 177.95 564.221 176.464 564.016 174.808 C 563.663 171.973 562.736 169.166 562.014 168.727 C 561.837 168.619 561.689 168.306 561.689 168.032 C 561.689 167.611 560.592 165.556 558.923 162.855 C 557.302 160.24 551.707 154.69 548.889 152.911 C 547.664 152.136 546.658 151.39 546.658 151.256 C 546.658 151.121 546.057 150.774 545.322 150.485 C 544.587 150.199 543.985 149.816 543.985 149.634 C 543.985 149.454 543.724 149.304 543.401 149.303 C 543.079 149.301 542.066 148.939 541.146 148.499 C 540.225 148.056 539.282 147.688 539.051 147.686 C 538.812 147.678 537.686 147.283 536.542 146.811 C 532.38 145.084 523.821 144.09 518.932 144.768 M 418.213 145.536 C 416.924 145.747 415.424 146.101 414.874 146.331 C 414.321 146.556 412.967 147.038 411.865 147.4 C 410.765 147.763 409.486 148.257 409.027 148.493 C 408.567 148.728 407.212 149.391 406.019 149.958 C 404.825 150.523 403.518 151.349 403.112 151.784 C 401.503 153.512 399.006 153.131 399.006 151.152 C 399.006 150.439 396.209 148.087 394.828 147.644 C 394.094 147.406 393.351 147.095 393.175 146.954 C 392.743 146.6 387.396 146.625 387.171 146.981 C 387.073 147.138 386.349 147.424 385.564 147.617 C 383.736 148.065 381.9 149.897 380.989 152.174 C 380.301 153.895 380.296 154.09 380.296 207.138 L 380.296 260.377 L 381.258 262.388 C 382.524 265.045 383.976 266.491 385.995 267.104 C 391.671 268.831 396.929 267.151 399.538 262.766 L 400.509 261.135 L 400.609 244.89 C 400.724 226.579 400.59 227.357 403.215 229.61 C 403.827 230.14 404.865 230.669 405.512 230.791 C 406.16 230.91 406.689 231.131 406.689 231.287 C 406.689 231.442 407.513 231.802 408.519 232.087 C 409.527 232.372 410.424 232.73 410.521 232.875 C 410.612 233.025 411.405 233.246 412.281 233.373 C 413.154 233.497 414.321 233.789 414.874 234.019 C 418.925 235.704 431.461 235.819 434.769 234.197 C 435.054 234.059 436.183 233.767 437.273 233.551 C 438.365 233.337 439.592 232.953 439.999 232.699 C 440.404 232.445 440.916 232.239 441.135 232.239 C 441.746 232.239 445.767 230.325 447.375 229.266 C 448.169 228.745 448.947 228.321 449.114 228.321 C 449.279 228.321 449.533 228.132 449.683 227.907 C 449.828 227.677 450.384 227.217 450.917 226.888 C 451.444 226.554 452.799 225.403 453.921 224.323 C 455.042 223.244 456.299 222.142 456.713 221.874 C 457.128 221.608 457.464 221.186 457.464 220.938 C 457.464 220.688 457.591 220.485 457.749 220.485 C 458.045 220.485 461.582 215.642 462.516 213.956 C 462.813 213.424 463.206 212.797 463.392 212.573 C 463.572 212.345 463.915 211.57 464.146 210.853 C 464.375 210.136 464.698 209.383 464.86 209.187 C 465.178 208.791 466.418 205.46 466.727 204.161 C 466.834 203.712 467.111 203.049 467.34 202.691 C 467.574 202.329 467.924 200.52 468.126 198.666 C 468.328 196.813 468.64 195.023 468.826 194.686 C 469.32 193.787 469.23 186.943 468.696 184.881 C 468.444 183.903 468.146 181.948 468.031 180.546 C 467.915 179.11 467.605 177.684 467.323 177.287 C 467.046 176.904 466.817 176.26 466.817 175.864 C 466.817 175.464 466.675 175.053 466.505 174.95 C 466.337 174.848 465.967 173.991 465.681 173.054 C 465.4 172.114 464.865 170.766 464.491 170.052 C 464.117 169.342 463.813 168.588 463.813 168.378 C 463.813 168.17 463.595 167.824 463.336 167.607 C 463.068 167.394 462.762 166.812 462.649 166.312 C 462.537 165.813 461.926 164.913 461.29 164.31 C 460.657 163.71 460.137 163.022 460.137 162.783 C 460.137 162.544 459.927 162.267 459.666 162.171 C 459.408 162.073 459.009 161.557 458.784 161.024 C 458.559 160.492 458.096 159.908 457.753 159.731 C 457.409 159.55 457.132 159.191 457.132 158.926 C 457.132 158.666 456.987 158.447 456.813 158.447 C 456.638 158.447 455.518 157.531 454.327 156.407 C 453.135 155.285 451.811 154.118 451.388 153.808 C 450.212 152.958 448.296 151.462 448.112 151.246 C 448.019 151.142 446.892 150.577 445.605 149.992 C 444.32 149.411 443.042 148.797 442.767 148.631 C 442.137 148.244 442.166 148.257 438.758 147.208 C 437.196 146.726 435.616 146.205 435.252 146.048 C 433.015 145.092 422.839 144.79 418.213 145.536 M 531.294 165.109 C 531.933 165.445 532.686 165.845 532.964 165.995 C 533.236 166.145 533.936 166.504 534.519 166.788 C 535.098 167.076 535.838 167.595 536.156 167.938 C 536.478 168.287 536.916 168.569 537.129 168.569 C 537.528 168.569 541.649 172.618 541.649 173.013 C 541.649 173.132 542.036 173.58 542.508 174.009 C 543.548 174.952 543.447 175.425 542.049 176.118 C 541.464 176.408 540.797 176.789 540.568 176.966 C 540.332 177.14 539.417 177.479 538.527 177.712 C 537.633 177.948 536.363 178.412 535.699 178.743 C 535.036 179.075 534.32 179.345 534.107 179.345 C 533.895 179.345 532.884 179.783 531.86 180.314 C 530.832 180.855 529.389 181.385 528.646 181.502 C 527.904 181.617 527.123 181.914 526.915 182.159 C 526.705 182.41 526.335 182.609 526.099 182.609 C 525.661 182.609 521.306 184.196 519.432 185.035 C 518.881 185.283 517.745 185.793 516.906 186.171 C 516.065 186.544 515.068 186.853 514.69 186.853 C 514.311 186.853 513.828 187.059 513.617 187.31 C 513.403 187.562 512.748 187.857 512.155 187.964 C 511.563 188.073 510.656 188.382 510.135 188.646 C 509.611 188.913 508.56 189.286 507.794 189.478 C 506.519 189.798 506.002 189.989 503.563 191.075 C 503.103 191.279 501.904 191.65 500.892 191.901 C 499.881 192.15 498.716 192.457 498.302 192.58 C 497.391 192.855 497.181 188.297 498.005 185.996 C 498.253 185.301 498.56 183.947 498.689 182.989 C 498.814 182.029 499.213 180.71 499.571 180.053 C 499.93 179.4 500.225 178.623 500.225 178.328 C 500.225 178.035 500.432 177.624 500.686 177.419 C 500.936 177.215 501.225 176.641 501.328 176.155 C 501.429 175.665 502.435 174.308 503.567 173.139 C 504.699 171.973 505.724 170.869 505.846 170.685 C 505.969 170.505 506.446 170.101 506.906 169.786 C 510.207 167.545 511.794 166.611 512.296 166.611 C 512.62 166.611 512.969 166.467 513.082 166.294 C 513.341 165.88 515.328 164.962 516.693 164.628 C 518.959 164.068 530.013 164.428 531.294 165.109 M 427.9 165.009 C 428.635 165.197 429.811 165.468 430.513 165.612 C 431.221 165.76 431.966 166.045 432.169 166.244 C 432.374 166.448 432.782 166.611 433.071 166.611 C 433.674 166.611 438.157 168.66 438.946 169.292 C 441.753 171.553 445.142 175.404 445.912 177.212 C 446.216 177.922 446.577 178.585 446.712 178.68 C 447.342 179.13 448.116 180.738 448.316 182.017 C 448.44 182.791 448.703 183.718 448.905 184.079 C 450.103 186.2 450.095 195.419 448.897 197.131 C 448.649 197.486 448.446 198.058 448.446 198.404 C 448.446 199.249 446.842 202.527 446.429 202.527 C 446.253 202.527 446.103 202.785 446.102 203.1 C 446.09 204.193 441.981 209.381 441.126 209.381 C 440.984 209.381 440.712 209.716 440.524 210.123 C 440.334 210.529 439.747 211.073 439.218 211.337 C 438.689 211.6 437.989 212.075 437.66 212.395 C 437.331 212.714 436.698 212.977 436.256 212.977 C 435.811 212.977 435.331 213.163 435.184 213.389 C 434.201 214.914 424.784 216.192 421.003 215.316 C 418.201 214.669 415.204 213.798 415.04 213.587 C 414.949 213.47 414.346 213.134 413.704 212.843 C 411.831 211.988 409.943 210.787 409.639 210.256 C 409.345 209.737 405.82 206.243 405.201 205.856 C 404.73 205.56 402.848 201.968 402.559 200.812 C 402.435 200.318 402.186 199.915 402.003 199.915 C 401.827 199.915 401.675 199.652 401.675 199.327 C 401.675 199.004 401.513 198.58 401.311 198.38 C 400.7 197.786 400.009 193.407 400.009 190.148 C 400.009 184.595 400.374 183.337 404.065 176.312 C 404.789 174.939 409.559 170.143 410.996 169.352 C 412.819 168.35 413.274 168.074 413.749 167.691 C 413.999 167.497 414.881 167.142 415.707 166.911 C 416.533 166.681 417.507 166.296 417.868 166.058 C 418.233 165.825 418.917 165.633 419.388 165.633 C 419.862 165.633 420.392 165.495 420.568 165.329 C 421.244 164.687 425.854 164.486 427.9 165.009" fill="#9bc36a" fill-rule="evenodd" id="path1" stroke="none" xmlns="http://www.w3.org/2000/svg"></path>
            <path style="" d="M 350.701 151.761 C 349.546 152.286 348.014 153.569 347.043 154.824 L 345.374 156.983 L 345.502 191.022 L 345.628 225.06 L 346.958 227.045 C 350.219 231.915 358.343 232.467 362.465 228.099 C 364.948 225.468 364.933 225.712 364.933 189.822 L 364.933 156.514 L 363.522 154.503 C 360.991 150.895 355.29 149.676 350.701 151.761" fill="#0a3459" fill-rule="evenodd" id="path0" stroke="none"></path>
            <path style="" d="M 220.739 117.433 C 214.163 119.791 211.498 128.072 215.438 133.902 C 221.718 143.198 236.612 139.817 236.632 129.091 C 236.647 120.337 228.767 114.558 220.739 117.433" fill="#0a3459" fill-rule="evenodd" id="path-2" stroke="none"></path>
            <path style="fill: rgb(155, 195, 106);" d="M 665.309 146.345 C 656.24 147.635 650.438 150.087 646.005 154.51 C 642.829 157.678 640.043 162.945 639.341 167.107 C 637.488 178.106 641.898 187.741 650.948 192.475 C 654.387 194.272 661.808 196.828 668.133 198.393 C 679.771 201.27 683.444 203.853 683.367 209.104 C 683.21 219.848 664.009 220.886 654.008 210.692 C 648.239 204.811 642.965 204.018 638.315 208.328 C 631.632 214.526 637.439 225.396 650.713 231.531 C 677.161 243.756 706.294 228.856 702.329 205.132 C 700.254 192.708 690.925 185.302 671.888 180.966 C 670.471 180.645 668.454 180.089 667.41 179.734 C 666.367 179.378 665.217 179.087 664.855 179.087 C 661.769 179.087 657.477 173.838 658.01 170.715 C 659.344 162.91 673.565 162.524 681.486 170.079 C 687.265 175.592 694.248 175.208 697.402 169.199 C 703.227 158.103 683.159 143.811 665.309 146.345" fill-rule="evenodd" id="path-2" stroke="none"></path>
            <path style="" d="M 115.402 113.408 C 106.96 114.133 103.167 114.979 95.822 117.778 C 93.858 118.527 92.131 119.139 91.986 119.139 C 91.535 119.139 85.408 122.908 82.68 124.865 C 78.422 127.918 69.024 137.563 69.024 138.88 C 69.024 139.061 68.517 139.876 67.894 140.69 C 66.899 141.992 65.972 143.837 63.055 150.313 C 62.651 151.209 61.902 153.19 61.391 154.717 C 60.501 157.378 60.264 158.447 59.082 165.202 C 58.079 170.925 58.969 183.216 60.842 189.485 C 61.199 190.684 61.494 191.915 61.494 192.219 C 61.494 192.754 63.125 196.775 64.694 200.099 C 65.833 202.515 70.108 209.439 71.417 210.985 C 84.339 226.269 100.691 233.693 119.874 232.992 C 130.2 232.614 142.685 229.22 147.931 225.365 C 148.733 224.777 149.567 224.293 149.784 224.293 C 150.003 224.293 151.146 223.503 152.33 222.535 C 153.512 221.568 155.009 220.446 155.656 220.041 C 167.076 212.909 166.558 200.278 154.752 197.943 C 151.807 197.361 149.183 198.603 145.015 202.551 C 138.929 208.312 137.489 209.216 130.232 211.834 C 120.11 215.481 103.726 212.956 95.154 206.426 C 94.119 205.637 92.997 204.781 92.66 204.523 C 79.396 194.367 74.741 171.553 82.642 155.432 C 85.257 150.096 89.766 143.971 92.044 142.667 C 92.46 142.427 93.099 141.937 93.465 141.579 C 94.153 140.904 96.985 138.978 99.116 137.741 C 108.593 132.23 123.289 131.765 133.808 136.639 C 135.128 137.251 136.361 137.751 136.549 137.751 C 136.937 137.751 140.556 140.64 144.296 143.933 C 149.527 148.542 154.46 148.768 159.242 144.619 C 166.283 138.509 162.027 129.552 148.122 121.207 C 143.437 118.397 142.553 118.027 134.703 115.604 C 131.565 114.634 119.44 112.892 117.755 113.168 C 117.495 113.213 116.437 113.32 115.402 113.408" fill="#0a3459" fill-rule="evenodd" id="path-2" stroke="none"></path>
            <path style="" d="M 282.774 144.675 C 277.34 146.633 275.628 147.444 273.687 148.979 C 271.664 150.581 271.051 150.524 270.054 148.638 C 267.325 143.472 259.554 142.529 255.195 146.835 C 251.926 150.068 252.018 148.617 252.472 188.776 L 252.877 224.681 L 254.296 226.698 C 258.826 233.136 268.935 231.998 271.632 224.744 C 272.317 222.901 272.418 220.163 272.426 203.109 C 272.439 176.823 273.086 173.281 278.852 167.951 C 289.754 157.872 305.517 162.867 308.202 177.247 C 308.47 178.684 308.669 189.275 308.669 202.047 C 308.669 226.109 308.663 226.045 311.192 228.164 C 317.569 233.507 326.611 230.668 327.906 222.915 C 329.418 213.868 328.086 173.695 326.069 167.528 C 320.933 151.825 309.129 143.282 292.681 143.368 C 286.958 143.399 285.945 143.531 282.774 144.675" fill="#0a3459" fill-rule="evenodd" id="path-2" stroke="none"></path>
            <path style="" d="M 184.178 113.633 C 181.681 114.104 179.516 115.607 178.019 117.914 C 177.091 119.344 177.077 120.158 177.077 172.643 L 177.077 225.923 L 178.134 227.602 C 181.871 233.542 192.041 233.212 195.224 227.046 C 196.122 225.305 196.145 223.97 196.145 172.879 C 196.145 114.033 196.414 118.55 192.721 115.466 C 191.69 114.605 186.493 112.684 186.493 113.163 C 186.493 113.18 185.452 113.391 184.178 113.633" fill="#0a3459" fill-rule="evenodd" id="path-2" stroke="none"></path>
            <path style="" d="M 219.875 150.43 C 215.573 153.293 215.703 152.605 215.55 173.579 C 215.319 205.686 215.932 225.616 217.209 227.384 C 220.672 232.179 228.715 232.292 233.001 227.602 C 235.29 225.098 235.368 223.464 234.963 186.248 L 234.617 154.481 L 233.443 152.692 C 230.82 148.695 224.149 147.585 219.875 150.43" fill="#0a3459" fill-rule="evenodd" id="path-2" stroke="none"></path>
            <path style="" d="M 366.109 117.163 C 362.982 118.706 361.338 124.901 363.052 128.678 C 363.349 129.332 362.893 129.116 361.507 127.943 C 354.551 122.062 347.45 122.789 343.366 129.804 L 342.123 131.934 L 342.112 129.649 C 342.065 121.851 332.265 117.244 329.782 123.851 C 328.26 127.903 331.658 134.269 335.505 134.572 C 337.814 134.753 339.479 134.454 340.314 133.706 C 341.618 132.54 341.656 133.114 340.438 135.658 C 337.745 141.287 339.805 147.055 344.505 147.055 C 345.74 147.055 346.867 146.869 347.008 146.642 C 347.15 146.416 347.838 146.086 348.537 145.914 C 349.236 145.741 350.445 145.15 351.225 144.602 C 352.811 143.484 358.996 143.312 361.491 144.312 C 362.494 144.715 363.135 144.656 364.552 144.034 C 369.335 141.935 369.638 136.369 365.228 131.585 C 363.979 130.228 364.139 129.979 365.723 130.818 C 366.985 131.484 370.554 130.536 371.863 129.185 C 377.655 123.2 373.112 113.705 366.109 117.163" fill="#fdf2d9" fill-rule="evenodd" id="path5" stroke="none"></path>
            <path style="" d="M 353.714 107.527 C 350.727 109.849 350.296 117.993 353.01 120.862 C 355.786 123.798 362.248 121.547 363.091 117.352 C 364.713 109.287 359.064 103.367 353.714 107.527" fill="#fdf2d9" fill-rule="evenodd" id="path-2" stroke="none"></path>
            <path style="" d="M 346.078 110.793 C 349.968 114.34 350.048 121.485 346.213 123.079 C 340.467 125.466 334.942 115.007 339.479 110.33 C 341.507 108.237 343.418 108.372 346.078 110.793" fill="#fdf2d9" fill-rule="evenodd" id="path-2" stroke="none"></path>
            <path style="" d="M 357.145 126.01 C 369.526 132.132 371.257 144.715 359.517 143.242 C 354.95 142.668 351.97 142.954 350.279 144.125 C 343.354 148.925 337.748 144.684 340.929 137.053 C 341.569 135.517 342.094 134.106 342.094 133.918 C 342.1 133.139 345.164 128.58 346.52 127.334 C 350.071 124.074 352.594 123.759 357.145 126.01" fill="#fdf2d9" fill-rule="evenodd" id="path-2" stroke="none"></path>
            <path style="" d="M 371.64 117.993 C 372.208 118.385 372.907 119.571 373.196 120.627 C 375.219 128.047 366.066 134.388 363.662 127.23 C 361.595 121.077 367.02 114.796 371.64 117.993" fill="#fdf2d9" fill-rule="evenodd" id="path-2" stroke="none"></path>
            <path style="" d="M 340.818 108.367 C 337.403 109.356 336.022 116.936 338.581 120.658 C 343.41 127.681 351.646 123.496 349.603 115.061 C 348.916 112.229 345.661 108.438 343.918 108.438 C 343.476 108.438 342.832 108.354 342.49 108.253 C 342.144 108.149 341.392 108.203 340.818 108.367" fill="#fdf2d9" fill-rule="evenodd" id="path-2" stroke="none"></path>
            <path style="" d="M 337.407 122.408 C 341.121 125.023 342.546 130.258 340.176 132.597 C 337.962 134.785 335.776 134.611 332.872 132.01 C 327.253 126.984 331.407 118.187 337.407 122.408" fill="#fdf2d9" fill-rule="evenodd" id="path-2" stroke="none"></path>
            <path style="transform-box: fill-box; transform-origin: 940.332% -299.16%;" d="M 419.838 172.711 C 419.72 173.032 419.794 183.357 419.794 183.357 L 408.645 183.482 L 408.645 196.046 L 419.578 195.777 L 419.474 206.28 L 432.518 206.321 C 432.323 207.82 432.09 196.012 432.194 195.885 C 432.503 195.51 443.206 195.561 443.206 195.561 L 443.485 183.482 L 432.891 183.221 C 431.969 183.252 432.74 172.621 432.327 172.64 L 419.838 172.711 Z" fill="#7fc7cd" fill-rule="evenodd" id="path2" stroke="none"></path>
            <path style="" d="M 361.23 108.791 C 365.728 114.337 360.942 123.436 354.762 121.079 C 351.081 119.674 350.994 110.843 354.635 108.005 C 356.494 106.555 359.727 106.94 361.23 108.791" fill="#fdf2d9" fill-rule="evenodd" id="path-2" stroke="none"></path>
            <path style="" d="M 331.257 122.745 C 326.964 128.123 335.342 137.375 340.176 132.597 C 342.049 130.746 342.054 129.062 340.187 125.838 C 337.61 121.39 333.481 119.958 331.257 122.745" fill="#fbb949" fill-rule="evenodd" id="path4" stroke="none"></path>
            <path style="" d="M 349.866 125.115 C 346.9 126.495 342.108 131.922 342.094 133.918 C 342.094 134.106 341.569 135.517 340.929 137.053 C 339.464 140.568 339.461 141.514 340.913 143.789 C 342.939 146.962 346.028 147.073 350.279 144.125 C 351.97 142.954 354.95 142.668 359.517 143.242 C 368.849 144.412 370.539 137.256 362.649 129.983 C 357.606 125.337 353.092 123.618 349.866 125.115" fill="#fbb949" fill-rule="evenodd" id="path-2" stroke="none"></path>
            <path style="" d="M 354.635 108.005 C 350.994 110.843 351.081 119.674 354.762 121.079 C 359.923 123.046 363.909 118.087 362.538 111.405 C 361.782 107.715 357.415 105.837 354.635 108.005" fill="#fbb949" fill-rule="evenodd" id="path-2" stroke="none"></path>
            <path style="" d="M 365.465 118.609 C 362.126 122.054 362.574 129.147 366.187 130.03 C 370.686 131.127 374.62 125.852 373.196 120.627 C 372.229 117.078 368.014 115.979 365.465 118.609" fill="#fbb949" fill-rule="evenodd" id="path-2" stroke="none"></path>
            <path style="" d="M 339.479 110.33 C 337.517 112.352 337.436 117.528 339.322 120.336 C 341.569 123.677 346.661 124.422 348.115 121.619 C 351.583 114.938 344.273 105.383 339.479 110.33" fill="#fbb949" fill-rule="evenodd" id="path-2" stroke="none"></path>
        </a>
    </g>
</svg>