<?xml version="1.0" encoding="UTF-8"?>
<svg version="1.1" xmlns="http://www.w3.org/2000/svg" width="512" height="512">
<path d="M0 0 C9.250642 5.32719735 18.14792428 11.11339582 26.5625 17.6875 C27.13307129 18.13311279 27.70364258 18.57872559 28.29150391 19.0378418 C30.93232351 21.15555354 33.22618902 23.24758054 35.51953125 25.7578125 C39.95017251 30.5965057 39.95017251 30.5965057 46.08203125 32.21484375 C49.51287139 31.77251442 52.85505165 31.15641683 56.24560547 30.48339844 C62.03837545 29.46676268 67.89908651 28.94315011 73.75 28.375 C74.41889252 28.30960022 75.08778503 28.24420044 75.77694702 28.17681885 C101.82763052 25.67830148 128.44683187 26.28378245 154.265625 30.890625 C155.00264648 31.01518066 155.73966797 31.13973633 156.49902344 31.26806641 C158.3086954 31.59087514 160.10845541 31.96808797 161.90625 32.3515625 C166.1052882 31.87439907 167.43591177 30.00334991 170.20019531 26.95166016 C196.01536185 -1.04161729 251.02749467 -27.82462698 288.98754883 -29.60253906 C299.68699253 -29.71177764 307.52450103 -27.11929922 315.3203125 -19.71484375 C324.36295681 -10.48293479 325.92684619 -0.48893714 327 12 C327.11214844 13.20527344 327.22429687 14.41054688 327.33984375 15.65234375 C329.57329247 45.29908082 328.13023779 75.15377201 323.625 104.5 C323.52104919 105.18996063 323.41709839 105.87992126 323.30999756 106.59078979 C321.38401585 119.25437189 321.38401585 119.25437189 319.36328125 125.2578125 C317.14385616 131.89022201 315.97192174 136.44939289 319.0390625 143.01953125 C321.04667077 146.78435566 323.25462423 150.40893609 325.48828125 154.04296875 C345.45971 186.77468074 352.96517199 228.54717315 358 266 C358.11859375 266.8235498 358.2371875 267.64709961 358.359375 268.49560547 C359.93379846 279.59388515 360.24269669 290.72008434 360.35046387 301.91461182 C360.36653893 303.48560952 360.38853657 305.05656036 360.41711426 306.62738037 C360.64225796 320.44845464 358.29786697 332.56049696 352.875 345.375 C352.58133545 346.07359131 352.2876709 346.77218262 351.98510742 347.49194336 C340.29180692 374.37361208 319.5769516 399.61783939 296.7578125 417.796875 C294.9800802 419.21704641 293.2228031 420.66340172 291.4921875 422.140625 C241.27889613 464.82960053 172.30727507 483.75536636 107.39550781 483.39111328 C104.00024284 483.37500115 100.60616753 483.39110388 97.2109375 483.41015625 C77.27603166 483.42952463 57.43826684 481.67758327 37.875 477.75 C36.81772705 477.54093018 35.7604541 477.33186035 34.67114258 477.11645508 C-9.35665889 468.06740497 -51.42616984 448.81152514 -86 420 C-86.53625 419.55398438 -87.0725 419.10796875 -87.625 418.6484375 C-99.2062001 408.98020349 -109.65243436 398.89253642 -119 387 C-120.22203125 385.48599609 -120.22203125 385.48599609 -121.46875 383.94140625 C-136.82486599 364.71804403 -152.04397664 339.62948357 -152.203125 314.3671875 C-152.21013931 313.62642471 -152.21715363 312.88566193 -152.22438049 312.12245178 C-152.24196852 309.70657312 -152.24824576 307.29094061 -152.25 304.875 C-152.25067474 304.04565948 -152.25134949 303.21631897 -152.25204468 302.36184692 C-152.23278671 287.40884829 -151.28110743 272.79410682 -149 258 C-148.82307617 256.85241211 -148.64615234 255.70482422 -148.46386719 254.52246094 C-142.75985857 218.59410268 -134.19407748 178.24175078 -113.82104492 147.49462891 C-110.26753593 142.03925157 -108.33957207 138.22647218 -109.61938477 131.66015625 C-110.40701986 128.57866512 -111.33128779 125.54937657 -112.28173828 122.51464844 C-113.58986335 117.93487678 -114.33735163 113.25492297 -115.125 108.5625 C-115.29193359 107.58974121 -115.45886719 106.61698242 -115.63085938 105.61474609 C-118.91775247 85.98832764 -120.21966325 66.13760991 -120.1875 46.25 C-120.18689575 45.54943481 -120.1862915 44.84886963 -120.18566895 44.1270752 C-120.16221995 33.98281178 -119.89339099 23.87599491 -119.25 13.75 C-119.1883667 12.65204102 -119.1267334 11.55408203 -119.06323242 10.42285156 C-118.09348161 -2.72870154 -115.05294431 -13.1229355 -105 -22 C-76.87133354 -43.64528962 -25.90317097 -14.46901956 0 0 Z " fill="#F19454" transform="translate(152,29)"/>
<path d="M0 0 C9.250642 5.32719735 18.14792428 11.11339582 26.5625 17.6875 C27.13307129 18.13311279 27.70364258 18.57872559 28.29150391 19.0378418 C30.93232351 21.15555354 33.22618902 23.24758054 35.51953125 25.7578125 C39.95017251 30.5965057 39.95017251 30.5965057 46.08203125 32.21484375 C49.51287139 31.77251442 52.85505165 31.15641683 56.24560547 30.48339844 C62.03837545 29.46676268 67.89908651 28.94315011 73.75 28.375 C74.41889252 28.30960022 75.08778503 28.24420044 75.77694702 28.17681885 C101.82763052 25.67830148 128.44683187 26.28378245 154.265625 30.890625 C155.00264648 31.01518066 155.73966797 31.13973633 156.49902344 31.26806641 C158.3086954 31.59087514 160.10845541 31.96808797 161.90625 32.3515625 C166.1052882 31.87439907 167.43591177 30.00334991 170.20019531 26.95166016 C196.01536185 -1.04161729 251.02749467 -27.82462698 288.98754883 -29.60253906 C299.68699253 -29.71177764 307.52450103 -27.11929922 315.3203125 -19.71484375 C324.36295681 -10.48293479 325.92684619 -0.48893714 327 12 C327.11214844 13.20527344 327.22429687 14.41054688 327.33984375 15.65234375 C329.57329247 45.29908082 328.13023779 75.15377201 323.625 104.5 C323.52104919 105.18996063 323.41709839 105.87992126 323.30999756 106.59078979 C321.38401585 119.25437189 321.38401585 119.25437189 319.36328125 125.2578125 C317.14385616 131.89022201 315.97192174 136.44939289 319.0390625 143.01953125 C321.04667077 146.78435566 323.25462423 150.40893609 325.48828125 154.04296875 C345.45971 186.77468074 352.96517199 228.54717315 358 266 C358.11859375 266.8235498 358.2371875 267.64709961 358.359375 268.49560547 C359.93379846 279.59388515 360.24269669 290.72008434 360.35046387 301.91461182 C360.36653893 303.48560952 360.38853657 305.05656036 360.41711426 306.62738037 C360.64225796 320.44845464 358.29786697 332.56049696 352.875 345.375 C352.58133545 346.07359131 352.2876709 346.77218262 351.98510742 347.49194336 C340.29180692 374.37361208 319.5769516 399.61783939 296.7578125 417.796875 C294.9800802 419.21704641 293.2228031 420.66340172 291.4921875 422.140625 C241.27889613 464.82960053 172.30727507 483.75536636 107.39550781 483.39111328 C104.00024284 483.37500115 100.60616753 483.39110388 97.2109375 483.41015625 C77.27603166 483.42952463 57.43826684 481.67758327 37.875 477.75 C36.81772705 477.54093018 35.7604541 477.33186035 34.67114258 477.11645508 C-9.35665889 468.06740497 -51.42616984 448.81152514 -86 420 C-86.53625 419.55398438 -87.0725 419.10796875 -87.625 418.6484375 C-99.2062001 408.98020349 -109.65243436 398.89253642 -119 387 C-120.22203125 385.48599609 -120.22203125 385.48599609 -121.46875 383.94140625 C-136.82486599 364.71804403 -152.04397664 339.62948357 -152.203125 314.3671875 C-152.21013931 313.62642471 -152.21715363 312.88566193 -152.22438049 312.12245178 C-152.24196852 309.70657312 -152.24824576 307.29094061 -152.25 304.875 C-152.25067474 304.04565948 -152.25134949 303.21631897 -152.25204468 302.36184692 C-152.23278671 287.40884829 -151.28110743 272.79410682 -149 258 C-148.82307617 256.85241211 -148.64615234 255.70482422 -148.46386719 254.52246094 C-142.75985857 218.59410268 -134.19407748 178.24175078 -113.82104492 147.49462891 C-110.26753593 142.03925157 -108.33957207 138.22647218 -109.61938477 131.66015625 C-110.40701986 128.57866512 -111.33128779 125.54937657 -112.28173828 122.51464844 C-113.58986335 117.93487678 -114.33735163 113.25492297 -115.125 108.5625 C-115.29193359 107.58974121 -115.45886719 106.61698242 -115.63085938 105.61474609 C-118.91775247 85.98832764 -120.21966325 66.13760991 -120.1875 46.25 C-120.18689575 45.54943481 -120.1862915 44.84886963 -120.18566895 44.1270752 C-120.16221995 33.98281178 -119.89339099 23.87599491 -119.25 13.75 C-119.1883667 12.65204102 -119.1267334 11.55408203 -119.06323242 10.42285156 C-118.09348161 -2.72870154 -115.05294431 -13.1229355 -105 -22 C-76.87133354 -43.64528962 -25.90317097 -14.46901956 0 0 Z M-99 38 C-99.31217122 40.5515084 -99.31217122 40.5515084 -99.265625 43.546875 C-99.27190918 45.26233521 -99.27190918 45.26233521 -99.27832031 47.01245117 C-99.26897461 48.24584229 -99.25962891 49.4792334 -99.25 50.75 C-99.24323242 52.01755127 -99.23646484 53.28510254 -99.22949219 54.59106445 C-99.01546824 74.37459199 -96.33360705 93.52652967 -93 113 C-92.66598537 114.99988633 -92.33222248 116.99981517 -92 119 C-91.34 119 -90.68 119 -90 119 C-88.88605839 117.88605839 -87.77440918 116.76976466 -86.671875 115.64453125 C-76.33675267 105.47844129 -76.33675267 105.47844129 -70.0625 105.4375 C-67.45608927 105.65982542 -65.51180037 106.16273321 -63 107 C-61.54514767 111.36455698 -60.99198051 117.6492911 -63 122 C-63.55945313 122.26039063 -64.11890625 122.52078125 -64.6953125 122.7890625 C-67.7651206 124.40201252 -70.1174316 126.64438095 -72.625 129 C-73.15134033 129.49346924 -73.67768066 129.98693848 -74.2199707 130.49536133 C-75.2995706 131.51117778 -76.37713149 132.52916567 -77.45263672 133.54931641 C-78.84306353 134.85286896 -80.26541945 136.12216442 -81.69140625 137.38671875 C-89.14734028 144.25924636 -93.49927137 152.05345277 -98 161 C-98.40750488 161.79873535 -98.81500977 162.5974707 -99.23486328 163.42041016 C-119.44738792 203.3243978 -130.94873617 250.07189399 -131.94873047 294.85058594 C-131.9845337 296.35159366 -132.03414184 297.85230759 -132.09423828 299.35253906 C-133.35935024 331.07569811 -117.34288944 358.15251671 -96.625 381.125 C-94.76105835 383.09591104 -92.88792614 385.0525921 -91 387 C-90.46648926 387.55929199 -89.93297852 388.11858398 -89.38330078 388.69482422 C-44.17181973 435.99399271 23.2756836 461.36713308 88.00708008 463.12451172 C92.48382374 463.21882943 96.95984992 463.24606055 101.4375 463.25 C102.64179657 463.25151062 102.64179657 463.25151062 103.87042236 463.25305176 C119.73512747 463.23973291 135.26571253 462.12738122 151 460 C152.52488037 459.79914795 152.52488037 459.79914795 154.08056641 459.59423828 C170.19299279 457.38577313 185.55755289 453.02874471 201 448 C201.87108398 447.71785645 202.74216797 447.43571289 203.63964844 447.14501953 C229.8948941 438.47643559 254.34061284 425.13639749 276 408 C276.8146875 407.38898438 277.629375 406.77796875 278.46875 406.1484375 C301.85956017 388.027779 320.49631699 364.85003133 333.375 338.3125 C333.69702393 337.66023438 334.01904785 337.00796875 334.35083008 336.3359375 C339.11315813 326.15345254 340.53482474 315.97136513 340.4375 304.8125 C340.43065186 303.57145508 340.42380371 302.33041016 340.41674805 301.05175781 C340.02456236 277.45011147 336.22748996 253.97584559 331 231 C330.78118164 230.01273926 330.56236328 229.02547852 330.33691406 228.00830078 C325.20691393 205.10199394 317.40841878 183.04653438 307 162 C306.64953613 161.27409668 306.29907227 160.54819336 305.93798828 159.80029297 C298.50997287 144.73535991 286.72133188 133.31447732 273.98046875 122.57421875 C270.25571657 119.35716543 270.08228343 119.02031459 269.6875 114.125 C269.75098761 111.21515138 269.94700707 110.09216162 271.4375 107.5 C275.3499961 105.20975838 278.59377978 104.94449066 283 106 C286.33273828 107.97139942 289.10358074 110.44523583 292 113 C293.50994642 114.16014217 295.03014634 115.30711939 296.5625 116.4375 C297.22378906 116.93121094 297.88507813 117.42492187 298.56640625 117.93359375 C299.03949219 118.28550781 299.51257813 118.63742188 300 119 C305.70110746 96.80330242 307.16179396 73.60476245 307.5625 50.75 C307.60149414 49.53715332 307.64048828 48.32430664 307.68066406 47.07470703 C307.8704635 41.29245311 307.8704635 41.29245311 305.69482422 36.13867188 C302.67257384 33.55316288 299.85033538 32.08676892 295.9375 31.6875 C286.03062161 32.47376019 278.02354056 38.76976094 270.98046875 45.37890625 C270.42256149 45.89804092 269.86465424 46.4171756 269.2898407 46.95204163 C265.15058191 50.83783883 261.14231063 54.84113117 257.17578125 58.90234375 C256.61083954 59.47973297 256.04589783 60.05712219 255.46383667 60.65200806 C253.16039096 63.0096978 250.85868389 65.36858724 248.57592773 67.74633789 C241.97372341 74.60880087 236.11503728 80.59711084 227 84 C225.3603125 84.6496875 225.3603125 84.6496875 223.6875 85.3125 C207.59621008 88.312571 195.15721205 82.51466201 181.890625 74.03515625 C178.52011663 71.66213617 175.46103307 69.10180475 172.48828125 66.25 C171.0686809 64.78561835 171.0686809 64.78561835 169 65 C168.71382813 64.42378906 168.42765625 63.84757812 168.1328125 63.25390625 C167.57207031 62.13822266 167.57207031 62.13822266 167 61 C166.53207031 59.99259766 166.53207031 59.99259766 166.0546875 58.96484375 C163.86018654 55.19349939 161.99011213 53.34666088 157.8203125 51.88671875 C153.55329554 51.03593316 149.32054256 50.48328419 145 50 C143.52461932 49.7964427 142.04936005 49.59200359 140.57421875 49.38671875 C111.2688418 45.71486523 79.9855222 46.27500319 51 52 C50.26845703 52.13994385 49.53691406 52.2798877 48.78320312 52.42407227 C45.91533734 53.35031753 45.03227501 55.5200043 43.4375 58 C33.21694671 72.54970109 16.10975816 81.92085236 -1 86 C-12.55621125 87.54478917 -21.88594711 83.87164711 -31 77 C-33.86430773 74.46117892 -36.52649957 71.75717991 -39.18359375 69.00390625 C-39.92400406 68.25213608 -40.66441437 67.50036591 -41.42726135 66.72581482 C-44.55864149 63.54592932 -47.67171235 60.3483457 -50.78637695 57.15209961 C-53.07907717 54.80469132 -55.38108889 52.46669207 -57.68359375 50.12890625 C-58.36932968 49.4182753 -59.05506561 48.70764435 -59.76158142 47.97547913 C-67.59159357 40.02981591 -76.25323612 32.93495426 -87.625 31.5625 C-92.56359202 32.20268785 -95.53982355 34.53982355 -99 38 Z " fill="#010100" transform="translate(152,29)"/>
<path d="M0 0 C0.95849854 -0.00942627 1.91699707 -0.01885254 2.90454102 -0.02856445 C24.86080823 0.07183087 43.71914821 10.47384664 61.328125 22.61328125 C64.09508668 24.50866416 66.91273132 26.26884509 69.796875 27.98046875 C83.25961081 36.05753942 83.25961081 36.05753942 86.18359375 43.77734375 C90.15265919 52.98034164 99.65188585 59.72138162 108.25 64.25 C112.5251057 65.8668669 116.81234903 67.16205976 121.25 68.25 C121.25 71.25 121.25 71.25 119.81640625 72.86328125 C117.6542838 74.69665994 115.47644705 76.49503586 113.25 78.25 C112.57582031 78.78238281 111.90164062 79.31476563 111.20703125 79.86328125 C99.3624141 88.46340665 84.67217133 91.656708 70.25 90.25 C66.30522919 89.50462179 62.49284347 88.34676829 58.640625 87.2265625 C54.31265465 85.98002726 50.76549322 85.17716946 46.25 85.25 C43 87 43 87 41.25 90.25 C40.58032456 93.27549797 40.79403931 95.05827519 41.25 98.25 C43.37140988 101.43211482 45.71873685 102.44676975 49.12890625 103.85546875 C54.00389077 106.2691671 55.53476312 109.48750966 57.6875 114.3125 C66.21687548 131.75128182 79.94602346 144.15872204 98.17773438 150.97021484 C121.43186393 158.74349916 148.44719417 157.66109921 170.58203125 147.140625 C175.52170144 144.66888661 179.94329257 141.70312578 184.25 138.25 C184.95511719 137.70730469 185.66023438 137.16460937 186.38671875 136.60546875 C192.85284617 131.34635178 197.5380866 124.98396221 201.078125 117.44921875 C206.61456033 105.79625934 206.61456033 105.79625934 213.125 103 C214.05054688 102.70609375 214.97609375 102.4121875 215.9296875 102.109375 C218.58476374 101.38441975 218.58476374 101.38441975 220.25 98.25 C220.60293451 96.06971604 220.60293451 96.06971604 220.5625 93.75 C220.57925781 92.9765625 220.59601563 92.203125 220.61328125 91.40625 C220.15718173 88.69907868 219.44023855 87.87038011 217.25 86.25 C210.85130498 83.98124826 205.23399911 85.91074465 199.14453125 88.2421875 C185.82592783 92.87943404 171.91569724 90.52996553 159.34765625 84.96484375 C152.50794816 81.52100756 146.32179632 77.02590687 141.25 71.25 C141.25 70.26 141.25 69.27 141.25 68.25 C142.14460937 67.97027344 143.03921875 67.69054687 143.9609375 67.40234375 C159.88883232 62.12134664 171.2643891 53.20394652 179.25 38.25 C179.63865234 37.23873047 179.63865234 37.23873047 180.03515625 36.20703125 C181.8704565 33.25048647 184.36343985 31.99892042 187.3125 30.1875 C188.58910337 29.39543586 189.86511983 28.60242517 191.140625 27.80859375 C192.14899414 27.18573486 192.14899414 27.18573486 193.17773438 26.55029297 C195.26068086 25.24329804 197.3123987 23.89770516 199.359375 22.53515625 C225.8303808 4.9435084 250.39302161 -3.98860773 282.6875 1.3125 C300.97473629 5.39754026 319.19481129 13.82200595 333.25 26.25 C334.08015625 26.96027344 334.9103125 27.67054688 335.765625 28.40234375 C341.74215776 33.61806022 347.19789016 39.13336961 352.25 45.25 C352.6836084 45.76643066 353.1172168 46.28286133 353.56396484 46.81494141 C361.07202131 55.92045669 361.07202131 55.92045669 361.42578125 60.55078125 C360.68525306 63.05537021 359.58476109 65.00068039 358.25 67.25 C357.42628906 68.93029297 357.42628906 68.93029297 356.5859375 70.64453125 C332.19261248 120.10481533 281.5331795 155.80685765 230.41259766 173.19873047 C212.8970476 179.02102154 195.57007305 183.83694235 177.25 186.25 C176.15478027 186.39808105 175.05956055 186.54616211 173.93115234 186.69873047 C147.73148225 190.11192547 119.90695838 191.5435328 93.68310547 187.60498047 C90.80518183 187.18510279 87.92140436 186.83077848 85.03515625 186.47265625 C39.22315668 180.5387854 -5.53891335 163.27955829 -41.75 134.25 C-42.73484375 133.46882812 -43.7196875 132.68765625 -44.734375 131.8828125 C-64.9450546 115.51286092 -82.3715532 96.19388877 -94.75 73.25 C-95.07677734 72.64575195 -95.40355469 72.04150391 -95.74023438 71.41894531 C-101.04193311 61.41239222 -101.04193311 61.41239222 -100.109375 57.69921875 C-85.95183409 32.19123555 -59.42637828 12.12759666 -31.69580078 3.82226562 C-21.1314244 0.85238097 -10.9247538 0.08098861 0 0 Z " fill="#F6E2CC" transform="translate(125.75,302.75)"/>
<path d="M0 0 C1.08474609 -0.00773437 2.16949219 -0.01546875 3.28710938 -0.0234375 C9.38254845 -0.00863376 14.61130567 0.45249021 20.4375 2.25 C21.51773438 2.58257812 22.59796875 2.91515625 23.7109375 3.2578125 C35.77309032 7.60261818 43.96583036 14.10764523 50.4375 25.25 C53.15777948 33.41083845 52.65229281 43.93898928 49 51.6875 C45.57688045 57.57300508 41.27107219 62.48474685 36.4375 67.25 C35.59058594 68.11238281 35.59058594 68.11238281 34.7265625 68.9921875 C28.2396125 75.09941359 19.41586347 79.84189257 10.4375 80.25 C16.4123304 91.22922656 28.77752939 97.01405268 40.3125 100.625 C51.89789709 102.9958513 63.73593075 101.27022324 74.625 97 C78.72796589 95.90587576 82.33836393 96.20771493 86.4375 97.25 C89 98.75 89 98.75 90.4375 101.25 C91.21274793 105.61586994 91.01734203 109.06395949 89.0625 113.0625 C86.3439741 115.32793825 85.00211761 115.66500354 81.6875 116.5625 C76.98700686 118.24173913 75.44160246 120.3861285 73.33959961 124.68603516 C72.69156857 126.11462294 72.04527205 127.5439987 71.40063477 128.97412109 C63.21145518 147.0356641 47.48985055 157.00606199 29.80078125 164.34375 C20.04889273 167.84532577 9.97121759 168.61500677 -0.3125 168.5625 C-1.45412598 168.55758545 -2.59575195 168.5526709 -3.77197266 168.54760742 C-25.57039224 168.24584029 -45.16831795 161.03871812 -61.1015625 145.8359375 C-65.81636021 140.881658 -69.45660158 135.62358874 -72.4140625 129.4609375 C-77.17065335 119.5905569 -77.17065335 119.5905569 -86.4609375 114.109375 C-88.5625 113.25 -88.5625 113.25 -90.5625 110.25 C-91.23476891 103.30322129 -91.23476891 103.30322129 -88.6875 99.3125 C-86.5625 97.25 -86.5625 97.25 -84.5625 96.25 C-78.86916478 96.53949162 -73.90205062 97.69549761 -68.4375 99.3125 C-53.06809161 103.65098263 -38.03195194 101.23267503 -23.953125 93.8203125 C-20.12375871 91.30494445 -16.87547332 88.22603266 -13.59375 85.04296875 C-11.5625 83.25 -11.5625 83.25 -9.5625 83.25 C-9.5625 82.26 -9.5625 81.27 -9.5625 80.25 C-10.67625 80.188125 -11.79 80.12625 -12.9375 80.0625 C-24.95530931 78.51523355 -35.16538382 69.52955196 -42.7734375 60.6484375 C-45.65713744 56.78251662 -47.67854232 52.67386823 -49.5625 48.25 C-49.995625 47.280625 -50.42875 46.31125 -50.875 45.3125 C-52.60886408 37.58892364 -52.40296517 29.29694878 -48.5625 22.25 C-40.26729569 10.94928689 -28.87765137 3.56329413 -15.19384766 0.65136719 C-10.14647666 -0.11852314 -5.09477119 -0.03645632 0 0 Z " fill="#010101" transform="translate(256.5625,290.75)"/>
<path d="M0 0 C0.66 0.33 1.32 0.66 2 1 C-4.53760775 9.79244427 -11.4141043 18.08521532 -19 26 C-19.55284668 26.58539551 -20.10569336 27.17079102 -20.67529297 27.77392578 C-58.4559382 67.63192945 -112.95892768 91.88189395 -167 99 C-168.09521973 99.14808105 -169.19043945 99.29616211 -170.31884766 99.44873047 C-196.51851775 102.86192547 -224.34304162 104.2935328 -250.56689453 100.35498047 C-253.44481817 99.93510279 -256.32859564 99.58077848 -259.21484375 99.22265625 C-305.02684332 93.2887854 -349.78891335 76.02955829 -386 47 C-386.98484375 46.21882813 -387.9696875 45.43765625 -388.984375 44.6328125 C-403.62228138 32.77344021 -416.89351924 19.21636792 -428 4 C-424.61973688 4 -424.22221643 4.3386821 -421.7265625 6.38671875 C-421.07816406 6.90621094 -420.42976563 7.42570312 -419.76171875 7.9609375 C-419.05660156 8.53070313 -418.35148437 9.10046875 -417.625 9.6875 C-389.56988714 31.65837152 -356.14219604 48.03449304 -322 58 C-320.99098633 58.297854 -319.98197266 58.59570801 -318.94238281 58.90258789 C-304.04094831 63.23739736 -289.23971369 66.41375808 -273.8762207 68.57714844 C-270.87354317 69.01859123 -267.88559656 69.52118982 -264.89453125 70.03515625 C-182.98023895 83.79119936 -90.22011089 64.04001391 -22 17 C-14.48203328 11.57222346 -7.22817146 5.80486357 0 0 Z " fill="#F0C39D" transform="translate(470,390)"/>
<path d="M0 0 C0.67755341 0.23390442 1.35510681 0.46780884 2.05319214 0.70880127 C2.78569183 0.95068176 3.51819153 1.19256226 4.27288818 1.44177246 C6.62575506 2.22499255 8.97050104 3.02955562 11.31491089 3.83770752 C12.51985703 4.24661728 12.51985703 4.24661728 13.74914551 4.66378784 C26.17801805 8.88515118 38.26897378 13.48343856 50.00241089 19.40020752 C51.09126587 19.93460449 51.09126587 19.93460449 52.20211792 20.47979736 C66.98094917 27.75658439 80.37351487 36.82829078 93.00241089 47.40020752 C93.64178589 47.92872314 94.28116089 48.45723877 94.93991089 49.00177002 C96.29930461 50.12830463 97.65195123 51.26297833 99.00241089 52.40020752 C98.04187348 57.59840996 95.03514923 60.179212 91.00241089 63.40020752 C71.21185431 76.02161757 71.21185431 76.02161757 61.00241089 74.40020752 C54.56284147 71.48616072 49.7540419 66.51314086 44.91647339 61.50177002 C44.17464813 60.7485849 43.43282288 59.99539978 42.66851807 59.21939087 C39.52436862 56.02665314 36.39840585 52.81633207 33.27096558 49.60723877 C30.97168049 47.25323166 28.66307584 44.90864169 26.35397339 42.56427002 C25.6651004 41.85050201 24.97622742 41.13673401 24.26647949 40.40133667 C17.52911905 33.56494032 10.02072004 27.97312781 1.25241089 24.02520752 C0.20569214 23.54309814 -0.84102661 23.06098877 -1.91946411 22.56427002 C-9.37765128 19.74378807 -18.26459142 19.3380748 -25.99758911 21.40020752 C-26.50803469 14.48083408 -26.12966022 9.1532197 -21.99758911 3.40020752 C-15.25980961 -2.85630202 -8.49620255 -2.73892713 0 0 Z " fill="#EE9353" transform="translate(79.99758911132813,21.59979248046875)"/>
<path d="M0 0 C4.60200499 3.03313966 6.71319924 5.93301076 8 11.25 C8.67816954 14.80741565 8.93611305 18.18329557 8.75 21.8125 C7.986875 21.6475 7.22375 21.4825 6.4375 21.3125 C-8.23638189 19.3228211 -19.9206403 23.30282249 -31.87890625 32.01171875 C-37.24887057 36.31120521 -41.9864085 41.30693953 -46.7421875 46.26171875 C-49.58728963 49.20901393 -52.59085563 51.86201838 -55.72753906 54.49243164 C-57.56769266 56.08795931 -59.1372669 57.81111396 -60.6875 59.6875 C-72.80879052 73.84712412 -72.80879052 73.84712412 -82.125 75.5 C-92.14354664 75.17682108 -104.05195886 67.3870102 -111.25 60.8125 C-112.34178092 59.60368458 -113.41253767 58.37553293 -114.4609375 57.12890625 C-114.9873584 56.5057251 -115.5137793 55.88254395 -116.05615234 55.24047852 C-116.45012207 54.76924561 -116.8440918 54.2980127 -117.25 53.8125 C-89.98623163 28.79398314 -56.78879567 12.66800719 -21.6875 1.6875 C-20.75421875 1.39190186 -19.8209375 1.09630371 -18.859375 0.79174805 C-12.3501133 -1.15330962 -6.57834345 -2.40362549 0 0 Z " fill="#EF9353" transform="translate(449.25,21.1875)"/>
<path d="M0 0 C3.10039543 1.75494081 5.48825667 3.48825667 8 6 C8.4833488 10.16281466 8.33103018 14.37522481 8.3125 18.5625 C8.30831055 19.84431152 8.30412109 21.12612305 8.29980469 22.44677734 C8.10910278 44.07810429 6.39089097 66.01109964 1 87 C-0.14670384 86.14700232 -1.29228934 85.29250133 -2.4375 84.4375 C-3.1696875 83.89738281 -3.901875 83.35726562 -4.65625 82.80078125 C-6.21860808 81.60036946 -7.74114165 80.34628175 -9.21875 79.04296875 C-13.80237518 75.0807153 -16.81513153 73.21178338 -22.95703125 73.55859375 C-25.06402015 73.89313331 -25.06402015 73.89313331 -26.87158203 75.16894531 C-29 76 -29 76 -30.98852539 75.20825195 C-31.68453857 74.72316162 -32.38055176 74.23807129 -33.09765625 73.73828125 C-33.89075195 73.20098389 -34.68384766 72.66368652 -35.50097656 72.11010742 C-36.3462793 71.51689697 -37.19158203 70.92368652 -38.0625 70.3125 C-39.8474884 69.10267086 -41.63532727 67.89703821 -43.42578125 66.6953125 C-44.34182129 66.07946289 -45.25786133 65.46361328 -46.20166016 64.82910156 C-50.61857605 61.94203701 -55.16856722 59.30302436 -59.75 56.6875 C-60.57765869 56.21417236 -61.40531738 55.74084473 -62.25805664 55.25317383 C-64.1694554 54.16423721 -66.08430936 53.08136836 -68 52 C-65.662857 49.56547604 -63.22565365 47.33246347 -60.65234375 45.15625 C-56.65136476 41.68212985 -52.91856772 37.98042164 -49.19140625 34.21875 C-48.57607025 33.59790527 -47.96073425 32.97706055 -47.32675171 32.33740234 C-44.75705618 29.74008012 -42.19092882 27.13930349 -39.62963867 24.53369141 C-14.29363145 -1.2113247 -14.29363145 -1.2113247 0 0 Z " fill="#F5E1CB" transform="translate(451,61)"/>
<path d="M0 0 C14.60905683 5.11782246 25.46115469 18.99052618 36.015625 29.734375 C39.02668202 32.79883196 42.04446672 35.85643463 45.06640625 38.91015625 C46.08375603 39.95240105 46.08375603 39.95240105 47.12165833 41.01570129 C50.75853221 44.68984061 54.27911945 47.73784415 58.703125 50.421875 C55.81097725 52.66337319 52.83972902 54.61360623 49.703125 56.49609375 C48.73834229 57.07794434 47.77355957 57.65979492 46.77954102 58.25927734 C45.76432373 58.86980957 44.74910645 59.4803418 43.703125 60.109375 C35.5669445 65.02756613 27.52140339 70.00792739 19.703125 75.421875 C18.84074219 74.94621094 18.84074219 74.94621094 17.9609375 74.4609375 C14.12704183 72.69654953 10.8170503 72.46708548 6.703125 73.421875 C1.80280195 76.42459521 -2.28916302 80.3316513 -6.296875 84.421875 C-7.286875 85.411875 -7.286875 85.411875 -8.296875 86.421875 C-8.956875 86.421875 -9.616875 86.421875 -10.296875 86.421875 C-16.66121355 50.88070345 -16.66121355 50.88070345 -17.296875 33.421875 C-17.34150879 32.32891113 -17.38614258 31.23594727 -17.43212891 30.10986328 C-17.56957021 26.33897371 -17.65699636 22.56944428 -17.734375 18.796875 C-17.78094238 17.56235596 -17.82750977 16.32783691 -17.87548828 15.0559082 C-17.97881016 6.42615616 -17.97881016 6.42615616 -16.00048828 3.51269531 C-10.99880516 -0.73622614 -6.21631345 -1.56465032 0 0 Z " fill="#F5E1CB" transform="translate(70.296875,61.578125)"/>
<path d="M0 0 C3.08074603 1.4288528 5.6562904 3.16006639 8.375 5.1875 C21.93513319 14.7675941 35.63496056 18.99563638 52 21 C49.32309066 29.23664412 41.44743093 35.79790828 34.04296875 39.98046875 C20.1400495 46.91863686 6.25031017 47.45719934 -9 47 C-10.31484375 46.97292969 -10.31484375 46.97292969 -11.65625 46.9453125 C-26.87844005 45.97972582 -38.83829312 37.44998414 -49.28515625 27.11328125 C-51.00576957 24.99288989 -51.60838605 23.66899966 -52 21 C-51.11699219 20.89042969 -50.23398438 20.78085937 -49.32421875 20.66796875 C-30.34056788 18.15992465 -15.003381 11.95184588 0 0 Z " fill="#A80B17" transform="translate(256,392)"/>
<path d="M0 0 C7.14569721 5.05865605 14.09632596 12.25463554 16.19140625 20.94921875 C17.26663618 27.42840601 18.09541698 34.19914092 14.70703125 39.9921875 C10.53948168 42.28859237 7.29379752 42.66871323 2.64453125 41.6796875 C-0.99357889 39.54427502 -2.0874335 37.67179902 -3.1796875 33.62890625 C-3.6622774 31.37426667 -4.09929088 29.10926169 -4.484375 26.8359375 C-5.47642437 23.24142677 -6.7879931 21.35611507 -9.35546875 18.6796875 C-14.15341021 16.05439877 -17.90701014 15.0853102 -23.35546875 15.6796875 C-28.22179383 17.43156453 -31.94519481 20.05056932 -34.35546875 24.6796875 C-35.20054004 27.99401586 -35.85126407 31.27816089 -36.38671875 34.65625 C-37.60016325 38.44337113 -38.98610735 39.63557565 -42.35546875 41.6796875 C-45.43385516 42.3856918 -48.25573253 42.26487135 -51.35546875 41.6796875 C-54.3876255 39.48137386 -55.17201273 38.23005556 -56.35546875 34.6796875 C-57.50925187 25.07032237 -55.11056149 16.97204635 -49.5234375 9.09765625 C-36.72885656 -6.11956724 -17.62550606 -9.87963689 0 0 Z " fill="#030201" transform="translate(176.35546875,237.3203125)"/>
<path d="M0 0 C9.38397975 5.08567816 15.51965062 13.41322464 18.83984375 23.5390625 C19.51431323 29.67318493 20.02875859 35.46804955 16.90234375 40.9140625 C12.7354941 43.12504395 9.45349039 43.5354762 4.83984375 42.5390625 C1.42636726 40.43287488 0.14555307 38.80691218 -0.796875 34.8984375 C-1.11526355 32.99320044 -1.38718676 31.07944062 -1.60546875 29.16015625 C-2.2230808 26.24172183 -3.30759355 24.82722778 -5.16015625 22.5390625 C-5.16015625 21.8790625 -5.16015625 21.2190625 -5.16015625 20.5390625 C-11.40844851 18.00597104 -16.39525457 16.78975202 -23.16015625 17.5390625 C-28.040387 19.88880323 -30.71194612 22.73007832 -33.16015625 27.5390625 C-33.51520805 29.40647233 -33.82462609 31.28290972 -34.09765625 33.1640625 C-34.67526626 36.76188756 -34.96399139 38.28345374 -37.22265625 41.2265625 C-41.27634551 43.03778536 -44.79219944 43.36366743 -49.16015625 42.5390625 C-52.192313 40.34074886 -52.97670023 39.08943056 -54.16015625 35.5390625 C-55.19545826 26.28923304 -52.68677734 18.81822522 -47.34765625 11.2890625 C-35.33369609 -3.64558471 -17.55036471 -7.76641603 0 0 Z " fill="#030101" transform="translate(374.16015625,236.4609375)"/>
<path d="M0 0 C4.30895705 3.48970379 7.2228592 6.99771567 8.125 12.5625 C8.28215909 17.95213234 6.95023398 21.9318253 3.19140625 25.91796875 C-3.51637897 32.06782854 -8.69969529 33.48890134 -17.77734375 33.3046875 C-25.51845361 32.57280075 -29.68097045 28.80312356 -34.5546875 23 C-38.6608417 17.3179704 -38.925354 11.89294309 -38 5 C-35.8125 1.9375 -35.8125 1.9375 -33 0 C-32.175 -0.5775 -31.35 -1.155 -30.5 -1.75 C-21.36718841 -6.31640579 -8.56244815 -5.32341347 0 0 Z " fill="#F6E1CB" transform="translate(200,182)"/>
<path d="M0 0 C3.55702382 2.14978375 6.35364512 4.01979023 8.25 7.8125 C9.41705742 14.28097785 7.87188395 19.43276359 4.25 24.8125 C-0.06393305 29.80758038 -5.3597061 34.44368694 -12.16796875 35.015625 C-19.87314538 35.14603702 -25.7944985 34.21741288 -32.0625 29.5625 C-36.17598957 25.35334788 -37.51411747 21.67007496 -38.25 15.875 C-38.02293925 10.99319386 -35.96578562 7.41294897 -32.75 3.8125 C-23.68554143 -3.3120939 -10.55893618 -5.03482906 0 0 Z " fill="#F6E1CB" transform="translate(343.75,180.1875)"/>
</svg>
