<?xml version="1.0" encoding="utf-8"?>
<svg height="99.4542px" viewBox="48.0137 31.5996 419.0064 99.4542" width="419.006px"
    xmlns="http://www.w3.org/2000/svg">
    <g style=""
        id="svg"
        transform="matrix(1.2626190185546875, 0, 0, 1.2011200189590454, -40.37967681884777, -244.3773956298828)">
        <title>Letras</title>
        <path style="stroke-width: 1;" d="M 346.259 237.607 C 343.499 238.009 342.895 239.321 342.849 245.023 L 342.82 248.772 L 340.753 248.878 C 336.89 249.078 335.338 249.826 334.435 251.925 C 333.916 253.134 333.86 255.449 334.335 255.97 C 334.5 256.151 334.635 256.426 334.635 256.583 C 334.635 257.937 337.498 259.082 340.878 259.082 C 343.131 259.082 342.906 257.741 342.91 271.26 C 342.913 282.3 343.009 285.074 343.405 285.571 C 343.485 285.672 343.605 286.061 343.672 286.437 C 343.809 287.2 344.443 288.566 344.66 288.566 C 344.738 288.566 344.801 288.666 344.801 288.788 C 344.801 289.082 346.042 290.937 346.554 291.409 C 347.834 292.595 348.738 293.338 348.892 293.338 C 348.988 293.338 349.158 293.445 349.269 293.578 C 349.379 293.708 349.679 293.867 349.936 293.93 C 350.193 293.995 350.518 294.149 350.661 294.272 C 351.044 294.607 355.407 295.723 356.339 295.726 C 356.878 295.728 359.001 295.238 359.709 294.949 C 359.993 294.833 360.471 294.686 360.774 294.623 C 361.075 294.561 361.413 294.399 361.527 294.264 C 361.639 294.13 361.808 294.02 361.903 294.02 C 363.334 294.02 365.998 290.461 365.998 288.547 C 365.998 286.8 364.027 284.105 362.582 283.876 C 362.233 283.82 361.754 283.728 361.519 283.671 C 361.281 283.614 361.014 283.585 360.926 283.606 C 360.838 283.628 360.395 283.713 359.942 283.8 C 359.185 283.941 357.844 284.709 356.94 285.522 C 356.464 285.948 356.44 285.942 355.445 285.158 C 354.968 284.783 354.513 284.476 354.435 284.476 C 353.643 284.476 353.431 281.179 353.424 268.76 C 353.419 259.712 353.428 259.429 353.752 259.259 C 353.947 259.156 355.401 259.081 357.241 259.079 C 362.151 259.076 363.49 258.646 364.348 256.798 C 365.253 254.846 365.254 253.776 364.353 251.84 C 363.353 249.687 361.766 249.132 355.916 248.882 L 353.333 248.772 L 353.246 244.827 C 353.171 241.385 353.122 240.84 352.858 240.553 C 352.692 240.371 352.556 240.16 352.556 240.084 C 352.556 239.773 351.651 238.796 350.893 238.29 C 349.747 237.526 348.294 237.311 346.259 237.607 M 308.615 248.363 C 305.456 248.806 304.954 248.898 304.519 249.123 C 304.26 249.257 303.917 249.367 303.758 249.367 C 303.595 249.368 303.421 249.44 303.368 249.525 C 303.313 249.612 303.018 249.736 302.711 249.801 C 302.173 249.913 300.531 250.586 299.999 250.91 C 299.856 250.997 299.479 251.183 299.16 251.325 C 298.842 251.467 298.324 251.792 298.014 252.053 C 297.701 252.309 297.157 252.713 296.804 252.947 C 296.453 253.182 295.982 253.566 295.76 253.8 C 295.537 254.034 295.264 254.301 295.153 254.395 C 294.447 255.001 292.765 256.771 292.34 257.358 C 292.062 257.745 291.77 258.059 291.694 258.059 C 291.618 258.059 291.555 258.177 291.555 258.317 C 291.555 258.46 291.399 258.706 291.211 258.866 C 291.02 259.028 290.865 259.252 290.865 259.365 C 290.865 259.476 290.435 260.4 289.91 261.414 C 289.383 262.428 288.847 263.703 288.715 264.247 C 288.585 264.793 288.399 265.332 288.301 265.448 C 288.205 265.565 288.072 266.193 288.009 266.845 C 287.944 267.496 287.785 268.288 287.654 268.604 C 287.322 269.417 287.325 275.144 287.658 276.162 C 287.79 276.564 287.948 277.338 288.007 277.883 C 288.065 278.428 288.222 279.04 288.353 279.246 C 288.484 279.45 288.648 279.881 288.714 280.202 C 288.783 280.522 289.138 281.366 289.505 282.076 C 289.871 282.786 290.173 283.458 290.175 283.568 C 290.176 283.677 290.237 283.792 290.311 283.823 C 290.385 283.854 290.671 284.326 290.948 284.871 C 291.224 285.416 291.638 286.063 291.868 286.307 C 292.097 286.553 292.589 287.134 292.961 287.598 C 293.333 288.062 293.997 288.76 294.441 289.145 C 294.884 289.529 295.549 290.133 295.92 290.484 C 296.29 290.835 296.649 291.123 296.719 291.123 C 296.786 291.123 296.985 291.276 297.156 291.464 C 297.326 291.652 297.56 291.804 297.675 291.804 C 297.788 291.804 298.243 292.078 298.684 292.41 C 299.125 292.743 299.737 293.1 300.045 293.201 C 300.35 293.302 300.718 293.483 300.86 293.599 C 301.002 293.717 301.389 293.866 301.722 293.931 C 302.054 294 302.48 294.151 302.672 294.271 C 302.861 294.388 303.404 294.573 303.877 294.68 C 304.351 294.784 305.28 295.032 305.944 295.229 C 309.089 296.16 314.318 296.192 316.972 295.296 C 317.636 295.069 318.566 294.803 319.038 294.701 C 319.509 294.596 320.013 294.417 320.157 294.301 C 320.3 294.184 320.805 293.991 321.276 293.875 C 321.748 293.756 322.175 293.607 322.224 293.542 C 322.273 293.478 322.675 293.244 323.117 293.026 C 323.557 292.805 324.063 292.519 324.238 292.386 C 324.839 291.93 325.863 291.293 325.993 291.293 C 327.099 291.293 330.328 286.698 330.328 285.125 C 330.328 284.016 328.912 281.238 328.349 281.238 C 328.219 281.238 328.007 281.136 327.88 281.009 C 327.121 280.259 324.232 280.101 323.001 280.744 C 321.856 281.343 320.486 282.28 320.388 282.533 C 320.263 282.859 319.116 283.597 317.663 284.291 C 316.998 284.607 316.249 284.968 315.998 285.096 C 315.746 285.224 315.394 285.328 315.214 285.328 C 315.035 285.328 314.79 285.424 314.672 285.541 C 314.516 285.696 313.644 285.755 311.544 285.755 C 309.444 285.755 308.573 285.696 308.416 285.541 C 308.299 285.424 308.032 285.328 307.826 285.328 C 307.449 285.328 306.027 284.76 304.737 284.094 C 303.774 283.596 301.892 282.08 301.895 281.805 C 301.899 281.617 303.048 281.092 303.743 280.961 C 304.048 280.903 304.388 280.75 304.497 280.621 C 304.605 280.492 304.867 280.386 305.078 280.386 C 305.29 280.386 305.96 280.134 306.565 279.825 C 307.171 279.516 308.016 279.157 308.442 279.024 C 308.869 278.892 309.372 278.691 309.563 278.576 C 309.753 278.46 310.199 278.313 310.556 278.249 C 310.912 278.185 311.242 278.071 311.288 277.996 C 311.402 277.812 312.691 277.217 313.441 277 C 313.771 276.903 314.586 276.622 315.25 276.372 C 315.912 276.123 316.805 275.804 317.23 275.666 C 318.216 275.346 319.436 274.786 319.554 274.597 C 319.605 274.517 319.948 274.4 320.318 274.338 C 320.688 274.277 321.133 274.118 321.307 273.988 C 321.482 273.857 321.72 273.748 321.835 273.745 C 321.951 273.742 322.469 273.548 322.987 273.314 C 323.505 273.079 324.034 272.887 324.161 272.887 C 324.291 272.887 324.699 272.733 325.071 272.547 C 325.442 272.36 325.837 272.206 325.949 272.206 C 326.059 272.206 326.242 272.094 326.355 271.961 C 326.467 271.826 326.807 271.664 327.109 271.603 C 327.41 271.541 327.812 271.398 328.001 271.286 C 328.19 271.173 328.672 270.977 329.069 270.853 C 329.467 270.727 329.833 270.519 329.881 270.392 C 329.931 270.264 330.074 270.161 330.201 270.161 C 331.136 270.161 332.707 266.643 332.162 265.77 C 332.108 265.683 331.977 264.907 331.871 264.043 C 331.689 262.563 331.211 261.098 330.839 260.869 C 330.747 260.812 330.671 260.649 330.671 260.506 C 330.671 260.286 330.105 259.214 329.244 257.804 C 328.408 256.439 325.522 253.542 324.068 252.613 C 323.436 252.209 322.917 251.819 322.917 251.75 C 322.917 251.679 322.607 251.498 322.228 251.347 C 321.849 251.198 321.539 250.998 321.539 250.903 C 321.539 250.809 321.404 250.731 321.237 250.73 C 321.071 250.729 320.549 250.54 320.074 250.31 C 319.599 250.079 319.112 249.887 318.993 249.886 C 318.87 249.882 318.289 249.676 317.699 249.429 C 315.552 248.528 311.137 248.009 308.615 248.363 M 256.66 248.764 C 255.995 248.874 255.221 249.059 254.937 249.179 C 254.652 249.296 253.954 249.548 253.385 249.737 C 252.818 249.926 252.158 250.184 251.921 250.307 C 251.684 250.43 250.985 250.776 250.37 251.072 C 249.754 251.367 249.079 251.798 248.87 252.025 C 248.04 252.927 246.752 252.728 246.752 251.695 C 246.752 251.323 245.309 250.095 244.597 249.864 C 244.218 249.74 243.835 249.578 243.744 249.504 C 243.521 249.319 240.763 249.332 240.647 249.518 C 240.596 249.6 240.223 249.749 239.818 249.85 C 238.875 250.084 237.928 251.04 237.458 252.229 C 237.103 253.127 237.101 253.229 237.101 280.918 L 237.101 308.707 L 237.597 309.757 C 238.25 311.144 238.999 311.899 240.04 312.219 C 242.968 313.12 245.681 312.243 247.026 309.954 L 247.527 309.103 L 247.579 300.624 C 247.638 291.066 247.569 291.472 248.923 292.648 C 249.239 292.924 249.774 293.201 250.108 293.264 C 250.442 293.326 250.715 293.442 250.715 293.523 C 250.715 293.604 251.14 293.792 251.659 293.941 C 252.179 294.09 252.642 294.276 252.692 294.352 C 252.739 294.43 253.148 294.546 253.6 294.612 C 254.05 294.677 254.652 294.829 254.937 294.949 C 257.027 295.829 263.494 295.889 265.2 295.042 C 265.347 294.97 265.929 294.818 266.492 294.705 C 267.055 294.593 267.688 294.393 267.898 294.26 C 268.107 294.128 268.371 294.02 268.484 294.02 C 268.799 294.02 270.873 293.021 271.703 292.468 C 272.112 292.196 272.514 291.975 272.6 291.975 C 272.685 291.975 272.816 291.876 272.893 291.759 C 272.968 291.639 273.255 291.399 273.53 291.227 C 273.802 291.053 274.501 290.452 275.08 289.888 C 275.658 289.325 276.306 288.75 276.52 288.61 C 276.734 288.471 276.907 288.251 276.907 288.121 C 276.907 287.991 276.973 287.885 277.054 287.885 C 277.207 287.885 279.031 285.357 279.513 284.477 C 279.666 284.199 279.869 283.872 279.965 283.755 C 280.058 283.636 280.235 283.232 280.354 282.857 C 280.472 282.483 280.639 282.09 280.722 281.988 C 280.886 281.781 281.526 280.042 281.685 279.364 C 281.741 279.13 281.883 278.784 282.002 278.597 C 282.122 278.408 282.303 277.464 282.407 276.496 C 282.511 275.529 282.672 274.595 282.768 274.419 C 283.023 273.949 282.977 270.377 282.701 269.301 C 282.571 268.79 282.417 267.77 282.358 267.038 C 282.298 266.288 282.138 265.544 281.993 265.337 C 281.85 265.137 281.732 264.801 281.732 264.594 C 281.732 264.385 281.659 264.171 281.571 264.117 C 281.484 264.064 281.293 263.617 281.146 263.127 C 281.001 262.637 280.725 261.933 280.532 261.56 C 280.339 261.19 280.182 260.796 280.182 260.687 C 280.182 260.578 280.07 260.397 279.936 260.284 C 279.798 260.173 279.64 259.869 279.582 259.608 C 279.524 259.348 279.209 258.878 278.881 258.563 C 278.554 258.25 278.286 257.891 278.286 257.766 C 278.286 257.641 278.178 257.497 278.043 257.447 C 277.91 257.396 277.704 257.126 277.588 256.848 C 277.472 256.57 277.233 256.266 277.056 256.173 C 276.879 256.079 276.736 255.891 276.736 255.753 C 276.736 255.617 276.661 255.503 276.571 255.503 C 276.481 255.503 275.903 255.025 275.289 254.438 C 274.674 253.853 273.991 253.243 273.773 253.082 C 273.166 252.638 272.178 251.857 272.083 251.744 C 272.035 251.69 271.454 251.395 270.79 251.09 C 270.127 250.787 269.468 250.466 269.326 250.379 C 269.001 250.177 269.016 250.184 267.258 249.637 C 266.452 249.385 265.637 249.113 265.449 249.031 C 264.295 248.532 259.046 248.374 256.66 248.764 M 314.992 258.98 C 315.322 259.156 315.71 259.365 315.853 259.443 C 315.994 259.521 316.355 259.708 316.655 259.857 C 316.954 260.007 317.336 260.278 317.5 260.457 C 317.666 260.639 317.892 260.786 318.002 260.786 C 318.208 260.786 320.333 262.9 320.333 263.106 C 320.333 263.168 320.533 263.402 320.777 263.626 C 321.313 264.118 321.261 264.365 320.54 264.727 C 320.238 264.878 319.894 265.077 319.776 265.169 C 319.654 265.26 319.182 265.437 318.723 265.559 C 318.262 265.682 317.607 265.924 317.264 266.097 C 316.922 266.27 316.553 266.411 316.443 266.411 C 316.334 266.411 315.812 266.64 315.284 266.917 C 314.754 267.199 314.009 267.476 313.626 267.537 C 313.243 267.597 312.84 267.752 312.733 267.88 C 312.625 268.011 312.434 268.115 312.312 268.115 C 312.086 268.115 309.84 268.943 308.873 269.381 C 308.589 269.511 308.003 269.777 307.57 269.974 C 307.136 270.169 306.622 270.33 306.427 270.33 C 306.231 270.33 305.982 270.438 305.873 270.569 C 305.763 270.7 305.425 270.854 305.119 270.91 C 304.814 270.967 304.346 271.128 304.077 271.266 C 303.807 271.405 303.265 271.6 302.87 271.7 C 302.212 271.867 301.945 271.967 300.687 272.534 C 300.45 272.64 299.831 272.834 299.309 272.965 C 298.788 273.095 298.187 273.255 297.973 273.319 C 297.503 273.463 297.395 271.084 297.82 269.883 C 297.948 269.52 298.106 268.813 298.173 268.313 C 298.237 267.812 298.443 267.124 298.628 266.781 C 298.813 266.44 298.965 266.034 298.965 265.88 C 298.965 265.727 299.072 265.513 299.203 265.406 C 299.332 265.299 299.481 265 299.534 264.746 C 299.586 264.49 300.105 263.782 300.689 263.172 C 301.273 262.563 301.802 261.987 301.865 261.891 C 301.928 261.797 302.174 261.586 302.411 261.422 C 304.114 260.252 304.933 259.764 305.192 259.764 C 305.359 259.764 305.539 259.689 305.597 259.599 C 305.731 259.383 306.756 258.904 307.46 258.729 C 308.629 258.437 314.331 258.625 314.992 258.98 M 261.657 258.928 C 262.036 259.026 262.643 259.168 263.005 259.243 C 263.37 259.32 263.754 259.469 263.859 259.573 C 263.965 259.679 264.175 259.764 264.324 259.764 C 264.635 259.764 266.948 260.834 267.355 261.164 C 268.803 262.344 270.551 264.354 270.948 265.298 C 271.105 265.668 271.291 266.014 271.361 266.064 C 271.686 266.299 272.085 267.138 272.188 267.806 C 272.252 268.21 272.388 268.694 272.492 268.882 C 273.11 269.989 273.106 274.801 272.488 275.695 C 272.36 275.88 272.255 276.179 272.255 276.359 C 272.255 276.8 271.428 278.511 271.215 278.511 C 271.124 278.511 271.047 278.646 271.046 278.811 C 271.04 279.381 268.92 282.089 268.479 282.089 C 268.406 282.089 268.266 282.264 268.169 282.476 C 268.071 282.688 267.768 282.972 267.495 283.11 C 267.222 283.247 266.861 283.495 266.691 283.662 C 266.522 283.829 266.195 283.966 265.967 283.966 C 265.738 283.966 265.49 284.063 265.414 284.181 C 264.907 284.977 260.049 285.644 258.099 285.187 C 256.654 284.849 255.108 284.395 255.023 284.284 C 254.976 284.223 254.665 284.048 254.334 283.896 C 253.368 283.45 252.394 282.823 252.237 282.546 C 252.085 282.275 250.267 280.451 249.948 280.249 C 249.705 280.094 248.734 278.22 248.585 277.616 C 248.521 277.358 248.392 277.148 248.298 277.148 C 248.207 277.148 248.129 277.011 248.129 276.841 C 248.129 276.672 248.045 276.451 247.941 276.347 C 247.626 276.037 247.269 273.751 247.269 272.05 C 247.269 269.152 247.458 268.495 249.362 264.828 C 249.735 264.111 252.196 261.608 252.937 261.195 C 253.877 260.672 254.112 260.528 254.357 260.328 C 254.486 260.227 254.941 260.041 255.367 259.921 C 255.793 259.801 256.296 259.6 256.482 259.476 C 256.67 259.354 257.023 259.254 257.266 259.254 C 257.51 259.254 257.784 259.182 257.875 259.095 C 258.223 258.76 260.601 258.655 261.657 258.928"
            fill="#9bc36a"
            fill-rule="evenodd" id="path1" stroke="none" xmlns="http://www.w3.org/2000/svg" />
        <path style=""
            d="M 220.653 253.569 C 220.057 253.843 219.267 254.513 218.766 255.168 L 217.905 256.295 L 217.971 274.062 L 218.036 291.829 L 218.722 292.865 C 220.404 295.407 224.595 295.695 226.721 293.415 C 228.002 292.042 227.994 292.169 227.994 273.436 L 227.994 256.05 L 227.266 255 C 225.961 253.117 223.02 252.481 220.653 253.569"
            fill="#0a3459" fill-rule="evenodd" id="path0" stroke="none" />
        <path style=""
            d="M 153.613 235.651 C 150.221 236.882 148.846 241.204 150.878 244.247 C 154.118 249.099 161.801 247.335 161.811 241.736 C 161.819 237.167 157.754 234.15 153.613 235.651"
            fill="#0a3459" fill-rule="evenodd" id="path0" stroke="none" />
        <path style=""
            d="M 382.578 248.595 C 377.9 249.268 374.907 250.548 372.62 252.857 C 370.982 254.51 369.545 257.259 369.183 259.432 C 368.227 265.173 370.502 270.202 375.17 272.673 C 376.944 273.611 380.772 274.945 384.035 275.762 C 390.038 277.264 391.933 278.612 391.893 281.353 C 391.812 286.961 381.908 287.503 376.749 282.182 C 373.773 279.112 371.052 278.698 368.654 280.948 C 365.206 284.183 368.202 289.857 375.049 293.059 C 388.692 299.44 403.72 291.663 401.675 279.28 C 400.604 272.795 395.792 268.929 385.972 266.666 C 385.241 266.498 384.201 266.208 383.662 266.023 C 383.124 265.837 382.531 265.685 382.344 265.685 C 380.752 265.685 378.538 262.945 378.813 261.315 C 379.501 257.241 386.837 257.04 390.923 260.983 C 393.904 263.861 397.506 263.66 399.133 260.524 C 402.138 254.732 391.786 247.272 382.578 248.595"
            fill="#0a3459" fill-rule="evenodd" id="path0" stroke="none" />
        <path style=""
            d="M 99.275 233.55 C 94.921 233.928 92.964 234.37 89.175 235.831 C 88.162 236.222 87.271 236.541 87.196 236.541 C 86.964 236.541 83.803 238.509 82.396 239.53 C 80.199 241.124 75.352 246.158 75.352 246.846 C 75.352 246.94 75.09 247.365 74.769 247.79 C 74.255 248.47 73.777 249.433 72.272 252.813 C 72.064 253.281 71.678 254.315 71.414 255.112 C 70.955 256.501 70.833 257.059 70.223 260.585 C 69.706 263.572 70.165 269.988 71.131 273.26 C 71.315 273.886 71.467 274.528 71.467 274.687 C 71.467 274.966 72.309 277.065 73.118 278.8 C 73.706 280.061 75.911 283.675 76.586 284.482 C 83.252 292.46 91.687 296.335 101.582 295.969 C 106.909 295.772 113.349 294 116.055 291.988 C 116.469 291.681 116.899 291.429 117.011 291.429 C 117.124 291.429 117.714 291.016 118.324 290.511 C 118.934 290.006 119.706 289.421 120.04 289.209 C 125.931 285.486 125.664 278.893 119.574 277.675 C 118.055 277.371 116.701 278.019 114.551 280.08 C 111.412 283.087 110.669 283.559 106.925 284.925 C 101.704 286.829 93.252 285.511 88.831 282.103 C 88.297 281.691 87.718 281.244 87.544 281.109 C 80.702 275.808 78.301 263.9 82.376 255.485 C 83.725 252.7 86.051 249.503 87.226 248.822 C 87.441 248.697 87.771 248.441 87.959 248.254 C 88.314 247.902 89.775 246.897 90.874 246.251 C 95.763 243.375 103.344 243.132 108.77 245.676 C 109.451 245.995 110.087 246.256 110.184 246.256 C 110.384 246.256 112.251 247.764 114.18 249.483 C 116.879 251.889 119.423 252.007 121.89 249.841 C 125.522 246.652 123.327 241.977 116.154 237.621 C 113.737 236.154 113.281 235.961 109.232 234.696 C 107.613 234.19 101.358 233.281 100.489 233.425 C 100.355 233.448 99.809 233.504 99.275 233.55"
            fill="#0a3459" fill-rule="evenodd" id="path0" stroke="none" />
        <path style=""
            d="M 185.613 249.87 C 182.81 250.892 181.927 251.316 180.926 252.117 C 179.882 252.953 179.566 252.923 179.052 251.939 C 177.644 249.243 173.635 248.75 171.387 250.998 C 169.7 252.685 169.748 251.928 169.982 272.89 L 170.191 291.631 L 170.923 292.684 C 173.26 296.044 178.474 295.45 179.866 291.664 C 180.219 290.702 180.271 289.273 180.275 280.371 C 180.282 266.651 180.616 264.802 183.59 262.02 C 189.214 256.759 197.345 259.366 198.73 266.872 C 198.868 267.622 198.971 273.15 198.971 279.817 C 198.971 292.376 198.968 292.343 200.272 293.449 C 203.562 296.238 208.226 294.756 208.894 290.709 C 209.674 285.987 208.987 265.018 207.947 261.799 C 205.297 253.602 199.208 249.143 190.724 249.188 C 187.771 249.204 187.249 249.273 185.613 249.87"
            fill="#0a3459" fill-rule="evenodd" id="path0" stroke="none" />
        <path style=""
            d="M 134.753 233.667 C 133.465 233.913 132.348 234.698 131.576 235.902 C 131.097 236.648 131.09 237.073 131.09 264.469 L 131.09 292.279 L 131.635 293.156 C 133.563 296.256 138.809 296.084 140.451 292.866 C 140.914 291.957 140.926 291.26 140.926 264.592 C 140.926 233.876 141.065 236.234 139.16 234.624 C 138.628 234.175 135.947 233.172 135.947 233.422 C 135.947 233.431 135.41 233.541 134.753 233.667"
            fill="#0a3459" fill-rule="evenodd" id="path0" stroke="none" />
        <path style=""
            d="M 153.167 252.874 C 150.948 254.369 151.015 254.01 150.936 264.957 C 150.817 281.716 151.133 292.119 151.792 293.042 C 153.578 295.545 157.727 295.604 159.938 293.156 C 161.119 291.849 161.159 290.996 160.95 271.57 L 160.772 254.989 L 160.166 254.055 C 158.813 251.969 155.372 251.389 153.167 252.874"
            fill="#0a3459" fill-rule="evenodd" id="path0" stroke="none" />
        <path style=""
            d="M 228.601 235.51 C 226.988 236.315 226.14 239.549 227.024 241.52 C 227.177 241.862 226.942 241.749 226.227 241.137 C 222.639 238.067 218.976 238.447 216.869 242.108 L 216.228 243.22 L 216.222 242.027 C 216.198 237.957 211.143 235.552 209.862 239.001 C 209.077 241.116 210.83 244.439 212.814 244.597 C 214.005 244.691 214.864 244.535 215.295 244.145 C 215.968 243.536 215.987 243.836 215.359 245.164 C 213.97 248.102 215.032 251.113 217.457 251.113 C 218.094 251.113 218.675 251.016 218.748 250.897 C 218.821 250.779 219.176 250.607 219.537 250.517 C 219.897 250.427 220.521 250.118 220.923 249.832 C 221.741 249.249 224.932 249.159 226.219 249.681 C 226.736 249.891 227.067 249.86 227.798 249.536 C 230.265 248.44 230.421 245.535 228.147 243.038 C 227.502 242.33 227.585 242.199 228.402 242.637 C 229.053 242.985 230.894 242.49 231.569 241.785 C 234.557 238.661 232.213 233.705 228.601 235.51"
            fill="#fdf2d9" fill-rule="evenodd" id="path5" stroke="none" />
        <path style=""
            d="M 222.207 230.48 C 220.666 231.692 220.444 235.943 221.844 237.441 C 223.276 238.973 226.609 237.798 227.044 235.609 C 227.881 231.399 224.967 228.309 222.207 230.48"
            fill="#fdf2d9" fill-rule="evenodd" id="path5" stroke="none" />
        <path style=""
            d="M 218.268 232.185 C 220.275 234.036 220.316 237.766 218.338 238.598 C 215.374 239.844 212.524 234.385 214.864 231.943 C 215.91 230.851 216.896 230.921 218.268 232.185"
            fill="#fdf2d9" fill-rule="evenodd" id="path5" stroke="none" />
        <path style=""
            d="M 223.977 240.128 C 230.364 243.323 231.257 249.891 225.201 249.122 C 222.845 248.823 221.307 248.972 220.435 249.583 C 216.863 252.089 213.971 249.875 215.612 245.892 C 215.942 245.09 216.213 244.354 216.213 244.256 C 216.216 243.849 217.797 241.469 218.496 240.819 C 220.328 239.117 221.629 238.953 223.977 240.128"
            fill="#fdf2d9" fill-rule="evenodd" id="path5" stroke="none" />
        <path style=""
            d="M 231.454 235.943 C 231.747 236.148 232.108 236.767 232.257 237.318 C 233.3 241.191 228.579 244.501 227.339 240.765 C 226.273 237.553 229.071 234.274 231.454 235.943"
            fill="#fdf2d9" fill-rule="evenodd" id="path5" stroke="none" />
        <path style=""
            d="M 215.555 230.919 C 213.793 231.435 213.081 235.391 214.401 237.334 C 216.892 241 221.14 238.816 220.086 234.413 C 219.732 232.935 218.053 230.956 217.154 230.956 C 216.926 230.956 216.594 230.912 216.417 230.859 C 216.239 230.805 215.851 230.833 215.555 230.919"
            fill="#fdf2d9" fill-rule="evenodd" id="path5" stroke="none" />
        <path style=""
            d="M 213.795 238.248 C 215.711 239.613 216.446 242.345 215.224 243.566 C 214.082 244.708 212.954 244.617 211.456 243.26 C 208.557 240.636 210.7 236.044 213.795 238.248"
            fill="#fdf2d9" fill-rule="evenodd" id="path5" stroke="none" />
        <path style=""
            d="M 257.083 263.341 C 257.022 263.508 257.06 268.898 257.06 268.898 L 251.309 268.963 L 251.309 275.521 L 256.949 275.381 L 256.895 280.863 L 263.624 280.884 C 263.523 281.667 263.403 275.503 263.457 275.437 C 263.616 275.241 269.137 275.268 269.137 275.268 L 269.281 268.963 L 263.816 268.827 C 263.341 268.843 263.738 263.294 263.525 263.304"
            fill="#7fc7cd" fill-rule="evenodd" id="path2" stroke="none" />
        <path style=""
            d="M 226.084 231.14 C 228.405 234.035 225.936 238.784 222.748 237.554 C 220.849 236.821 220.804 232.211 222.682 230.73 C 223.641 229.973 225.309 230.174 226.084 231.14"
            fill="#fdf2d9" fill-rule="evenodd" id="path5" stroke="none" />
        <path style=""
            d="M 210.623 238.424 C 208.408 241.231 212.73 246.06 215.224 243.566 C 216.19 242.6 216.192 241.721 215.229 240.038 C 213.9 237.716 211.77 236.969 210.623 238.424"
            fill="#fbb949" fill-rule="evenodd" id="path4" stroke="none" />
        <path style=""
            d="M 220.222 239.661 C 218.692 240.381 216.22 243.214 216.213 244.256 C 216.213 244.354 215.942 245.09 215.612 245.892 C 214.856 247.727 214.855 248.221 215.604 249.408 C 216.649 251.064 218.242 251.122 220.435 249.583 C 221.307 248.972 222.845 248.823 225.201 249.122 C 230.014 249.733 230.886 245.998 226.816 242.202 C 224.215 239.776 221.886 238.879 220.222 239.661"
            fill="#fbb949" fill-rule="evenodd" id="path4" stroke="none" />
        <path style=""
            d="M 222.682 230.73 C 220.804 232.211 220.849 236.821 222.748 237.554 C 225.41 238.581 227.466 235.992 226.759 232.504 C 226.369 230.578 224.116 229.598 222.682 230.73"
            fill="#fbb949" fill-rule="evenodd" id="path4" stroke="none" />
        <path style=""
            d="M 228.269 236.265 C 226.546 238.063 226.777 241.765 228.641 242.226 C 230.962 242.799 232.991 240.045 232.257 237.318 C 231.758 235.466 229.584 234.892 228.269 236.265"
            fill="#fbb949" fill-rule="evenodd" id="path4" stroke="none" />
        <path style=""
            d="M 214.864 231.943 C 213.852 232.999 213.81 235.701 214.783 237.166 C 215.942 238.91 218.569 239.299 219.319 237.836 C 221.108 234.349 217.337 229.361 214.864 231.943"
            fill="#fbb949" fill-rule="evenodd" id="path4" stroke="none" />
    </g>
</svg>